%FSLAX34Y34*%
%MOMM*%
%LNSOLDERMASK_TOP*%
G71*
G01*
%ADD10C, 2.200*%
%ADD11C, 2.120*%
%ADD12C, 4.600*%
%ADD13C, 2.120*%
%ADD14C, 2.120*%
%ADD15R, 1.400X1.200*%
%LPD*%
G36*
X95300Y887300D02*
X133300Y887300D01*
X133300Y865300D01*
X95300Y865300D01*
X95300Y887300D01*
G37*
G36*
X95300Y811100D02*
X133300Y811100D01*
X133300Y789100D01*
X95300Y789100D01*
X95300Y811100D01*
G37*
X457200Y914400D02*
G54D10*
D03*
X406400Y914400D02*
G54D10*
D03*
X381000Y914400D02*
G54D10*
D03*
X355600Y914400D02*
G54D10*
D03*
X330200Y914400D02*
G54D10*
D03*
X304800Y914400D02*
G54D10*
D03*
X279400Y914400D02*
G54D10*
D03*
X228600Y914400D02*
G54D10*
D03*
X177800Y762000D02*
G54D10*
D03*
X203200Y762000D02*
G54D10*
D03*
X330200Y762000D02*
G54D10*
D03*
X431800Y762000D02*
G54D10*
D03*
X190500Y723900D02*
G54D11*
D03*
X114300Y647700D02*
G54D11*
D03*
X88900Y647700D02*
G54D11*
D03*
X63500Y647700D02*
G54D11*
D03*
X419100Y723900D02*
G54D11*
D03*
X342900Y647700D02*
G54D11*
D03*
X317500Y647700D02*
G54D11*
D03*
X292100Y647700D02*
G54D11*
D03*
X647700Y723900D02*
G54D11*
D03*
X571500Y647700D02*
G54D11*
D03*
X546100Y647700D02*
G54D11*
D03*
X520700Y647700D02*
G54D11*
D03*
X876300Y723900D02*
G54D11*
D03*
X800100Y647700D02*
G54D11*
D03*
X774700Y647700D02*
G54D11*
D03*
X749300Y647700D02*
G54D11*
D03*
G36*
X586300Y925000D02*
X607500Y925000D01*
X607500Y903800D01*
X586300Y903800D01*
X586300Y925000D01*
G37*
X723900Y914400D02*
G54D11*
D03*
X647700Y838200D02*
G54D11*
D03*
X622300Y838200D02*
G54D11*
D03*
X596900Y838200D02*
G54D11*
D03*
X787400Y533400D02*
G54D10*
D03*
X787400Y508000D02*
G54D10*
D03*
X571500Y533400D02*
G54D10*
D03*
X571500Y508000D02*
G54D10*
D03*
X355600Y533400D02*
G54D10*
D03*
X355600Y508000D02*
G54D10*
D03*
X50800Y520700D02*
G54D12*
D03*
X914400Y520700D02*
G54D12*
D03*
X914400Y952500D02*
G54D12*
D03*
X50800Y952500D02*
G54D12*
D03*
G36*
X154100Y963500D02*
X176100Y963500D01*
X176100Y941500D01*
X154100Y941500D01*
X154100Y963500D01*
G37*
G36*
X90600Y544400D02*
X112600Y544400D01*
X112600Y522400D01*
X90600Y522400D01*
X90600Y544400D01*
G37*
X127000Y533400D02*
G54D10*
D03*
G36*
X814500Y544400D02*
X836500Y544400D01*
X836500Y522400D01*
X814500Y522400D01*
X814500Y544400D01*
G37*
X850900Y533400D02*
G54D10*
D03*
X254000Y952500D02*
G54D13*
D03*
X444500Y952500D02*
G54D13*
D03*
X508000Y927100D02*
G54D13*
D03*
X546100Y927100D02*
G54D13*
D03*
X546100Y901700D02*
G54D13*
D03*
X546100Y825500D02*
G54D13*
D03*
G36*
X586300Y963100D02*
X607500Y963100D01*
X607500Y941900D01*
X586300Y941900D01*
X586300Y963100D01*
G37*
X508000Y825500D02*
G54D13*
D03*
G54D14*
X254000Y845800D02*
X254000Y830600D01*
G54D14*
X228600Y845800D02*
X228600Y830600D01*
G54D14*
X203200Y845800D02*
X203200Y830600D01*
G54D14*
X177800Y845800D02*
X177800Y830600D01*
G54D14*
X152400Y845800D02*
X152400Y830600D01*
G54D14*
X830600Y914400D02*
X845800Y914400D01*
G54D14*
X830600Y889000D02*
X845800Y889000D01*
G54D14*
X830600Y863600D02*
X845800Y863600D01*
G54D14*
X830600Y838200D02*
X845800Y838200D01*
G54D14*
X830600Y812800D02*
X845800Y812800D01*
X927100Y787400D02*
G54D10*
D03*
G36*
X906099Y912300D02*
X912300Y906099D01*
X912300Y897301D01*
X906099Y891100D01*
X897301Y891100D01*
X891100Y897301D01*
X891100Y906099D01*
X897301Y912300D01*
X906099Y912300D01*
G37*
G36*
X31800Y925400D02*
X69800Y925400D01*
X69800Y903400D01*
X31800Y903400D01*
X31800Y925400D01*
G37*
G36*
X849200Y751000D02*
X827200Y751000D01*
X827200Y773000D01*
X849200Y773000D01*
X849200Y751000D01*
G37*
X812800Y762000D02*
G54D10*
D03*
X368300Y673100D02*
G54D15*
D03*
X368300Y685800D02*
G54D15*
D03*
X596900Y673100D02*
G54D15*
D03*
X596900Y685800D02*
G54D15*
D03*
X825500Y673100D02*
G54D15*
D03*
X825500Y685800D02*
G54D15*
D03*
X736600Y869950D02*
G54D15*
D03*
X736600Y882650D02*
G54D15*
D03*
X215900Y685800D02*
G54D15*
D03*
X215900Y698500D02*
G54D15*
D03*
G54D14*
X830600Y787400D02*
X845800Y787400D01*
M02*
