%FSLAX34Y34*%
%MOMM*%
%LNSILK_TOP*%
G71*
G01*
%ADD10C, 0.159*%
%ADD11C, 0.600*%
%ADD12C, 0.150*%
%ADD13C, 0.200*%
%ADD14C, 0.450*%
%ADD15C, 0.160*%
%ADD16C, 0.238*%
%ADD17C, 0.318*%
%ADD18C, 0.206*%
%LPD*%
G54D10*
X101726Y780672D02*
X102171Y779561D01*
X103060Y779006D01*
X103949Y779006D01*
X104838Y779561D01*
X105282Y780672D01*
X105282Y781783D01*
X104838Y782895D01*
X103949Y783450D01*
X103060Y783450D01*
X102171Y784006D01*
X101726Y785117D01*
X101726Y786228D01*
X102171Y787339D01*
X103060Y787895D01*
X103949Y787895D01*
X104838Y787339D01*
X105282Y786228D01*
G54D10*
X108393Y779006D02*
X108393Y787895D01*
G54D10*
X111949Y779006D02*
X111949Y787895D01*
G54D10*
X108393Y783450D02*
X111949Y783450D01*
G54D10*
X115060Y787895D02*
X115060Y779006D01*
X118172Y779006D01*
G54D10*
X121282Y779006D02*
X121282Y787895D01*
X123505Y787895D01*
X124394Y787339D01*
X124838Y786228D01*
X124838Y780672D01*
X124394Y779561D01*
X123505Y779006D01*
X121282Y779006D01*
G54D10*
X102271Y825978D02*
X109493Y825978D01*
X110605Y826644D01*
X111160Y827978D01*
X111160Y829311D01*
X110605Y830644D01*
X109493Y831311D01*
X102271Y831311D01*
G54D10*
X109493Y834422D02*
X110605Y835088D01*
X111160Y836422D01*
X111160Y837755D01*
X110605Y839088D01*
X109493Y839755D01*
X108382Y839755D01*
X107271Y839088D01*
X106716Y837755D01*
X106716Y836422D01*
X106160Y835088D01*
X105049Y834422D01*
X103938Y834422D01*
X102827Y835088D01*
X102271Y836422D01*
X102271Y837755D01*
X102827Y839088D01*
X103938Y839755D01*
G54D10*
X111160Y842866D02*
X102271Y842866D01*
X102271Y846199D01*
X102827Y847532D01*
X103938Y848199D01*
X105049Y848199D01*
X106160Y847532D01*
X106716Y846199D01*
X107271Y847532D01*
X108382Y848199D01*
X109493Y848199D01*
X110605Y847532D01*
X111160Y846199D01*
X111160Y842866D01*
G54D10*
X106716Y842866D02*
X106716Y846199D01*
G54D10*
X127013Y823018D02*
X118124Y823018D01*
G54D10*
X127013Y828351D02*
X118124Y828351D01*
G54D10*
X122569Y823018D02*
X122569Y828351D01*
G54D10*
X127013Y836128D02*
X127013Y831462D01*
X118124Y831462D01*
X118124Y836128D01*
G54D10*
X122569Y831462D02*
X122569Y836128D01*
G54D10*
X122569Y841906D02*
X123680Y843906D01*
X124791Y844573D01*
X127013Y844573D01*
G54D10*
X127013Y839240D02*
X118124Y839240D01*
X118124Y842573D01*
X118680Y843906D01*
X119791Y844573D01*
X120902Y844573D01*
X122013Y843906D01*
X122569Y842573D01*
X122569Y839240D01*
G54D10*
X127013Y852350D02*
X127013Y847684D01*
X118124Y847684D01*
X118124Y852350D01*
G54D10*
X122569Y847684D02*
X122569Y852350D01*
G54D11*
X69850Y838200D02*
X95250Y838200D01*
X82550Y825500D01*
G54D11*
X95250Y838200D02*
X82550Y850900D01*
G54D12*
X139700Y901700D02*
X469900Y901700D01*
X469900Y774700D01*
X139700Y774700D01*
X139700Y812800D01*
X114300Y812800D01*
X114300Y863600D01*
X139700Y863600D01*
X139700Y901700D01*
G54D10*
X411027Y853701D02*
X402138Y853701D01*
X407693Y855924D01*
X402138Y858146D01*
X411027Y858146D01*
G54D10*
X411027Y861256D02*
X411027Y864812D01*
G54D10*
X411027Y863034D02*
X402138Y863034D01*
G54D10*
X402138Y861256D02*
X402138Y864812D01*
G54D10*
X409360Y867923D02*
X410471Y868368D01*
X411027Y869257D01*
X411027Y870146D01*
X410471Y871035D01*
X409360Y871479D01*
X408249Y871479D01*
X407138Y871035D01*
X406582Y870146D01*
X406582Y869257D01*
X406027Y868368D01*
X404916Y867923D01*
X403804Y867923D01*
X402693Y868368D01*
X402138Y869257D01*
X402138Y870146D01*
X402693Y871035D01*
X403804Y871479D01*
G54D10*
X403804Y878146D02*
X409360Y878146D01*
X410471Y877702D01*
X411027Y876813D01*
X411027Y875924D01*
X410471Y875035D01*
X409360Y874590D01*
X403804Y874590D01*
X402693Y875035D01*
X402138Y875924D01*
X402138Y876813D01*
X402693Y877702D01*
X403804Y878146D01*
G54D10*
X385250Y862203D02*
X386361Y862647D01*
X386917Y863536D01*
X386917Y864425D01*
X386362Y865314D01*
X385250Y865758D01*
X384139Y865758D01*
X383028Y865314D01*
X382473Y864425D01*
X382473Y863536D01*
X381917Y862647D01*
X380806Y862203D01*
X379695Y862203D01*
X378584Y862647D01*
X378028Y863536D01*
X378028Y864425D01*
X378584Y865314D01*
X379695Y865758D01*
G54D10*
X385250Y872425D02*
X386362Y871981D01*
X386917Y871092D01*
X386917Y870203D01*
X386362Y869314D01*
X385250Y868870D01*
X379695Y868870D01*
X378584Y869314D01*
X378028Y870203D01*
X378028Y871092D01*
X378584Y871981D01*
X379695Y872425D01*
G54D10*
X386917Y875537D02*
X378028Y875537D01*
G54D10*
X384139Y875537D02*
X378028Y879092D01*
G54D10*
X382473Y876870D02*
X386917Y879092D01*
G54D12*
X88900Y863600D02*
X88900Y927100D01*
X482600Y927100D01*
X482600Y749300D01*
X88900Y749300D01*
X88900Y812800D01*
G54D10*
X151595Y790387D02*
X151595Y783165D01*
X150928Y782054D01*
X149595Y781498D01*
X148262Y781498D01*
X146928Y782054D01*
X146262Y783165D01*
G54D10*
X154706Y787054D02*
X158039Y790387D01*
X158039Y781498D01*
G54D10*
X174501Y781494D02*
X174501Y790382D01*
G54D10*
X171834Y790382D02*
X177168Y790382D01*
G54D10*
X180278Y790382D02*
X186945Y781494D01*
G54D10*
X180278Y781494D02*
X186945Y790382D01*
G54D10*
X199913Y785938D02*
X201913Y784827D01*
X202580Y783716D01*
X202580Y781494D01*
G54D10*
X197246Y781494D02*
X197246Y790382D01*
X200580Y790382D01*
X201913Y789827D01*
X202580Y788716D01*
X202580Y787605D01*
X201913Y786494D01*
X200580Y785938D01*
X197246Y785938D01*
G54D10*
X205690Y790382D02*
X212357Y781494D01*
G54D10*
X205690Y781494D02*
X212357Y790382D01*
G54D10*
X227657Y785939D02*
X230324Y785939D01*
X230324Y783161D01*
X229657Y782050D01*
X228324Y781494D01*
X226990Y781494D01*
X225657Y782050D01*
X224990Y783161D01*
X224990Y788717D01*
X225657Y789828D01*
X226990Y790383D01*
X228324Y790383D01*
X229657Y789828D01*
X230324Y788717D01*
G54D10*
X236101Y785939D02*
X238101Y784828D01*
X238768Y783717D01*
X238768Y781494D01*
G54D10*
X233434Y781494D02*
X233434Y790383D01*
X236768Y790383D01*
X238101Y789828D01*
X238768Y788717D01*
X238768Y787606D01*
X238101Y786494D01*
X236768Y785939D01*
X233434Y785939D01*
G54D10*
X241878Y781494D02*
X241878Y790383D01*
X247212Y781494D01*
X247212Y790383D01*
G54D10*
X250322Y781494D02*
X250322Y790383D01*
X253656Y790383D01*
X254989Y789828D01*
X255656Y788717D01*
X255656Y783161D01*
X254989Y782050D01*
X253656Y781494D01*
X250322Y781494D01*
G54D10*
X281728Y780820D02*
X276394Y780820D01*
X276394Y781376D01*
X277061Y782487D01*
X281061Y785820D01*
X281728Y786932D01*
X281728Y788043D01*
X281061Y789154D01*
X279728Y789709D01*
X278394Y789709D01*
X277061Y789154D01*
X276394Y788043D01*
G54D10*
X304302Y788043D02*
X304969Y789154D01*
X306302Y789709D01*
X307636Y789709D01*
X308969Y789154D01*
X309636Y788043D01*
X309636Y786932D01*
X308969Y785820D01*
X307636Y785265D01*
X308969Y784709D01*
X309636Y783598D01*
X309636Y782487D01*
X308969Y781376D01*
X307636Y780820D01*
X306302Y780820D01*
X304969Y781376D01*
X304302Y782487D01*
G54D10*
X332966Y780820D02*
X332966Y789709D01*
X328966Y784154D01*
X328966Y783043D01*
X334300Y783043D01*
G54D10*
X362208Y789709D02*
X356874Y789709D01*
X356874Y785820D01*
X357541Y785820D01*
X358874Y786376D01*
X360208Y786376D01*
X361541Y785820D01*
X362208Y784709D01*
X362208Y782487D01*
X361541Y781376D01*
X360208Y780820D01*
X358874Y780820D01*
X357541Y781376D01*
X356874Y782487D01*
G54D10*
X386872Y788043D02*
X386205Y789154D01*
X384872Y789709D01*
X383538Y789709D01*
X382205Y789154D01*
X381538Y788043D01*
X381538Y785265D01*
X381538Y784709D01*
X383538Y785820D01*
X384872Y785820D01*
X386205Y785265D01*
X386872Y784154D01*
X386872Y782487D01*
X386205Y781376D01*
X384872Y780820D01*
X383538Y780820D01*
X382205Y781376D01*
X381538Y782487D01*
X381538Y785265D01*
G54D10*
X406202Y789709D02*
X411536Y789709D01*
X410869Y788598D01*
X409536Y786932D01*
X408202Y784709D01*
X407536Y783043D01*
X407536Y780820D01*
G54D10*
X434200Y785265D02*
X432866Y785265D01*
X431533Y785820D01*
X430866Y786932D01*
X430866Y788043D01*
X431533Y789154D01*
X432866Y789709D01*
X434200Y789709D01*
X435533Y789154D01*
X436200Y788043D01*
X436200Y786932D01*
X435533Y785820D01*
X434200Y785265D01*
X435533Y784709D01*
X436200Y783598D01*
X436200Y782487D01*
X435533Y781376D01*
X434200Y780820D01*
X432866Y780820D01*
X431533Y781376D01*
X430866Y782487D01*
X430866Y783598D01*
X431533Y784709D01*
X432866Y785265D01*
G54D10*
X455530Y782487D02*
X456197Y781376D01*
X457530Y780820D01*
X458864Y780820D01*
X460197Y781376D01*
X460864Y782487D01*
X460864Y785265D01*
X460864Y785820D01*
X458864Y784709D01*
X457530Y784709D01*
X456197Y785265D01*
X455530Y786376D01*
X455530Y788043D01*
X456197Y789154D01*
X457530Y789709D01*
X458864Y789709D01*
X460197Y789154D01*
X460864Y788043D01*
X460864Y785265D01*
G54D10*
X463174Y887330D02*
X459841Y883997D01*
X459841Y892886D01*
G54D10*
X451397Y885664D02*
X451397Y891219D01*
X452064Y892330D01*
X453397Y892886D01*
X454730Y892886D01*
X456064Y892330D01*
X456730Y891219D01*
X456730Y885664D01*
X456064Y884552D01*
X454730Y883997D01*
X453397Y883997D01*
X452064Y884552D01*
X451397Y885664D01*
G54D10*
X438554Y887330D02*
X435221Y883997D01*
X435221Y892886D01*
G54D10*
X426777Y885664D02*
X427444Y884552D01*
X428777Y883997D01*
X430110Y883997D01*
X431444Y884552D01*
X432110Y885664D01*
X432110Y888441D01*
X432110Y888997D01*
X430110Y887886D01*
X428777Y887886D01*
X427444Y888441D01*
X426777Y889552D01*
X426777Y891219D01*
X427444Y892330D01*
X428777Y892886D01*
X430110Y892886D01*
X431444Y892330D01*
X432110Y891219D01*
X432110Y888441D01*
G54D10*
X413934Y887330D02*
X410601Y883997D01*
X410601Y892886D01*
G54D10*
X403490Y892886D02*
X403490Y883997D01*
X407490Y889552D01*
X407490Y890664D01*
X402157Y890664D01*
G54D10*
X389314Y887330D02*
X385981Y883997D01*
X385981Y892886D01*
G54D10*
X377537Y883997D02*
X382870Y883997D01*
X382870Y887886D01*
X382204Y887886D01*
X380870Y887330D01*
X379537Y887330D01*
X378204Y887886D01*
X377537Y888997D01*
X377537Y891219D01*
X378204Y892330D01*
X379537Y892886D01*
X380870Y892886D01*
X382204Y892330D01*
X382870Y891219D01*
G54D10*
X361450Y892886D02*
X358117Y883997D01*
X354784Y892886D01*
G54D10*
X360117Y889552D02*
X356117Y889552D01*
G54D10*
X346339Y885664D02*
X346339Y891219D01*
X347006Y892330D01*
X348339Y892886D01*
X349672Y892886D01*
X351006Y892330D01*
X351672Y891219D01*
X351672Y885664D01*
X351006Y884552D01*
X349672Y883997D01*
X348339Y883997D01*
X347006Y884552D01*
X346339Y885664D01*
G54D10*
X336740Y892886D02*
X333407Y883997D01*
X330074Y892886D01*
G54D10*
X335407Y889552D02*
X331407Y889552D01*
G54D10*
X326962Y887330D02*
X323629Y883997D01*
X323629Y892886D01*
G54D10*
X314030Y892886D02*
X310697Y883997D01*
X307364Y892886D01*
G54D10*
X312697Y889552D02*
X308697Y889552D01*
G54D10*
X298919Y892886D02*
X304252Y892886D01*
X304252Y892330D01*
X303586Y891219D01*
X299586Y887886D01*
X298919Y886775D01*
X298919Y885664D01*
X299586Y884552D01*
X300919Y883997D01*
X302252Y883997D01*
X303586Y884552D01*
X304252Y885664D01*
G54D10*
X289320Y892886D02*
X285987Y883997D01*
X282654Y892886D01*
G54D10*
X287987Y889552D02*
X283987Y889552D01*
G54D10*
X279542Y885664D02*
X278876Y884552D01*
X277542Y883997D01*
X276209Y883997D01*
X274876Y884552D01*
X274209Y885664D01*
X274209Y886775D01*
X274876Y887886D01*
X276209Y888441D01*
X274876Y888997D01*
X274209Y890108D01*
X274209Y891219D01*
X274876Y892330D01*
X276209Y892886D01*
X277542Y892886D01*
X278876Y892330D01*
X279542Y891219D01*
G54D10*
X264676Y883236D02*
X262454Y892124D01*
X260231Y883236D01*
G54D10*
X253565Y890458D02*
X254010Y891569D01*
X254898Y892124D01*
X255787Y892124D01*
X256676Y891569D01*
X257121Y890458D01*
X257121Y884902D01*
X256676Y883791D01*
X255787Y883236D01*
X254898Y883236D01*
X254010Y883791D01*
X253565Y884902D01*
G54D10*
X246898Y890458D02*
X247343Y891569D01*
X248232Y892124D01*
X249120Y892124D01*
X250009Y891569D01*
X250454Y890458D01*
X250454Y884902D01*
X250009Y883791D01*
X249120Y883236D01*
X248232Y883236D01*
X247343Y883791D01*
X246898Y884902D01*
G54D10*
X235520Y887826D02*
X234187Y888937D01*
X233742Y890049D01*
X233742Y892271D01*
G54D10*
X237298Y892271D02*
X237298Y883382D01*
X235076Y883382D01*
X234187Y883937D01*
X233742Y885049D01*
X233742Y886160D01*
X234187Y887271D01*
X235076Y887826D01*
X237298Y887826D01*
G54D10*
X230631Y890604D02*
X230187Y891715D01*
X229298Y892271D01*
X228409Y892271D01*
X227520Y891715D01*
X227075Y890604D01*
X227075Y889493D01*
X227520Y888382D01*
X228409Y887826D01*
X229298Y887826D01*
X230187Y887271D01*
X230631Y886160D01*
X230631Y885049D01*
X230187Y883937D01*
X229298Y883382D01*
X228409Y883382D01*
X227520Y883937D01*
X227075Y885049D01*
G54D10*
X222186Y892271D02*
X222186Y883382D01*
G54D10*
X223964Y883382D02*
X220408Y883382D01*
G54D10*
X209461Y887987D02*
X207683Y887987D01*
X207683Y890765D01*
X208127Y891876D01*
X209016Y892432D01*
X209905Y892432D01*
X210794Y891876D01*
X211238Y890765D01*
X211238Y885210D01*
X210794Y884098D01*
X209905Y883543D01*
X209016Y883543D01*
X208127Y884098D01*
X207683Y885210D01*
G54D10*
X204572Y892432D02*
X204572Y883543D01*
X201016Y892432D01*
X201016Y883543D01*
G54D10*
X197904Y892432D02*
X197904Y883543D01*
X195682Y883543D01*
X194793Y884098D01*
X194349Y885210D01*
X194349Y890765D01*
X194793Y891876D01*
X195682Y892432D01*
X197904Y892432D01*
G54D10*
X185231Y887909D02*
X183897Y889020D01*
X183453Y890131D01*
X183453Y892354D01*
G54D10*
X187008Y892354D02*
X187008Y883465D01*
X184786Y883465D01*
X183897Y884020D01*
X183453Y885131D01*
X183453Y886242D01*
X183897Y887354D01*
X184786Y887909D01*
X187008Y887909D01*
G54D10*
X180342Y892354D02*
X178119Y883465D01*
X175897Y892354D01*
G54D10*
X179453Y889020D02*
X176786Y889020D01*
G54D10*
X172786Y883465D02*
X172786Y892354D01*
X170564Y886798D01*
X168342Y892354D01*
X168342Y883465D01*
G54D10*
X303926Y832831D02*
X303926Y841720D01*
X307259Y841720D01*
X308592Y841164D01*
X309259Y840053D01*
X309259Y838942D01*
X308592Y837831D01*
X307259Y837275D01*
X303926Y837275D01*
G54D10*
X315036Y837275D02*
X317036Y836164D01*
X317703Y835053D01*
X317703Y832831D01*
G54D10*
X312370Y832831D02*
X312370Y841720D01*
X315703Y841720D01*
X317036Y841164D01*
X317703Y840053D01*
X317703Y838942D01*
X317036Y837831D01*
X315703Y837275D01*
X312370Y837275D01*
G54D10*
X326147Y840053D02*
X326147Y834497D01*
X325480Y833386D01*
X324147Y832831D01*
X322814Y832831D01*
X321480Y833386D01*
X320814Y834497D01*
X320814Y840053D01*
X321480Y841164D01*
X322814Y841720D01*
X324147Y841720D01*
X325480Y841164D01*
X326147Y840053D01*
G54D10*
X332502Y832831D02*
X332502Y841720D01*
X335835Y836164D01*
X339168Y841720D01*
X339168Y832831D01*
G54D10*
X342280Y832831D02*
X347613Y832831D01*
G54D10*
X344946Y832831D02*
X344946Y841720D01*
G54D10*
X342280Y841720D02*
X347613Y841720D01*
G54D10*
X356057Y834497D02*
X355390Y833386D01*
X354057Y832831D01*
X352724Y832831D01*
X351390Y833386D01*
X350724Y834497D01*
X350724Y840053D01*
X351390Y841164D01*
X352724Y841720D01*
X354057Y841720D01*
X355390Y841164D01*
X356057Y840053D01*
G54D10*
X361834Y837275D02*
X363834Y836164D01*
X364501Y835053D01*
X364501Y832831D01*
G54D10*
X359168Y832831D02*
X359168Y841720D01*
X362501Y841720D01*
X363834Y841164D01*
X364501Y840053D01*
X364501Y838942D01*
X363834Y837831D01*
X362501Y837275D01*
X359168Y837275D01*
G54D10*
X372945Y840053D02*
X372945Y834497D01*
X372278Y833386D01*
X370945Y832831D01*
X369612Y832831D01*
X368278Y833386D01*
X367612Y834497D01*
X367612Y840053D01*
X368278Y841164D01*
X369612Y841720D01*
X370945Y841720D01*
X372278Y841164D01*
X372945Y840053D01*
G54D10*
X379300Y834497D02*
X379966Y833386D01*
X381300Y832831D01*
X382633Y832831D01*
X383966Y833386D01*
X384633Y834497D01*
X384633Y835609D01*
X383966Y836720D01*
X382633Y837275D01*
X381300Y837275D01*
X379966Y837831D01*
X379300Y838942D01*
X379300Y840053D01*
X379966Y841164D01*
X381300Y841720D01*
X382633Y841720D01*
X383966Y841164D01*
X384633Y840053D01*
G54D10*
X387744Y832831D02*
X387744Y841720D01*
G54D10*
X393077Y832831D02*
X393077Y841720D01*
G54D10*
X387744Y837275D02*
X393077Y837275D01*
G54D10*
X396188Y832831D02*
X401521Y832831D01*
G54D10*
X398854Y832831D02*
X398854Y841720D01*
G54D10*
X396188Y841720D02*
X401521Y841720D01*
G54D10*
X409298Y832831D02*
X404632Y832831D01*
X404632Y841720D01*
X409298Y841720D01*
G54D10*
X404632Y837275D02*
X409298Y837275D01*
G54D10*
X412410Y841720D02*
X412410Y832831D01*
X417076Y832831D01*
G54D10*
X420188Y832831D02*
X420188Y841720D01*
X423521Y841720D01*
X424854Y841164D01*
X425521Y840053D01*
X425521Y834497D01*
X424854Y833386D01*
X423521Y832831D01*
X420188Y832831D01*
G54D10*
X328352Y801738D02*
X327908Y800627D01*
X327019Y800072D01*
X326130Y800072D01*
X325241Y800627D01*
X324796Y801738D01*
X324796Y807294D01*
X325241Y808405D01*
X326130Y808961D01*
X327019Y808961D01*
X327908Y808405D01*
X328352Y807294D01*
G54D10*
X331464Y801738D02*
X331908Y800627D01*
X332797Y800072D01*
X333686Y800072D01*
X334575Y800627D01*
X335019Y801738D01*
X335019Y802850D01*
X334575Y803961D01*
X333686Y804516D01*
X332797Y804516D01*
X331908Y805072D01*
X331464Y806183D01*
X331464Y807294D01*
X331908Y808405D01*
X332797Y808961D01*
X333686Y808961D01*
X334575Y808405D01*
X335019Y807294D01*
G54D10*
X270593Y801268D02*
X271038Y800157D01*
X271927Y799602D01*
X272816Y799602D01*
X273704Y800157D01*
X274149Y801268D01*
X274149Y802380D01*
X273704Y803491D01*
X272816Y804046D01*
X271927Y804046D01*
X271038Y804602D01*
X270593Y805713D01*
X270593Y806824D01*
X271038Y807935D01*
X271927Y808491D01*
X272816Y808491D01*
X273704Y807935D01*
X274149Y806824D01*
G54D10*
X277260Y799602D02*
X277260Y808491D01*
X279483Y808491D01*
X280372Y807935D01*
X280816Y806824D01*
X280816Y801268D01*
X280372Y800157D01*
X279483Y799602D01*
X277260Y799602D01*
G54D10*
X283927Y799602D02*
X286150Y808491D01*
X288372Y799602D01*
G54D10*
X284816Y802935D02*
X287483Y802935D01*
G54D10*
X295922Y801268D02*
X296367Y800157D01*
X297256Y799602D01*
X298145Y799602D01*
X299034Y800157D01*
X299478Y801268D01*
X299478Y802380D01*
X299034Y803491D01*
X298145Y804046D01*
X297256Y804046D01*
X296367Y804602D01*
X295922Y805713D01*
X295922Y806824D01*
X296367Y807935D01*
X297256Y808491D01*
X298145Y808491D01*
X299034Y807935D01*
X299478Y806824D01*
G54D10*
X306145Y801268D02*
X305700Y800157D01*
X304812Y799602D01*
X303923Y799602D01*
X303034Y800157D01*
X302589Y801268D01*
X302589Y806824D01*
X303034Y807935D01*
X303923Y808491D01*
X304812Y808491D01*
X305700Y807935D01*
X306145Y806824D01*
G54D10*
X309256Y808491D02*
X309256Y799602D01*
X312368Y799602D01*
G54D12*
X44450Y736600D02*
X260350Y736600D01*
X260350Y635000D01*
X44450Y635000D01*
X44450Y736600D01*
G54D12*
X50532Y714417D02*
X253732Y714417D01*
X254000Y698500D01*
X247650Y692150D01*
X247650Y679450D01*
X254000Y673100D01*
X253732Y657217D01*
X50532Y657217D01*
X50532Y714417D01*
G54D10*
X69883Y706228D02*
X68105Y706228D01*
X68105Y709006D01*
X68550Y710117D01*
X69439Y710672D01*
X70328Y710672D01*
X71217Y710117D01*
X71661Y709006D01*
X71661Y703450D01*
X71217Y702339D01*
X70328Y701784D01*
X69439Y701784D01*
X68550Y702339D01*
X68105Y703450D01*
G54D10*
X64994Y710672D02*
X64994Y701784D01*
X61438Y710672D01*
X61438Y701784D01*
G54D10*
X58327Y710672D02*
X58327Y701784D01*
X56105Y701784D01*
X55216Y702339D01*
X54771Y703450D01*
X54771Y709006D01*
X55216Y710117D01*
X56105Y710672D01*
X58327Y710672D01*
G54D10*
X91266Y705947D02*
X87933Y702614D01*
X87933Y711502D01*
G54D10*
X111139Y711020D02*
X116472Y711020D01*
X116472Y710464D01*
X115805Y709353D01*
X111805Y706020D01*
X111139Y704908D01*
X111139Y703797D01*
X111805Y702686D01*
X113139Y702131D01*
X114472Y702131D01*
X115805Y702686D01*
X116472Y703797D01*
G54D10*
X141960Y703797D02*
X141293Y702686D01*
X139960Y702130D01*
X138627Y702130D01*
X137293Y702686D01*
X136627Y703797D01*
X136627Y704908D01*
X137293Y706019D01*
X138627Y706575D01*
X137293Y707130D01*
X136627Y708241D01*
X136627Y709352D01*
X137293Y710464D01*
X138627Y711019D01*
X139960Y711019D01*
X141293Y710464D01*
X141960Y709352D01*
G54D10*
X163177Y711110D02*
X163177Y702221D01*
X167177Y707776D01*
X167177Y708887D01*
X161844Y708887D01*
G54D10*
X240139Y706575D02*
X241472Y706575D01*
X242805Y706020D01*
X243472Y704908D01*
X243472Y703797D01*
X242805Y702686D01*
X241472Y702131D01*
X240139Y702131D01*
X238805Y702686D01*
X238139Y703797D01*
X238139Y704908D01*
X238805Y706020D01*
X240139Y706575D01*
X238805Y707131D01*
X238139Y708242D01*
X238139Y709353D01*
X238805Y710464D01*
X240139Y711020D01*
X241472Y711020D01*
X242805Y710464D01*
X243472Y709353D01*
X243472Y708242D01*
X242805Y707131D01*
X241472Y706575D01*
G54D10*
X167414Y669157D02*
X162081Y669157D01*
X162081Y665268D01*
X162748Y665268D01*
X164081Y665824D01*
X165414Y665824D01*
X166748Y665268D01*
X167414Y664157D01*
X167414Y661935D01*
X166748Y660824D01*
X165414Y660268D01*
X164081Y660268D01*
X162748Y660824D01*
X162081Y661935D01*
G54D10*
X192814Y667491D02*
X192148Y668602D01*
X190814Y669157D01*
X189481Y669157D01*
X188148Y668602D01*
X187481Y667491D01*
X187481Y664713D01*
X187481Y664157D01*
X189481Y665268D01*
X190814Y665268D01*
X192148Y664713D01*
X192814Y663602D01*
X192814Y661935D01*
X192148Y660824D01*
X190814Y660268D01*
X189481Y660268D01*
X188148Y660824D01*
X187481Y661935D01*
X187481Y664713D01*
G54D10*
X212880Y669145D02*
X218213Y669145D01*
X217547Y668034D01*
X216213Y666367D01*
X214880Y664145D01*
X214213Y662478D01*
X214213Y660256D01*
G54D10*
X232132Y670012D02*
X234354Y661123D01*
X236576Y670012D01*
G54D10*
X243243Y662789D02*
X242798Y661678D01*
X241909Y661123D01*
X241020Y661123D01*
X240131Y661678D01*
X239687Y662789D01*
X239687Y668345D01*
X240131Y669456D01*
X241020Y670012D01*
X241909Y670012D01*
X242798Y669456D01*
X243243Y668345D01*
G54D10*
X249910Y662789D02*
X249465Y661678D01*
X248576Y661123D01*
X247687Y661123D01*
X246798Y661678D01*
X246354Y662789D01*
X246354Y668345D01*
X246798Y669456D01*
X247687Y670012D01*
X248576Y670012D01*
X249465Y669456D01*
X249910Y668345D01*
G54D10*
X195011Y703450D02*
X195011Y709005D01*
X195455Y710116D01*
X196344Y710672D01*
X197233Y710672D01*
X198122Y710116D01*
X198566Y709005D01*
X198566Y703450D01*
X198122Y702339D01*
X197233Y701783D01*
X196344Y701783D01*
X195455Y702339D01*
X195011Y703450D01*
G54D10*
X191900Y701783D02*
X191900Y709005D01*
X191455Y710116D01*
X190566Y710672D01*
X189677Y710672D01*
X188788Y710116D01*
X188344Y709005D01*
X188344Y701783D01*
G54D10*
X183455Y710672D02*
X183455Y701783D01*
G54D10*
X185232Y701783D02*
X181677Y701783D01*
G54D10*
X107370Y660825D02*
X107370Y669714D01*
X109592Y669714D01*
X110481Y669158D01*
X110925Y668047D01*
X110925Y662492D01*
X110481Y661380D01*
X109592Y660825D01*
X107370Y660825D01*
G54D10*
X114037Y660825D02*
X117592Y660825D01*
G54D10*
X115815Y660825D02*
X115815Y669714D01*
G54D10*
X114037Y669714D02*
X117592Y669714D01*
G54D10*
X120704Y660825D02*
X120704Y669714D01*
X124259Y660825D01*
X124259Y669714D01*
G54D10*
X61963Y662300D02*
X61518Y661189D01*
X60629Y660634D01*
X59740Y660634D01*
X58851Y661189D01*
X58407Y662300D01*
X58407Y667856D01*
X58851Y668967D01*
X59740Y669522D01*
X60629Y669522D01*
X61518Y668967D01*
X61963Y667856D01*
G54D10*
X65074Y662300D02*
X65518Y661189D01*
X66407Y660634D01*
X67296Y660634D01*
X68185Y661189D01*
X68630Y662300D01*
X68630Y663411D01*
X68185Y664522D01*
X67296Y665078D01*
X66407Y665078D01*
X65518Y665634D01*
X65074Y666745D01*
X65074Y667856D01*
X65518Y668967D01*
X66407Y669522D01*
X67296Y669522D01*
X68185Y668967D01*
X68630Y667856D01*
G54D10*
X80124Y662489D02*
X80569Y661378D01*
X81458Y660822D01*
X82347Y660822D01*
X83236Y661378D01*
X83680Y662489D01*
X83680Y663600D01*
X83236Y664711D01*
X82347Y665266D01*
X81458Y665266D01*
X80569Y665822D01*
X80124Y666933D01*
X80124Y668044D01*
X80569Y669155D01*
X81458Y669711D01*
X82347Y669711D01*
X83236Y669155D01*
X83680Y668044D01*
G54D10*
X90347Y662489D02*
X89903Y661378D01*
X89014Y660822D01*
X88125Y660822D01*
X87236Y661378D01*
X86792Y662489D01*
X86792Y668044D01*
X87236Y669155D01*
X88125Y669711D01*
X89014Y669711D01*
X89903Y669155D01*
X90347Y668044D01*
G54D10*
X93458Y660822D02*
X93458Y669711D01*
G54D10*
X93458Y663600D02*
X97014Y669711D01*
G54D10*
X94792Y665266D02*
X97014Y660822D01*
G54D10*
X90340Y683747D02*
X89674Y682636D01*
X88340Y682080D01*
X87007Y682080D01*
X85674Y682636D01*
X85007Y683747D01*
X85007Y689303D01*
X85674Y690414D01*
X87007Y690969D01*
X88340Y690969D01*
X89674Y690414D01*
X90340Y689303D01*
G54D10*
X93451Y682080D02*
X93451Y690969D01*
X96784Y690969D01*
X98118Y690414D01*
X98784Y689303D01*
X98784Y683747D01*
X98118Y682636D01*
X96784Y682080D01*
X93451Y682080D01*
G54D10*
X105895Y682080D02*
X105895Y690969D01*
X101895Y685414D01*
X101895Y684303D01*
X107228Y684303D01*
G54D10*
X115672Y689303D02*
X115672Y683747D01*
X115006Y682636D01*
X113672Y682080D01*
X112339Y682080D01*
X111006Y682636D01*
X110339Y683747D01*
X110339Y689303D01*
X111006Y690414D01*
X112339Y690969D01*
X113672Y690969D01*
X115006Y690414D01*
X115672Y689303D01*
G54D10*
X124116Y682080D02*
X118783Y682080D01*
X118783Y682636D01*
X119450Y683747D01*
X123450Y687080D01*
X124116Y688192D01*
X124116Y689303D01*
X123450Y690414D01*
X122116Y690969D01*
X120783Y690969D01*
X119450Y690414D01*
X118783Y689303D01*
G54D10*
X127227Y687636D02*
X130560Y690969D01*
X130560Y682080D01*
G54D10*
X133671Y682080D02*
X133671Y690969D01*
X137004Y690969D01*
X138338Y690414D01*
X139004Y689303D01*
X139004Y688192D01*
X138338Y687080D01*
X137004Y686525D01*
X138338Y685969D01*
X139004Y684858D01*
X139004Y683747D01*
X138338Y682636D01*
X137004Y682080D01*
X133671Y682080D01*
G54D10*
X133671Y686525D02*
X137004Y686525D01*
G54D10*
X146782Y682080D02*
X142115Y682080D01*
X142115Y690969D01*
X146782Y690969D01*
G54D10*
X142115Y686525D02*
X146782Y686525D01*
G54D12*
X50800Y596900D02*
X50800Y622300D01*
X254000Y622300D01*
X254000Y596900D01*
X50800Y596900D01*
G54D12*
X28575Y561975D02*
X28575Y581025D01*
X250825Y581025D01*
X250825Y561975D01*
X28575Y561975D01*
G54D12*
X273050Y736600D02*
X488950Y736600D01*
X488950Y635000D01*
X273050Y635000D01*
X273050Y736600D01*
G54D12*
X279132Y714417D02*
X482332Y714417D01*
X482600Y698500D01*
X476250Y692150D01*
X476250Y679450D01*
X482600Y673100D01*
X482332Y657217D01*
X279132Y657217D01*
X279132Y714417D01*
G54D10*
X298483Y706228D02*
X296705Y706228D01*
X296705Y709006D01*
X297150Y710117D01*
X298039Y710672D01*
X298928Y710672D01*
X299817Y710117D01*
X300261Y709006D01*
X300261Y703450D01*
X299817Y702339D01*
X298928Y701784D01*
X298039Y701784D01*
X297150Y702339D01*
X296705Y703450D01*
G54D10*
X293594Y710672D02*
X293594Y701784D01*
X290038Y710672D01*
X290038Y701784D01*
G54D10*
X286927Y710672D02*
X286927Y701784D01*
X284705Y701784D01*
X283816Y702339D01*
X283371Y703450D01*
X283371Y709006D01*
X283816Y710117D01*
X284705Y710672D01*
X286927Y710672D01*
G54D10*
X319866Y705947D02*
X316533Y702614D01*
X316533Y711502D01*
G54D10*
X339738Y711020D02*
X345072Y711020D01*
X345072Y710464D01*
X344405Y709353D01*
X340405Y706020D01*
X339738Y704908D01*
X339738Y703797D01*
X340405Y702686D01*
X341738Y702131D01*
X343072Y702131D01*
X344405Y702686D01*
X345072Y703797D01*
G54D10*
X370560Y703797D02*
X369893Y702686D01*
X368560Y702130D01*
X367226Y702130D01*
X365893Y702686D01*
X365226Y703797D01*
X365226Y704908D01*
X365893Y706019D01*
X367226Y706575D01*
X365893Y707130D01*
X365226Y708241D01*
X365226Y709352D01*
X365893Y710464D01*
X367226Y711019D01*
X368560Y711019D01*
X369893Y710464D01*
X370560Y709352D01*
G54D10*
X391777Y711110D02*
X391777Y702221D01*
X395777Y707776D01*
X395777Y708887D01*
X390444Y708887D01*
G54D10*
X468739Y706575D02*
X470072Y706575D01*
X471405Y706020D01*
X472072Y704908D01*
X472072Y703797D01*
X471405Y702686D01*
X470072Y702131D01*
X468739Y702131D01*
X467405Y702686D01*
X466739Y703797D01*
X466739Y704908D01*
X467405Y706020D01*
X468739Y706575D01*
X467405Y707131D01*
X466739Y708242D01*
X466739Y709353D01*
X467405Y710464D01*
X468739Y711020D01*
X470072Y711020D01*
X471405Y710464D01*
X472072Y709353D01*
X472072Y708242D01*
X471405Y707131D01*
X470072Y706575D01*
G54D10*
X396014Y669157D02*
X390681Y669157D01*
X390681Y665268D01*
X391348Y665268D01*
X392681Y665824D01*
X394014Y665824D01*
X395348Y665268D01*
X396014Y664157D01*
X396014Y661935D01*
X395348Y660824D01*
X394014Y660268D01*
X392681Y660268D01*
X391348Y660824D01*
X390681Y661935D01*
G54D10*
X421414Y667491D02*
X420748Y668602D01*
X419414Y669157D01*
X418081Y669157D01*
X416748Y668602D01*
X416081Y667491D01*
X416081Y664713D01*
X416081Y664157D01*
X418081Y665268D01*
X419414Y665268D01*
X420748Y664713D01*
X421414Y663602D01*
X421414Y661935D01*
X420748Y660824D01*
X419414Y660268D01*
X418081Y660268D01*
X416748Y660824D01*
X416081Y661935D01*
X416081Y664713D01*
G54D10*
X441480Y669145D02*
X446813Y669145D01*
X446147Y668034D01*
X444813Y666367D01*
X443480Y664145D01*
X442813Y662478D01*
X442813Y660256D01*
G54D10*
X460732Y670012D02*
X462954Y661123D01*
X465176Y670012D01*
G54D10*
X471843Y662789D02*
X471398Y661678D01*
X470509Y661123D01*
X469620Y661123D01*
X468731Y661678D01*
X468287Y662789D01*
X468287Y668345D01*
X468731Y669456D01*
X469620Y670012D01*
X470509Y670012D01*
X471398Y669456D01*
X471843Y668345D01*
G54D10*
X478510Y662789D02*
X478065Y661678D01*
X477176Y661123D01*
X476287Y661123D01*
X475398Y661678D01*
X474954Y662789D01*
X474954Y668345D01*
X475398Y669456D01*
X476287Y670012D01*
X477176Y670012D01*
X478065Y669456D01*
X478510Y668345D01*
G54D10*
X423611Y703450D02*
X423611Y709005D01*
X424055Y710116D01*
X424944Y710672D01*
X425833Y710672D01*
X426722Y710116D01*
X427166Y709005D01*
X427166Y703450D01*
X426722Y702339D01*
X425833Y701783D01*
X424944Y701783D01*
X424055Y702339D01*
X423611Y703450D01*
G54D10*
X420500Y701783D02*
X420500Y709005D01*
X420055Y710116D01*
X419166Y710672D01*
X418277Y710672D01*
X417388Y710116D01*
X416944Y709005D01*
X416944Y701783D01*
G54D10*
X412055Y710672D02*
X412055Y701783D01*
G54D10*
X413832Y701783D02*
X410277Y701783D01*
G54D10*
X335970Y660825D02*
X335970Y669714D01*
X338192Y669714D01*
X339081Y669158D01*
X339525Y668047D01*
X339525Y662492D01*
X339081Y661380D01*
X338192Y660825D01*
X335970Y660825D01*
G54D10*
X342637Y660825D02*
X346192Y660825D01*
G54D10*
X344415Y660825D02*
X344415Y669714D01*
G54D10*
X342637Y669714D02*
X346192Y669714D01*
G54D10*
X349304Y660825D02*
X349304Y669714D01*
X352859Y660825D01*
X352859Y669714D01*
G54D10*
X290563Y662300D02*
X290118Y661189D01*
X289229Y660634D01*
X288340Y660634D01*
X287451Y661189D01*
X287007Y662300D01*
X287007Y667856D01*
X287451Y668967D01*
X288340Y669522D01*
X289229Y669522D01*
X290118Y668967D01*
X290563Y667856D01*
G54D10*
X293674Y662300D02*
X294118Y661189D01*
X295007Y660634D01*
X295896Y660634D01*
X296785Y661189D01*
X297230Y662300D01*
X297230Y663411D01*
X296785Y664522D01*
X295896Y665078D01*
X295007Y665078D01*
X294118Y665634D01*
X293674Y666745D01*
X293674Y667856D01*
X294118Y668967D01*
X295007Y669522D01*
X295896Y669522D01*
X296785Y668967D01*
X297230Y667856D01*
G54D10*
X308724Y662489D02*
X309169Y661378D01*
X310058Y660822D01*
X310947Y660822D01*
X311836Y661378D01*
X312280Y662489D01*
X312280Y663600D01*
X311836Y664711D01*
X310947Y665266D01*
X310058Y665266D01*
X309169Y665822D01*
X308724Y666933D01*
X308724Y668044D01*
X309169Y669155D01*
X310058Y669711D01*
X310947Y669711D01*
X311836Y669155D01*
X312280Y668044D01*
G54D10*
X318947Y662489D02*
X318503Y661378D01*
X317614Y660822D01*
X316725Y660822D01*
X315836Y661378D01*
X315392Y662489D01*
X315392Y668044D01*
X315836Y669155D01*
X316725Y669711D01*
X317614Y669711D01*
X318503Y669155D01*
X318947Y668044D01*
G54D10*
X322058Y660822D02*
X322058Y669711D01*
G54D10*
X322058Y663600D02*
X325614Y669711D01*
G54D10*
X323392Y665266D02*
X325614Y660822D01*
G54D10*
X294578Y683747D02*
X293911Y682636D01*
X292578Y682080D01*
X291244Y682080D01*
X289911Y682636D01*
X289244Y683747D01*
X289244Y689303D01*
X289911Y690414D01*
X291244Y690969D01*
X292578Y690969D01*
X293911Y690414D01*
X294578Y689303D01*
G54D10*
X297688Y682080D02*
X297688Y690969D01*
X301022Y690969D01*
X302355Y690414D01*
X303022Y689303D01*
X303022Y683747D01*
X302355Y682636D01*
X301022Y682080D01*
X297688Y682080D01*
G54D10*
X310132Y682080D02*
X310132Y690969D01*
X306132Y685414D01*
X306132Y684303D01*
X311466Y684303D01*
G54D10*
X319910Y689303D02*
X319910Y683747D01*
X319243Y682636D01*
X317910Y682080D01*
X316576Y682080D01*
X315243Y682636D01*
X314576Y683747D01*
X314576Y689303D01*
X315243Y690414D01*
X316576Y690969D01*
X317910Y690969D01*
X319243Y690414D01*
X319910Y689303D01*
G54D10*
X328354Y682080D02*
X323020Y682080D01*
X323020Y682636D01*
X323687Y683747D01*
X327687Y687080D01*
X328354Y688192D01*
X328354Y689303D01*
X327687Y690414D01*
X326354Y690969D01*
X325020Y690969D01*
X323687Y690414D01*
X323020Y689303D01*
G54D10*
X331464Y687636D02*
X334798Y690969D01*
X334798Y682080D01*
G54D10*
X337908Y682080D02*
X337908Y690969D01*
X341242Y690969D01*
X342575Y690414D01*
X343242Y689303D01*
X343242Y688192D01*
X342575Y687080D01*
X341242Y686525D01*
X342575Y685969D01*
X343242Y684858D01*
X343242Y683747D01*
X342575Y682636D01*
X341242Y682080D01*
X337908Y682080D01*
G54D10*
X337908Y686525D02*
X341242Y686525D01*
G54D10*
X351019Y682080D02*
X346352Y682080D01*
X346352Y690969D01*
X351019Y690969D01*
G54D10*
X346352Y686525D02*
X351019Y686525D01*
G54D12*
X279400Y596900D02*
X279400Y622300D01*
X482600Y622300D01*
X482600Y596900D01*
X279400Y596900D01*
G54D12*
X257175Y561975D02*
X257175Y581025D01*
X479425Y581025D01*
X479425Y561975D01*
X257175Y561975D01*
G54D12*
X501650Y736600D02*
X717550Y736600D01*
X717550Y635000D01*
X501650Y635000D01*
X501650Y736600D01*
G54D12*
X507732Y714417D02*
X710932Y714417D01*
X711200Y698500D01*
X704850Y692150D01*
X704850Y679450D01*
X711200Y673100D01*
X710932Y657217D01*
X507732Y657217D01*
X507732Y714417D01*
G54D10*
X527083Y706228D02*
X525305Y706228D01*
X525305Y709006D01*
X525750Y710117D01*
X526639Y710672D01*
X527528Y710672D01*
X528417Y710117D01*
X528861Y709006D01*
X528861Y703450D01*
X528417Y702339D01*
X527528Y701784D01*
X526639Y701784D01*
X525750Y702339D01*
X525305Y703450D01*
G54D10*
X522194Y710672D02*
X522194Y701784D01*
X518638Y710672D01*
X518638Y701784D01*
G54D10*
X515527Y710672D02*
X515527Y701784D01*
X513305Y701784D01*
X512416Y702339D01*
X511971Y703450D01*
X511971Y709006D01*
X512416Y710117D01*
X513305Y710672D01*
X515527Y710672D01*
G54D10*
X548466Y705947D02*
X545133Y702614D01*
X545133Y711502D01*
G54D10*
X568339Y711020D02*
X573672Y711020D01*
X573672Y710464D01*
X573005Y709353D01*
X569005Y706020D01*
X568339Y704908D01*
X568339Y703797D01*
X569005Y702686D01*
X570339Y702131D01*
X571672Y702131D01*
X573005Y702686D01*
X573672Y703797D01*
G54D10*
X599160Y703797D02*
X598493Y702686D01*
X597160Y702130D01*
X595827Y702130D01*
X594493Y702686D01*
X593827Y703797D01*
X593827Y704908D01*
X594493Y706019D01*
X595827Y706575D01*
X594493Y707130D01*
X593827Y708241D01*
X593827Y709352D01*
X594493Y710464D01*
X595827Y711019D01*
X597160Y711019D01*
X598493Y710464D01*
X599160Y709352D01*
G54D10*
X620377Y711110D02*
X620377Y702221D01*
X624377Y707776D01*
X624377Y708887D01*
X619044Y708887D01*
G54D10*
X697339Y706575D02*
X698672Y706575D01*
X700005Y706020D01*
X700672Y704908D01*
X700672Y703797D01*
X700005Y702686D01*
X698672Y702131D01*
X697339Y702131D01*
X696005Y702686D01*
X695339Y703797D01*
X695339Y704908D01*
X696005Y706020D01*
X697339Y706575D01*
X696005Y707131D01*
X695339Y708242D01*
X695339Y709353D01*
X696005Y710464D01*
X697339Y711020D01*
X698672Y711020D01*
X700005Y710464D01*
X700672Y709353D01*
X700672Y708242D01*
X700005Y707131D01*
X698672Y706575D01*
G54D10*
X624614Y669157D02*
X619281Y669157D01*
X619281Y665268D01*
X619948Y665268D01*
X621281Y665824D01*
X622614Y665824D01*
X623948Y665268D01*
X624614Y664157D01*
X624614Y661935D01*
X623948Y660824D01*
X622614Y660268D01*
X621281Y660268D01*
X619948Y660824D01*
X619281Y661935D01*
G54D10*
X650014Y667491D02*
X649348Y668602D01*
X648014Y669157D01*
X646681Y669157D01*
X645348Y668602D01*
X644681Y667491D01*
X644681Y664713D01*
X644681Y664157D01*
X646681Y665268D01*
X648014Y665268D01*
X649348Y664713D01*
X650014Y663602D01*
X650014Y661935D01*
X649348Y660824D01*
X648014Y660268D01*
X646681Y660268D01*
X645348Y660824D01*
X644681Y661935D01*
X644681Y664713D01*
G54D10*
X670080Y669145D02*
X675413Y669145D01*
X674747Y668034D01*
X673413Y666367D01*
X672080Y664145D01*
X671413Y662478D01*
X671413Y660256D01*
G54D10*
X689332Y670012D02*
X691554Y661123D01*
X693776Y670012D01*
G54D10*
X700443Y662789D02*
X699998Y661678D01*
X699109Y661123D01*
X698220Y661123D01*
X697331Y661678D01*
X696887Y662789D01*
X696887Y668345D01*
X697331Y669456D01*
X698220Y670012D01*
X699109Y670012D01*
X699998Y669456D01*
X700443Y668345D01*
G54D10*
X707110Y662789D02*
X706665Y661678D01*
X705776Y661123D01*
X704887Y661123D01*
X703998Y661678D01*
X703554Y662789D01*
X703554Y668345D01*
X703998Y669456D01*
X704887Y670012D01*
X705776Y670012D01*
X706665Y669456D01*
X707110Y668345D01*
G54D10*
X652211Y703450D02*
X652211Y709005D01*
X652655Y710116D01*
X653544Y710672D01*
X654433Y710672D01*
X655322Y710116D01*
X655766Y709005D01*
X655766Y703450D01*
X655322Y702339D01*
X654433Y701783D01*
X653544Y701783D01*
X652655Y702339D01*
X652211Y703450D01*
G54D10*
X649100Y701783D02*
X649100Y709005D01*
X648655Y710116D01*
X647766Y710672D01*
X646877Y710672D01*
X645988Y710116D01*
X645544Y709005D01*
X645544Y701783D01*
G54D10*
X640655Y710672D02*
X640655Y701783D01*
G54D10*
X642432Y701783D02*
X638877Y701783D01*
G54D10*
X564570Y660825D02*
X564570Y669714D01*
X566792Y669714D01*
X567681Y669158D01*
X568125Y668047D01*
X568125Y662492D01*
X567681Y661380D01*
X566792Y660825D01*
X564570Y660825D01*
G54D10*
X571237Y660825D02*
X574792Y660825D01*
G54D10*
X573015Y660825D02*
X573015Y669714D01*
G54D10*
X571237Y669714D02*
X574792Y669714D01*
G54D10*
X577904Y660825D02*
X577904Y669714D01*
X581459Y660825D01*
X581459Y669714D01*
G54D10*
X519163Y662300D02*
X518718Y661189D01*
X517829Y660634D01*
X516940Y660634D01*
X516051Y661189D01*
X515607Y662300D01*
X515607Y667856D01*
X516051Y668967D01*
X516940Y669522D01*
X517829Y669522D01*
X518718Y668967D01*
X519163Y667856D01*
G54D10*
X522274Y662300D02*
X522718Y661189D01*
X523607Y660634D01*
X524496Y660634D01*
X525385Y661189D01*
X525830Y662300D01*
X525830Y663411D01*
X525385Y664522D01*
X524496Y665078D01*
X523607Y665078D01*
X522718Y665634D01*
X522274Y666745D01*
X522274Y667856D01*
X522718Y668967D01*
X523607Y669522D01*
X524496Y669522D01*
X525385Y668967D01*
X525830Y667856D01*
G54D10*
X537324Y662489D02*
X537769Y661378D01*
X538658Y660822D01*
X539547Y660822D01*
X540436Y661378D01*
X540880Y662489D01*
X540880Y663600D01*
X540436Y664711D01*
X539547Y665266D01*
X538658Y665266D01*
X537769Y665822D01*
X537324Y666933D01*
X537324Y668044D01*
X537769Y669155D01*
X538658Y669711D01*
X539547Y669711D01*
X540436Y669155D01*
X540880Y668044D01*
G54D10*
X547547Y662489D02*
X547103Y661378D01*
X546214Y660822D01*
X545325Y660822D01*
X544436Y661378D01*
X543992Y662489D01*
X543992Y668044D01*
X544436Y669155D01*
X545325Y669711D01*
X546214Y669711D01*
X547103Y669155D01*
X547547Y668044D01*
G54D10*
X550658Y660822D02*
X550658Y669711D01*
G54D10*
X550658Y663600D02*
X554214Y669711D01*
G54D10*
X551992Y665266D02*
X554214Y660822D01*
G54D10*
X523115Y683747D02*
X522449Y682636D01*
X521115Y682080D01*
X519782Y682080D01*
X518449Y682636D01*
X517782Y683747D01*
X517782Y689303D01*
X518449Y690414D01*
X519782Y690969D01*
X521115Y690969D01*
X522449Y690414D01*
X523115Y689303D01*
G54D10*
X526226Y682080D02*
X526226Y690969D01*
X529559Y690969D01*
X530893Y690414D01*
X531559Y689303D01*
X531559Y683747D01*
X530893Y682636D01*
X529559Y682080D01*
X526226Y682080D01*
G54D10*
X538670Y682080D02*
X538670Y690969D01*
X534670Y685414D01*
X534670Y684303D01*
X540003Y684303D01*
G54D10*
X548447Y689303D02*
X548447Y683747D01*
X547781Y682636D01*
X546447Y682080D01*
X545114Y682080D01*
X543781Y682636D01*
X543114Y683747D01*
X543114Y689303D01*
X543781Y690414D01*
X545114Y690969D01*
X546447Y690969D01*
X547781Y690414D01*
X548447Y689303D01*
G54D10*
X556891Y682080D02*
X551558Y682080D01*
X551558Y682636D01*
X552225Y683747D01*
X556225Y687080D01*
X556891Y688192D01*
X556891Y689303D01*
X556225Y690414D01*
X554891Y690969D01*
X553558Y690969D01*
X552225Y690414D01*
X551558Y689303D01*
G54D10*
X560002Y687636D02*
X563335Y690969D01*
X563335Y682080D01*
G54D10*
X566446Y682080D02*
X566446Y690969D01*
X569779Y690969D01*
X571113Y690414D01*
X571779Y689303D01*
X571779Y688192D01*
X571113Y687080D01*
X569779Y686525D01*
X571113Y685969D01*
X571779Y684858D01*
X571779Y683747D01*
X571113Y682636D01*
X569779Y682080D01*
X566446Y682080D01*
G54D10*
X566446Y686525D02*
X569779Y686525D01*
G54D10*
X579557Y682080D02*
X574890Y682080D01*
X574890Y690969D01*
X579557Y690969D01*
G54D10*
X574890Y686525D02*
X579557Y686525D01*
G54D12*
X508000Y596900D02*
X508000Y622300D01*
X711200Y622300D01*
X711200Y596900D01*
X508000Y596900D01*
G54D12*
X485775Y561975D02*
X485775Y581025D01*
X708025Y581025D01*
X708025Y561975D01*
X485775Y561975D01*
G54D12*
X730250Y736600D02*
X946150Y736600D01*
X946150Y635000D01*
X730250Y635000D01*
X730250Y736600D01*
G54D12*
X736332Y714417D02*
X939531Y714417D01*
X939800Y698500D01*
X933450Y692150D01*
X933450Y679450D01*
X939800Y673100D01*
X939531Y657217D01*
X736332Y657217D01*
X736332Y714417D01*
G54D10*
X755683Y706228D02*
X753905Y706228D01*
X753905Y709006D01*
X754350Y710117D01*
X755239Y710672D01*
X756128Y710672D01*
X757017Y710117D01*
X757461Y709006D01*
X757461Y703450D01*
X757017Y702339D01*
X756128Y701784D01*
X755239Y701784D01*
X754350Y702339D01*
X753905Y703450D01*
G54D10*
X750794Y710672D02*
X750794Y701784D01*
X747238Y710672D01*
X747238Y701784D01*
G54D10*
X744127Y710672D02*
X744127Y701784D01*
X741905Y701784D01*
X741016Y702339D01*
X740571Y703450D01*
X740571Y709006D01*
X741016Y710117D01*
X741905Y710672D01*
X744127Y710672D01*
G54D10*
X777066Y705947D02*
X773733Y702614D01*
X773733Y711502D01*
G54D10*
X796939Y711020D02*
X802272Y711020D01*
X802272Y710464D01*
X801605Y709353D01*
X797605Y706020D01*
X796939Y704908D01*
X796939Y703797D01*
X797605Y702686D01*
X798939Y702131D01*
X800272Y702131D01*
X801605Y702686D01*
X802272Y703797D01*
G54D10*
X827760Y703797D02*
X827093Y702686D01*
X825760Y702130D01*
X824427Y702130D01*
X823093Y702686D01*
X822427Y703797D01*
X822427Y704908D01*
X823093Y706019D01*
X824427Y706575D01*
X823093Y707130D01*
X822427Y708241D01*
X822427Y709352D01*
X823093Y710464D01*
X824427Y711019D01*
X825760Y711019D01*
X827093Y710464D01*
X827760Y709352D01*
G54D10*
X848977Y711110D02*
X848977Y702221D01*
X852977Y707776D01*
X852977Y708887D01*
X847644Y708887D01*
G54D10*
X925939Y706575D02*
X927272Y706575D01*
X928605Y706020D01*
X929272Y704908D01*
X929272Y703797D01*
X928605Y702686D01*
X927272Y702131D01*
X925939Y702131D01*
X924605Y702686D01*
X923939Y703797D01*
X923939Y704908D01*
X924605Y706020D01*
X925939Y706575D01*
X924605Y707131D01*
X923939Y708242D01*
X923939Y709353D01*
X924605Y710464D01*
X925939Y711020D01*
X927272Y711020D01*
X928605Y710464D01*
X929272Y709353D01*
X929272Y708242D01*
X928605Y707131D01*
X927272Y706575D01*
G54D10*
X853214Y669157D02*
X847881Y669157D01*
X847881Y665268D01*
X848548Y665268D01*
X849881Y665824D01*
X851214Y665824D01*
X852548Y665268D01*
X853214Y664157D01*
X853214Y661935D01*
X852548Y660824D01*
X851214Y660268D01*
X849881Y660268D01*
X848548Y660824D01*
X847881Y661935D01*
G54D10*
X878614Y667491D02*
X877948Y668602D01*
X876614Y669157D01*
X875281Y669157D01*
X873948Y668602D01*
X873281Y667491D01*
X873281Y664713D01*
X873281Y664157D01*
X875281Y665268D01*
X876614Y665268D01*
X877948Y664713D01*
X878614Y663602D01*
X878614Y661935D01*
X877948Y660824D01*
X876614Y660268D01*
X875281Y660268D01*
X873948Y660824D01*
X873281Y661935D01*
X873281Y664713D01*
G54D10*
X898680Y669145D02*
X904013Y669145D01*
X903347Y668034D01*
X902013Y666367D01*
X900680Y664145D01*
X900013Y662478D01*
X900013Y660256D01*
G54D10*
X917931Y670012D02*
X920154Y661123D01*
X922376Y670012D01*
G54D10*
X929042Y662789D02*
X928598Y661678D01*
X927709Y661123D01*
X926820Y661123D01*
X925931Y661678D01*
X925486Y662789D01*
X925486Y668345D01*
X925931Y669456D01*
X926820Y670012D01*
X927709Y670012D01*
X928598Y669456D01*
X929042Y668345D01*
G54D10*
X935709Y662789D02*
X935264Y661678D01*
X934376Y661123D01*
X933487Y661123D01*
X932598Y661678D01*
X932153Y662789D01*
X932153Y668345D01*
X932598Y669456D01*
X933487Y670012D01*
X934376Y670012D01*
X935264Y669456D01*
X935709Y668345D01*
G54D10*
X880811Y703450D02*
X880811Y709005D01*
X881255Y710116D01*
X882144Y710672D01*
X883033Y710672D01*
X883922Y710116D01*
X884366Y709005D01*
X884366Y703450D01*
X883922Y702339D01*
X883033Y701783D01*
X882144Y701783D01*
X881255Y702339D01*
X880811Y703450D01*
G54D10*
X877700Y701783D02*
X877700Y709005D01*
X877255Y710116D01*
X876366Y710672D01*
X875477Y710672D01*
X874588Y710116D01*
X874144Y709005D01*
X874144Y701783D01*
G54D10*
X869255Y710672D02*
X869255Y701783D01*
G54D10*
X871032Y701783D02*
X867477Y701783D01*
G54D10*
X793170Y660825D02*
X793170Y669714D01*
X795392Y669714D01*
X796281Y669158D01*
X796725Y668047D01*
X796725Y662492D01*
X796281Y661380D01*
X795392Y660825D01*
X793170Y660825D01*
G54D10*
X799837Y660825D02*
X803392Y660825D01*
G54D10*
X801615Y660825D02*
X801615Y669714D01*
G54D10*
X799837Y669714D02*
X803392Y669714D01*
G54D10*
X806504Y660825D02*
X806504Y669714D01*
X810059Y660825D01*
X810059Y669714D01*
G54D10*
X747763Y662300D02*
X747318Y661189D01*
X746429Y660634D01*
X745540Y660634D01*
X744651Y661189D01*
X744207Y662300D01*
X744207Y667856D01*
X744651Y668967D01*
X745540Y669522D01*
X746429Y669522D01*
X747318Y668967D01*
X747763Y667856D01*
G54D10*
X750874Y662300D02*
X751318Y661189D01*
X752207Y660634D01*
X753096Y660634D01*
X753985Y661189D01*
X754430Y662300D01*
X754430Y663411D01*
X753985Y664522D01*
X753096Y665078D01*
X752207Y665078D01*
X751318Y665634D01*
X750874Y666745D01*
X750874Y667856D01*
X751318Y668967D01*
X752207Y669522D01*
X753096Y669522D01*
X753985Y668967D01*
X754430Y667856D01*
G54D10*
X765924Y662489D02*
X766369Y661378D01*
X767258Y660822D01*
X768147Y660822D01*
X769036Y661378D01*
X769480Y662489D01*
X769480Y663600D01*
X769036Y664711D01*
X768147Y665266D01*
X767258Y665266D01*
X766369Y665822D01*
X765924Y666933D01*
X765924Y668044D01*
X766369Y669155D01*
X767258Y669711D01*
X768147Y669711D01*
X769036Y669155D01*
X769480Y668044D01*
G54D10*
X776147Y662489D02*
X775703Y661378D01*
X774814Y660822D01*
X773925Y660822D01*
X773036Y661378D01*
X772592Y662489D01*
X772592Y668044D01*
X773036Y669155D01*
X773925Y669711D01*
X774814Y669711D01*
X775703Y669155D01*
X776147Y668044D01*
G54D10*
X779258Y660822D02*
X779258Y669711D01*
G54D10*
X779258Y663600D02*
X782814Y669711D01*
G54D10*
X780592Y665266D02*
X782814Y660822D01*
G54D10*
X751390Y683747D02*
X750724Y682636D01*
X749390Y682080D01*
X748057Y682080D01*
X746724Y682636D01*
X746057Y683747D01*
X746057Y689303D01*
X746724Y690414D01*
X748057Y690969D01*
X749390Y690969D01*
X750724Y690414D01*
X751390Y689303D01*
G54D10*
X754501Y682080D02*
X754501Y690969D01*
X757834Y690969D01*
X759168Y690414D01*
X759834Y689303D01*
X759834Y683747D01*
X759168Y682636D01*
X757834Y682080D01*
X754501Y682080D01*
G54D10*
X766945Y682080D02*
X766945Y690969D01*
X762945Y685414D01*
X762945Y684303D01*
X768278Y684303D01*
G54D10*
X776722Y689303D02*
X776722Y683747D01*
X776056Y682636D01*
X774722Y682080D01*
X773389Y682080D01*
X772056Y682636D01*
X771389Y683747D01*
X771389Y689303D01*
X772056Y690414D01*
X773389Y690969D01*
X774722Y690969D01*
X776056Y690414D01*
X776722Y689303D01*
G54D10*
X785166Y682080D02*
X779833Y682080D01*
X779833Y682636D01*
X780500Y683747D01*
X784500Y687080D01*
X785166Y688192D01*
X785166Y689303D01*
X784500Y690414D01*
X783166Y690969D01*
X781833Y690969D01*
X780500Y690414D01*
X779833Y689303D01*
G54D10*
X788277Y687636D02*
X791610Y690969D01*
X791610Y682080D01*
G54D10*
X794721Y682080D02*
X794721Y690969D01*
X798054Y690969D01*
X799388Y690414D01*
X800054Y689303D01*
X800054Y688192D01*
X799388Y687080D01*
X798054Y686525D01*
X799388Y685969D01*
X800054Y684858D01*
X800054Y683747D01*
X799388Y682636D01*
X798054Y682080D01*
X794721Y682080D01*
G54D10*
X794721Y686525D02*
X798054Y686525D01*
G54D10*
X807832Y682080D02*
X803165Y682080D01*
X803165Y690969D01*
X807832Y690969D01*
G54D10*
X803165Y686525D02*
X807832Y686525D01*
G54D12*
X736600Y596900D02*
X736600Y622300D01*
X939800Y622300D01*
X939800Y596900D01*
X736600Y596900D01*
G54D12*
X714375Y561975D02*
X714375Y581025D01*
X939800Y581025D01*
X939800Y561975D01*
X714375Y561975D01*
G54D12*
X577850Y927100D02*
X793750Y927100D01*
X793750Y825500D01*
X577850Y825500D01*
X577850Y927100D01*
G54D12*
X583932Y904917D02*
X787131Y904917D01*
X787400Y889000D01*
X781050Y882650D01*
X781050Y869950D01*
X787400Y863600D01*
X787131Y847717D01*
X583932Y847717D01*
X583932Y904917D01*
G54D10*
X603283Y896728D02*
X601505Y896728D01*
X601505Y899506D01*
X601950Y900617D01*
X602839Y901172D01*
X603728Y901172D01*
X604617Y900617D01*
X605061Y899506D01*
X605061Y893950D01*
X604617Y892839D01*
X603728Y892284D01*
X602839Y892284D01*
X601950Y892839D01*
X601505Y893950D01*
G54D10*
X598394Y901172D02*
X598394Y892284D01*
X594838Y901172D01*
X594838Y892284D01*
G54D10*
X591727Y901172D02*
X591727Y892284D01*
X589505Y892284D01*
X588616Y892839D01*
X588171Y893950D01*
X588171Y899506D01*
X588616Y900617D01*
X589505Y901172D01*
X591727Y901172D01*
G54D10*
X624666Y896447D02*
X621333Y893114D01*
X621333Y902002D01*
G54D10*
X644539Y901520D02*
X649872Y901520D01*
X649872Y900964D01*
X649205Y899853D01*
X645205Y896520D01*
X644539Y895408D01*
X644539Y894297D01*
X645205Y893186D01*
X646539Y892631D01*
X647872Y892631D01*
X649205Y893186D01*
X649872Y894297D01*
G54D10*
X675360Y894297D02*
X674693Y893186D01*
X673360Y892630D01*
X672027Y892630D01*
X670693Y893186D01*
X670027Y894297D01*
X670027Y895408D01*
X670693Y896519D01*
X672027Y897075D01*
X670693Y897630D01*
X670027Y898741D01*
X670027Y899852D01*
X670693Y900964D01*
X672027Y901519D01*
X673360Y901519D01*
X674693Y900964D01*
X675360Y899852D01*
G54D10*
X696577Y901610D02*
X696577Y892721D01*
X700577Y898276D01*
X700577Y899387D01*
X695244Y899387D01*
G54D10*
X773539Y897075D02*
X774872Y897075D01*
X776205Y896520D01*
X776872Y895408D01*
X776872Y894297D01*
X776205Y893186D01*
X774872Y892631D01*
X773539Y892631D01*
X772205Y893186D01*
X771539Y894297D01*
X771539Y895408D01*
X772205Y896520D01*
X773539Y897075D01*
X772205Y897631D01*
X771539Y898742D01*
X771539Y899853D01*
X772205Y900964D01*
X773539Y901520D01*
X774872Y901520D01*
X776205Y900964D01*
X776872Y899853D01*
X776872Y898742D01*
X776205Y897631D01*
X774872Y897075D01*
G54D10*
X700814Y859657D02*
X695481Y859657D01*
X695481Y855768D01*
X696148Y855768D01*
X697481Y856324D01*
X698814Y856324D01*
X700148Y855768D01*
X700814Y854657D01*
X700814Y852435D01*
X700148Y851324D01*
X698814Y850768D01*
X697481Y850768D01*
X696148Y851324D01*
X695481Y852435D01*
G54D10*
X726214Y857991D02*
X725548Y859102D01*
X724214Y859657D01*
X722881Y859657D01*
X721548Y859102D01*
X720881Y857991D01*
X720881Y855213D01*
X720881Y854657D01*
X722881Y855768D01*
X724214Y855768D01*
X725548Y855213D01*
X726214Y854102D01*
X726214Y852435D01*
X725548Y851324D01*
X724214Y850768D01*
X722881Y850768D01*
X721548Y851324D01*
X720881Y852435D01*
X720881Y855213D01*
G54D10*
X746280Y859645D02*
X751613Y859645D01*
X750947Y858534D01*
X749613Y856867D01*
X748280Y854645D01*
X747613Y852978D01*
X747613Y850756D01*
G54D10*
X765531Y860512D02*
X767754Y851623D01*
X769976Y860512D01*
G54D10*
X776642Y853289D02*
X776198Y852178D01*
X775309Y851623D01*
X774420Y851623D01*
X773531Y852178D01*
X773086Y853289D01*
X773086Y858845D01*
X773531Y859956D01*
X774420Y860512D01*
X775309Y860512D01*
X776198Y859956D01*
X776642Y858845D01*
G54D10*
X783309Y853289D02*
X782864Y852178D01*
X781976Y851623D01*
X781087Y851623D01*
X780198Y852178D01*
X779753Y853289D01*
X779753Y858845D01*
X780198Y859956D01*
X781087Y860512D01*
X781976Y860512D01*
X782864Y859956D01*
X783309Y858845D01*
G54D10*
X728411Y893950D02*
X728411Y899506D01*
X728855Y900617D01*
X729744Y901172D01*
X730633Y901172D01*
X731522Y900617D01*
X731966Y899506D01*
X731966Y893950D01*
X731522Y892839D01*
X730633Y892284D01*
X729744Y892284D01*
X728855Y892839D01*
X728411Y893950D01*
G54D10*
X725300Y892284D02*
X725300Y899506D01*
X724855Y900617D01*
X723966Y901172D01*
X723077Y901172D01*
X722188Y900617D01*
X721744Y899506D01*
X721744Y892284D01*
G54D10*
X716855Y901172D02*
X716855Y892284D01*
G54D10*
X718632Y892284D02*
X715077Y892284D01*
G54D10*
X640770Y851325D02*
X640770Y860214D01*
X642992Y860214D01*
X643881Y859658D01*
X644325Y858547D01*
X644325Y852992D01*
X643881Y851880D01*
X642992Y851325D01*
X640770Y851325D01*
G54D10*
X647437Y851325D02*
X650992Y851325D01*
G54D10*
X649215Y851325D02*
X649215Y860214D01*
G54D10*
X647437Y860214D02*
X650992Y860214D01*
G54D10*
X654104Y851325D02*
X654104Y860214D01*
X657659Y851325D01*
X657659Y860214D01*
G54D10*
X595363Y852800D02*
X594918Y851689D01*
X594029Y851134D01*
X593140Y851134D01*
X592251Y851689D01*
X591807Y852800D01*
X591807Y858356D01*
X592251Y859467D01*
X593140Y860022D01*
X594029Y860022D01*
X594918Y859467D01*
X595363Y858356D01*
G54D10*
X598474Y852800D02*
X598918Y851689D01*
X599807Y851134D01*
X600696Y851134D01*
X601585Y851689D01*
X602030Y852800D01*
X602030Y853911D01*
X601585Y855022D01*
X600696Y855578D01*
X599807Y855578D01*
X598918Y856134D01*
X598474Y857245D01*
X598474Y858356D01*
X598918Y859467D01*
X599807Y860022D01*
X600696Y860022D01*
X601585Y859467D01*
X602030Y858356D01*
G54D10*
X613524Y852989D02*
X613969Y851878D01*
X614858Y851322D01*
X615747Y851322D01*
X616636Y851878D01*
X617080Y852989D01*
X617080Y854100D01*
X616636Y855211D01*
X615747Y855766D01*
X614858Y855766D01*
X613969Y856322D01*
X613524Y857433D01*
X613524Y858544D01*
X613969Y859655D01*
X614858Y860211D01*
X615747Y860211D01*
X616636Y859655D01*
X617080Y858544D01*
G54D10*
X623747Y852989D02*
X623303Y851878D01*
X622414Y851322D01*
X621525Y851322D01*
X620636Y851878D01*
X620192Y852989D01*
X620192Y858544D01*
X620636Y859655D01*
X621525Y860211D01*
X622414Y860211D01*
X623303Y859655D01*
X623747Y858544D01*
G54D10*
X626858Y851322D02*
X626858Y860211D01*
G54D10*
X626858Y854100D02*
X630414Y860211D01*
G54D10*
X628192Y855766D02*
X630414Y851322D01*
G54D10*
X598173Y874247D02*
X597506Y873136D01*
X596173Y872580D01*
X594839Y872580D01*
X593506Y873136D01*
X592839Y874247D01*
X592839Y879803D01*
X593506Y880914D01*
X594839Y881469D01*
X596173Y881469D01*
X597506Y880914D01*
X598173Y879803D01*
G54D10*
X601283Y872580D02*
X601283Y881469D01*
X604617Y881469D01*
X605950Y880914D01*
X606617Y879803D01*
X606617Y874247D01*
X605950Y873136D01*
X604617Y872580D01*
X601283Y872580D01*
G54D10*
X613727Y872580D02*
X613727Y881469D01*
X609727Y875914D01*
X609727Y874803D01*
X615061Y874803D01*
G54D10*
X623505Y879803D02*
X623505Y874247D01*
X622838Y873136D01*
X621505Y872580D01*
X620171Y872580D01*
X618838Y873136D01*
X618171Y874247D01*
X618171Y879803D01*
X618838Y880914D01*
X620171Y881469D01*
X621505Y881469D01*
X622838Y880914D01*
X623505Y879803D01*
G54D10*
X631949Y872580D02*
X626615Y872580D01*
X626615Y873136D01*
X627282Y874247D01*
X631282Y877580D01*
X631949Y878691D01*
X631949Y879803D01*
X631282Y880914D01*
X629949Y881469D01*
X628615Y881469D01*
X627282Y880914D01*
X626615Y879803D01*
G54D10*
X635059Y878136D02*
X638393Y881469D01*
X638393Y872580D01*
G54D10*
X641503Y872580D02*
X641503Y881469D01*
X644837Y881469D01*
X646170Y880914D01*
X646837Y879803D01*
X646837Y878691D01*
X646170Y877580D01*
X644837Y877025D01*
X646170Y876469D01*
X646837Y875358D01*
X646837Y874247D01*
X646170Y873136D01*
X644837Y872580D01*
X641503Y872580D01*
G54D10*
X641503Y877025D02*
X644837Y877025D01*
G54D10*
X654614Y872580D02*
X649947Y872580D01*
X649947Y881469D01*
X654614Y881469D01*
G54D10*
X649947Y877025D02*
X654614Y877025D01*
G54D12*
X584200Y787400D02*
X584200Y812800D01*
X787400Y812800D01*
X787400Y787400D01*
X584200Y787400D01*
G54D12*
X561975Y752475D02*
X561975Y771525D01*
X787400Y771525D01*
X787400Y752475D01*
X561975Y752475D01*
G54D13*
X606425Y533400D02*
X615950Y533400D01*
G54D13*
X615950Y542925D02*
X654050Y542925D01*
X654050Y523875D01*
X615950Y523875D01*
X615950Y542925D01*
G54D13*
X654050Y533400D02*
X663575Y533400D01*
G54D10*
X631005Y533499D02*
X633005Y532388D01*
X633672Y531277D01*
X633672Y529055D01*
G54D10*
X628339Y529055D02*
X628339Y537944D01*
X631672Y537944D01*
X633005Y537388D01*
X633672Y536277D01*
X633672Y535166D01*
X633005Y534055D01*
X631672Y533499D01*
X628339Y533499D01*
G54D10*
X636783Y534610D02*
X640116Y537944D01*
X640116Y529055D01*
G54D12*
X685800Y520700D02*
X685800Y546100D01*
X736600Y546100D01*
X736600Y520700D01*
X685800Y520700D01*
G54D12*
X749300Y520700D02*
X749300Y546100D01*
X800100Y546100D01*
X800100Y520700D01*
X749300Y520700D01*
G54D13*
X606425Y508000D02*
X615950Y508000D01*
G54D13*
X615950Y517525D02*
X654050Y517525D01*
X654050Y498475D01*
X615950Y498475D01*
X615950Y517525D01*
G54D13*
X654050Y508000D02*
X663575Y508000D01*
G54D10*
X631005Y508099D02*
X633005Y506988D01*
X633672Y505877D01*
X633672Y503655D01*
G54D10*
X628339Y503655D02*
X628339Y512544D01*
X631672Y512544D01*
X633005Y511988D01*
X633672Y510877D01*
X633672Y509766D01*
X633005Y508655D01*
X631672Y508099D01*
X628339Y508099D01*
G54D10*
X636783Y509210D02*
X640116Y512544D01*
X640116Y503655D01*
G54D12*
X685800Y495300D02*
X685800Y520700D01*
X736600Y520700D01*
X736600Y495300D01*
X685800Y495300D01*
G54D12*
X749300Y495300D02*
X749300Y520700D01*
X800100Y520700D01*
X800100Y495300D01*
X749300Y495300D01*
G54D10*
X694026Y549711D02*
X694026Y558600D01*
G54D10*
X701137Y550266D02*
X700070Y549711D01*
X698737Y549711D01*
X697404Y550266D01*
X697137Y551377D01*
X697137Y553266D01*
X697804Y554377D01*
X699137Y554711D01*
X700470Y554377D01*
X701137Y553600D01*
X701137Y552489D01*
X697137Y552489D01*
G54D10*
X708248Y549711D02*
X708248Y558600D01*
G54D10*
X708248Y553266D02*
X707581Y554377D01*
X706248Y554711D01*
X704915Y554377D01*
X704248Y553266D01*
X704248Y551044D01*
X704915Y549933D01*
X706248Y549711D01*
X707581Y549933D01*
X708248Y551044D01*
G54D10*
X715936Y558600D02*
X715936Y550266D01*
X716603Y549711D01*
X717270Y549933D01*
G54D10*
X714603Y554711D02*
X717270Y554711D01*
G54D10*
X720381Y548044D02*
X721714Y547489D01*
X722648Y547489D01*
X723981Y548044D01*
X724381Y549155D01*
X724381Y554711D01*
G54D10*
X724381Y553266D02*
X723714Y554377D01*
X722381Y554711D01*
X721048Y554377D01*
X720381Y553266D01*
X720381Y551044D01*
X721048Y549933D01*
X722381Y549711D01*
X723714Y549933D01*
X724381Y551044D01*
G54D10*
X727492Y549711D02*
X727492Y558600D01*
G54D10*
X756752Y554545D02*
X762085Y554545D01*
G54D10*
X759419Y556768D02*
X759419Y552323D01*
G54D10*
X768440Y550657D02*
X768440Y559545D01*
G54D10*
X775551Y551212D02*
X774484Y550657D01*
X773151Y550657D01*
X771818Y551212D01*
X771551Y552323D01*
X771551Y554212D01*
X772218Y555323D01*
X773551Y555657D01*
X774884Y555323D01*
X775551Y554545D01*
X775551Y553434D01*
X771551Y553434D01*
G54D10*
X782662Y550657D02*
X782662Y559545D01*
G54D10*
X782662Y554212D02*
X781995Y555323D01*
X780662Y555657D01*
X779329Y555323D01*
X778662Y554212D01*
X778662Y551990D01*
X779329Y550879D01*
X780662Y550657D01*
X781995Y550879D01*
X782662Y551990D01*
G54D10*
X789017Y554545D02*
X794350Y554545D01*
G54D13*
X390525Y533400D02*
X400050Y533400D01*
G54D13*
X400050Y542925D02*
X438150Y542925D01*
X438150Y523875D01*
X400050Y523875D01*
X400050Y542925D01*
G54D13*
X438150Y533400D02*
X447675Y533400D01*
G54D10*
X415105Y533499D02*
X417105Y532388D01*
X417772Y531277D01*
X417772Y529055D01*
G54D10*
X412439Y529055D02*
X412439Y537944D01*
X415772Y537944D01*
X417105Y537388D01*
X417772Y536277D01*
X417772Y535166D01*
X417105Y534055D01*
X415772Y533499D01*
X412439Y533499D01*
G54D10*
X420883Y534610D02*
X424216Y537944D01*
X424216Y529055D01*
G54D12*
X469900Y520700D02*
X469900Y546100D01*
X520700Y546100D01*
X520700Y520700D01*
X469900Y520700D01*
G54D12*
X533400Y520700D02*
X533400Y546100D01*
X584200Y546100D01*
X584200Y520700D01*
X533400Y520700D01*
G54D13*
X390525Y508000D02*
X400050Y508000D01*
G54D13*
X400050Y517525D02*
X438150Y517525D01*
X438150Y498475D01*
X400050Y498475D01*
X400050Y517525D01*
G54D13*
X438150Y508000D02*
X447675Y508000D01*
G54D10*
X415105Y508099D02*
X417105Y506988D01*
X417772Y505877D01*
X417772Y503655D01*
G54D10*
X412439Y503655D02*
X412439Y512544D01*
X415772Y512544D01*
X417105Y511988D01*
X417772Y510877D01*
X417772Y509766D01*
X417105Y508655D01*
X415772Y508099D01*
X412439Y508099D01*
G54D10*
X420883Y509210D02*
X424216Y512544D01*
X424216Y503655D01*
G54D12*
X469900Y495300D02*
X469900Y520700D01*
X520700Y520700D01*
X520700Y495300D01*
X469900Y495300D01*
G54D12*
X533400Y495300D02*
X533400Y520700D01*
X584200Y520700D01*
X584200Y495300D01*
X533400Y495300D01*
G54D10*
X478642Y549674D02*
X478642Y558562D01*
G54D10*
X485753Y550229D02*
X484686Y549674D01*
X483353Y549674D01*
X482020Y550229D01*
X481753Y551340D01*
X481753Y553229D01*
X482420Y554340D01*
X483753Y554674D01*
X485086Y554340D01*
X485753Y553562D01*
X485753Y552451D01*
X481753Y552451D01*
G54D10*
X492864Y549674D02*
X492864Y558562D01*
G54D10*
X492864Y553229D02*
X492197Y554340D01*
X490864Y554674D01*
X489531Y554340D01*
X488864Y553229D01*
X488864Y551007D01*
X489531Y549896D01*
X490864Y549674D01*
X492197Y549896D01*
X492864Y551007D01*
G54D10*
X500552Y558562D02*
X500552Y550229D01*
X501219Y549674D01*
X501886Y549896D01*
G54D10*
X499219Y554674D02*
X501886Y554674D01*
G54D10*
X504997Y548007D02*
X506330Y547451D01*
X507264Y547451D01*
X508597Y548007D01*
X508997Y549118D01*
X508997Y554674D01*
G54D10*
X508997Y553229D02*
X508330Y554340D01*
X506997Y554674D01*
X505664Y554340D01*
X504997Y553229D01*
X504997Y551007D01*
X505664Y549896D01*
X506997Y549674D01*
X508330Y549896D01*
X508997Y551007D01*
G54D10*
X512108Y549674D02*
X512108Y558562D01*
G54D10*
X539708Y553955D02*
X545041Y553955D01*
G54D10*
X542375Y556177D02*
X542375Y551732D01*
G54D10*
X551396Y550066D02*
X551396Y558955D01*
G54D10*
X558507Y550621D02*
X557440Y550066D01*
X556107Y550066D01*
X554774Y550621D01*
X554507Y551732D01*
X554507Y553621D01*
X555174Y554732D01*
X556507Y555066D01*
X557840Y554732D01*
X558507Y553955D01*
X558507Y552844D01*
X554507Y552844D01*
G54D10*
X565618Y550066D02*
X565618Y558955D01*
G54D10*
X565618Y553621D02*
X564951Y554732D01*
X563618Y555066D01*
X562285Y554732D01*
X561618Y553621D01*
X561618Y551399D01*
X562285Y550288D01*
X563618Y550066D01*
X564951Y550288D01*
X565618Y551399D01*
G54D10*
X571973Y553955D02*
X577306Y553955D01*
G54D13*
X174625Y533400D02*
X184150Y533400D01*
G54D13*
X184150Y542925D02*
X222250Y542925D01*
X222250Y523875D01*
X184150Y523875D01*
X184150Y542925D01*
G54D13*
X222250Y533400D02*
X231775Y533400D01*
G54D10*
X199205Y533499D02*
X201205Y532388D01*
X201872Y531277D01*
X201872Y529055D01*
G54D10*
X196539Y529055D02*
X196539Y537944D01*
X199872Y537944D01*
X201205Y537388D01*
X201872Y536277D01*
X201872Y535166D01*
X201205Y534055D01*
X199872Y533499D01*
X196539Y533499D01*
G54D10*
X204983Y534610D02*
X208316Y537944D01*
X208316Y529055D01*
G54D12*
X254000Y520700D02*
X254000Y546100D01*
X304800Y546100D01*
X304800Y520700D01*
X254000Y520700D01*
G54D12*
X317500Y520700D02*
X317500Y546100D01*
X368300Y546100D01*
X368300Y520700D01*
X317500Y520700D01*
G54D13*
X174625Y508000D02*
X184150Y508000D01*
G54D13*
X184150Y517525D02*
X222250Y517525D01*
X222250Y498475D01*
X184150Y498475D01*
X184150Y517525D01*
G54D13*
X222250Y508000D02*
X231775Y508000D01*
G54D10*
X199205Y508099D02*
X201205Y506988D01*
X201872Y505877D01*
X201872Y503655D01*
G54D10*
X196539Y503655D02*
X196539Y512544D01*
X199872Y512544D01*
X201205Y511988D01*
X201872Y510877D01*
X201872Y509766D01*
X201205Y508655D01*
X199872Y508099D01*
X196539Y508099D01*
G54D10*
X204983Y509210D02*
X208316Y512544D01*
X208316Y503655D01*
G54D12*
X254000Y495300D02*
X254000Y520700D01*
X304800Y520700D01*
X304800Y495300D01*
X254000Y495300D01*
G54D12*
X317500Y495300D02*
X317500Y520700D01*
X368300Y520700D01*
X368300Y495300D01*
X317500Y495300D01*
G54D10*
X262882Y549710D02*
X262882Y558599D01*
G54D10*
X269992Y550265D02*
X268926Y549710D01*
X267592Y549710D01*
X266259Y550265D01*
X265992Y551376D01*
X265992Y553265D01*
X266659Y554376D01*
X267992Y554710D01*
X269326Y554376D01*
X269992Y553599D01*
X269992Y552487D01*
X265992Y552487D01*
G54D10*
X277104Y549710D02*
X277104Y558599D01*
G54D10*
X277104Y553265D02*
X276437Y554376D01*
X275104Y554710D01*
X273770Y554376D01*
X273104Y553265D01*
X273104Y551043D01*
X273770Y549932D01*
X275104Y549710D01*
X276437Y549932D01*
X277104Y551043D01*
G54D10*
X284792Y558599D02*
X284792Y550265D01*
X285458Y549710D01*
X286125Y549932D01*
G54D10*
X283458Y554710D02*
X286125Y554710D01*
G54D10*
X289236Y548043D02*
X290570Y547487D01*
X291503Y547487D01*
X292836Y548043D01*
X293236Y549154D01*
X293236Y554710D01*
G54D10*
X293236Y553265D02*
X292570Y554376D01*
X291236Y554710D01*
X289903Y554376D01*
X289236Y553265D01*
X289236Y551043D01*
X289903Y549932D01*
X291236Y549710D01*
X292570Y549932D01*
X293236Y551043D01*
G54D10*
X296348Y549710D02*
X296348Y558599D01*
G54D10*
X324407Y553999D02*
X329740Y553999D01*
G54D10*
X327074Y556221D02*
X327074Y551776D01*
G54D10*
X336095Y550110D02*
X336095Y558999D01*
G54D10*
X343206Y550665D02*
X342140Y550110D01*
X340806Y550110D01*
X339473Y550665D01*
X339206Y551776D01*
X339206Y553665D01*
X339873Y554776D01*
X341206Y555110D01*
X342540Y554776D01*
X343206Y553999D01*
X343206Y552888D01*
X339206Y552888D01*
G54D10*
X350317Y550110D02*
X350317Y558999D01*
G54D10*
X350317Y553665D02*
X349650Y554776D01*
X348317Y555110D01*
X346984Y554776D01*
X346317Y553665D01*
X346317Y551443D01*
X346984Y550332D01*
X348317Y550110D01*
X349650Y550332D01*
X350317Y551443D01*
G54D10*
X356672Y553999D02*
X362006Y553999D01*
G54D12*
X88900Y939800D02*
X88900Y965200D01*
X139700Y965200D01*
X139700Y939800D01*
X88900Y939800D01*
G54D11*
G75*
G01X76200Y520700D02*
G03X76200Y520700I-25400J0D01*
G01*
G54D11*
G75*
G01X939800Y520700D02*
G03X939800Y520700I-25400J0D01*
G01*
G54D11*
G75*
G01X939800Y952500D02*
G03X939800Y952500I-25400J0D01*
G01*
G54D11*
G75*
G01X76200Y952500D02*
G03X76200Y952500I-25400J0D01*
G01*
G54D12*
X152400Y939800D02*
X152400Y965200D01*
X203200Y965200D01*
X203200Y939800D01*
X152400Y939800D01*
G54D12*
X88900Y520700D02*
X88900Y546100D01*
X139700Y546100D01*
X139700Y520700D01*
X88900Y520700D01*
G54D12*
X812800Y520700D02*
X812800Y546100D01*
X863600Y546100D01*
X863600Y520700D01*
X812800Y520700D01*
G54D12*
X215900Y939800D02*
X215900Y965200D01*
X317500Y965200D01*
X317500Y939800D01*
X215900Y939800D01*
G54D12*
X330200Y939800D02*
X330200Y965200D01*
X482600Y965200D01*
X482600Y939800D01*
X330200Y939800D01*
G54D12*
X495300Y965200D02*
X520700Y965200D01*
X520700Y889000D01*
X495300Y889000D01*
X495300Y965200D01*
G54D12*
X533400Y965200D02*
X558800Y965200D01*
X558800Y889000D01*
X533400Y889000D01*
X533400Y965200D01*
G54D12*
X533400Y863600D02*
X558800Y863600D01*
X558800Y787400D01*
X533400Y787400D01*
X533400Y863600D01*
G54D12*
X584200Y939800D02*
X584200Y965200D01*
X660400Y965200D01*
X660400Y939800D01*
X584200Y939800D01*
G54D12*
X495300Y863600D02*
X520700Y863600D01*
X520700Y787400D01*
X495300Y787400D01*
X495300Y863600D01*
G54D10*
X198933Y817416D02*
X207822Y817416D01*
X207822Y815194D01*
X207266Y814305D01*
X206155Y813861D01*
X200600Y813861D01*
X199488Y814305D01*
X198933Y815194D01*
X198933Y817416D01*
G54D10*
X198933Y810749D02*
X207822Y808527D01*
X198933Y806305D01*
G54D10*
X202266Y809860D02*
X202266Y807194D01*
G54D10*
X198933Y801416D02*
X207822Y801416D01*
G54D10*
X207822Y803194D02*
X207822Y799639D01*
G54D10*
X174157Y817209D02*
X173046Y816765D01*
X172490Y815876D01*
X172490Y814987D01*
X173046Y814098D01*
X174157Y813653D01*
X175268Y813653D01*
X176379Y814098D01*
X176934Y814987D01*
X176934Y815876D01*
X177490Y816765D01*
X178601Y817209D01*
X179712Y817209D01*
X180823Y816765D01*
X181379Y815876D01*
X181379Y814987D01*
X180823Y814098D01*
X179712Y813653D01*
G54D10*
X174157Y806986D02*
X173046Y807431D01*
X172490Y808320D01*
X172490Y809209D01*
X173046Y810098D01*
X174157Y810542D01*
X179712Y810542D01*
X180823Y810098D01*
X181379Y809209D01*
X181379Y808320D01*
X180823Y807431D01*
X179712Y806986D01*
G54D10*
X172490Y803875D02*
X181379Y803875D01*
G54D10*
X175268Y803875D02*
X181379Y800319D01*
G54D10*
X176934Y802542D02*
X172490Y800319D01*
G54D10*
X149736Y814796D02*
X148625Y815240D01*
X148069Y816129D01*
X148069Y817018D01*
X148625Y817907D01*
X149736Y818352D01*
X155291Y818352D01*
X156402Y817907D01*
X156958Y817018D01*
X156958Y816129D01*
X156402Y815240D01*
X155291Y814796D01*
G54D10*
X149736Y811684D02*
X148625Y811240D01*
X148069Y810351D01*
X148069Y809462D01*
X148625Y808573D01*
X149736Y808129D01*
X150847Y808129D01*
X151958Y808573D01*
X152513Y809462D01*
X152513Y810351D01*
X153069Y811240D01*
X154180Y811684D01*
X155291Y811684D01*
X156402Y811240D01*
X156958Y810351D01*
X156958Y809462D01*
X156402Y808573D01*
X155291Y808129D01*
G54D10*
X254355Y815396D02*
X254355Y813618D01*
X251577Y813618D01*
X250466Y814063D01*
X249911Y814952D01*
X249911Y815840D01*
X250466Y816729D01*
X251577Y817174D01*
X257133Y817174D01*
X258244Y816729D01*
X258800Y815840D01*
X258800Y814952D01*
X258244Y814063D01*
X257133Y813618D01*
G54D10*
X249911Y810507D02*
X258800Y810507D01*
X249911Y806951D01*
X258800Y806951D01*
G54D10*
X249911Y803840D02*
X258800Y803840D01*
X258800Y801618D01*
X258244Y800729D01*
X257133Y800284D01*
X251577Y800284D01*
X250466Y800729D01*
X249911Y801618D01*
X249911Y803840D01*
G54D10*
X232510Y819044D02*
X223621Y816821D01*
X232510Y814599D01*
G54D10*
X225288Y807933D02*
X224177Y808377D01*
X223621Y809266D01*
X223621Y810155D01*
X224177Y811044D01*
X225288Y811488D01*
X230844Y811488D01*
X231955Y811044D01*
X232510Y810155D01*
X232510Y809266D01*
X231955Y808377D01*
X230844Y807933D01*
G54D10*
X225288Y801266D02*
X224177Y801710D01*
X223621Y802599D01*
X223621Y803488D01*
X224177Y804377D01*
X225288Y804822D01*
X230844Y804822D01*
X231955Y804377D01*
X232510Y803488D01*
X232510Y802599D01*
X231955Y801710D01*
X230844Y801266D01*
G54D10*
X151346Y863552D02*
X153346Y862441D01*
X154013Y861330D01*
X154013Y859108D01*
G54D10*
X148679Y859108D02*
X148679Y867997D01*
X152013Y867997D01*
X153346Y867441D01*
X154013Y866330D01*
X154013Y865219D01*
X153346Y864108D01*
X152013Y863552D01*
X148679Y863552D01*
G54D10*
X161790Y859108D02*
X157123Y859108D01*
X157123Y867997D01*
X161790Y867997D01*
G54D10*
X157123Y863552D02*
X161790Y863552D01*
G54D10*
X167568Y863552D02*
X170235Y863552D01*
X170235Y860775D01*
X169568Y859663D01*
X168235Y859108D01*
X166901Y859108D01*
X165568Y859663D01*
X164901Y860775D01*
X164901Y866330D01*
X165568Y867441D01*
X166901Y867997D01*
X168235Y867997D01*
X169568Y867441D01*
X170235Y866330D01*
G54D10*
X173345Y859108D02*
X178679Y859108D01*
G54D10*
X176012Y859108D02*
X176012Y867997D01*
G54D10*
X173345Y867997D02*
X178679Y867997D01*
G54D10*
X181789Y860775D02*
X182456Y859663D01*
X183789Y859108D01*
X185123Y859108D01*
X186456Y859663D01*
X187123Y860775D01*
X187123Y861886D01*
X186456Y862997D01*
X185123Y863552D01*
X183789Y863552D01*
X182456Y864108D01*
X181789Y865219D01*
X181789Y866330D01*
X182456Y867441D01*
X183789Y867997D01*
X185123Y867997D01*
X186456Y867441D01*
X187123Y866330D01*
G54D10*
X192900Y859108D02*
X192900Y867997D01*
G54D10*
X190233Y867997D02*
X195567Y867997D01*
G54D10*
X203344Y859108D02*
X198677Y859108D01*
X198677Y867997D01*
X203344Y867997D01*
G54D10*
X198677Y863552D02*
X203344Y863552D01*
G54D10*
X209122Y863552D02*
X211122Y862441D01*
X211789Y861330D01*
X211789Y859108D01*
G54D10*
X206455Y859108D02*
X206455Y867997D01*
X209789Y867997D01*
X211122Y867441D01*
X211789Y866330D01*
X211789Y865219D01*
X211122Y864108D01*
X209789Y863552D01*
X206455Y863552D01*
G54D10*
X214899Y860775D02*
X215566Y859663D01*
X216899Y859108D01*
X218233Y859108D01*
X219566Y859663D01*
X220233Y860775D01*
X220233Y861886D01*
X219566Y862997D01*
X218233Y863552D01*
X216899Y863552D01*
X215566Y864108D01*
X214899Y865219D01*
X214899Y866330D01*
X215566Y867441D01*
X216899Y867997D01*
X218233Y867997D01*
X219566Y867441D01*
X220233Y866330D01*
G54D10*
X226587Y859108D02*
X226587Y867997D01*
X229921Y867997D01*
X231254Y867441D01*
X231921Y866330D01*
X231921Y865219D01*
X231254Y864108D01*
X229921Y863552D01*
X226587Y863552D01*
G54D10*
X235031Y859108D02*
X238365Y867997D01*
X241698Y859108D01*
G54D10*
X236365Y862441D02*
X240365Y862441D01*
G54D10*
X244809Y860775D02*
X245476Y859663D01*
X246809Y859108D01*
X248143Y859108D01*
X249476Y859663D01*
X250143Y860775D01*
X250143Y861886D01*
X249476Y862997D01*
X248143Y863552D01*
X246809Y863552D01*
X245476Y864108D01*
X244809Y865219D01*
X244809Y866330D01*
X245476Y867441D01*
X246809Y867997D01*
X248143Y867997D01*
X249476Y867441D01*
X250143Y866330D01*
G54D10*
X253253Y860775D02*
X253920Y859663D01*
X255253Y859108D01*
X256587Y859108D01*
X257920Y859663D01*
X258587Y860775D01*
X258587Y861886D01*
X257920Y862997D01*
X256587Y863552D01*
X255253Y863552D01*
X253920Y864108D01*
X253253Y865219D01*
X253253Y866330D01*
X253920Y867441D01*
X255253Y867997D01*
X256587Y867997D01*
X257920Y867441D01*
X258587Y866330D01*
G54D10*
X857836Y859332D02*
X857836Y868221D01*
X860058Y868221D01*
X860947Y867666D01*
X861392Y866555D01*
X861392Y860999D01*
X860947Y859888D01*
X860058Y859332D01*
X857836Y859332D01*
G54D10*
X864503Y859332D02*
X866725Y868221D01*
X868948Y859332D01*
G54D10*
X865392Y862666D02*
X868059Y862666D01*
G54D10*
X873836Y859332D02*
X873836Y868221D01*
G54D10*
X872058Y868221D02*
X875614Y868221D01*
G54D10*
X859191Y834557D02*
X859635Y833446D01*
X860524Y832890D01*
X861413Y832890D01*
X862302Y833446D01*
X862747Y834557D01*
X862747Y835668D01*
X862302Y836779D01*
X861413Y837334D01*
X860524Y837334D01*
X859635Y837890D01*
X859191Y839001D01*
X859191Y840112D01*
X859635Y841223D01*
X860524Y841779D01*
X861413Y841779D01*
X862302Y841223D01*
X862747Y840112D01*
G54D10*
X869414Y834557D02*
X868969Y833446D01*
X868080Y832890D01*
X867191Y832890D01*
X866302Y833446D01*
X865858Y834557D01*
X865858Y840112D01*
X866302Y841223D01*
X867191Y841779D01*
X868080Y841779D01*
X868969Y841223D01*
X869414Y840112D01*
G54D10*
X872525Y832890D02*
X872525Y841779D01*
G54D10*
X872525Y835668D02*
X876081Y841779D01*
G54D10*
X873858Y837334D02*
X876081Y832890D01*
G54D10*
X861604Y810136D02*
X861160Y809025D01*
X860271Y808469D01*
X859382Y808469D01*
X858493Y809025D01*
X858048Y810136D01*
X858048Y815691D01*
X858493Y816802D01*
X859382Y817358D01*
X860271Y817358D01*
X861160Y816802D01*
X861604Y815691D01*
G54D10*
X864716Y810136D02*
X865160Y809025D01*
X866049Y808469D01*
X866938Y808469D01*
X867827Y809025D01*
X868271Y810136D01*
X868271Y811247D01*
X867827Y812358D01*
X866938Y812913D01*
X866049Y812913D01*
X865160Y813469D01*
X864716Y814580D01*
X864716Y815691D01*
X865160Y816802D01*
X866049Y817358D01*
X866938Y817358D01*
X867827Y816802D01*
X868271Y815691D01*
G54D10*
X861004Y914755D02*
X862782Y914755D01*
X862782Y911977D01*
X862337Y910866D01*
X861448Y910311D01*
X860560Y910311D01*
X859671Y910866D01*
X859226Y911977D01*
X859226Y917533D01*
X859671Y918644D01*
X860560Y919200D01*
X861448Y919200D01*
X862337Y918644D01*
X862782Y917533D01*
G54D10*
X865893Y910311D02*
X865893Y919200D01*
X869449Y910311D01*
X869449Y919200D01*
G54D10*
X872560Y910311D02*
X872560Y919200D01*
X874782Y919200D01*
X875671Y918644D01*
X876116Y917533D01*
X876116Y911977D01*
X875671Y910866D01*
X874782Y910311D01*
X872560Y910311D01*
G54D10*
X857356Y892910D02*
X859579Y884021D01*
X861801Y892910D01*
G54D10*
X868467Y885688D02*
X868023Y884577D01*
X867134Y884021D01*
X866245Y884021D01*
X865356Y884577D01*
X864912Y885688D01*
X864912Y891244D01*
X865356Y892355D01*
X866245Y892910D01*
X867134Y892910D01*
X868023Y892355D01*
X868467Y891244D01*
G54D10*
X875134Y885688D02*
X874690Y884577D01*
X873801Y884021D01*
X872912Y884021D01*
X872023Y884577D01*
X871578Y885688D01*
X871578Y891244D01*
X872023Y892355D01*
X872912Y892910D01*
X873801Y892910D01*
X874690Y892355D01*
X875134Y891244D01*
G54D10*
X812564Y816997D02*
X813675Y818997D01*
X814786Y819664D01*
X817008Y819664D01*
G54D10*
X817008Y814330D02*
X808119Y814330D01*
X808119Y817664D01*
X808675Y818997D01*
X809786Y819664D01*
X810897Y819664D01*
X812008Y818997D01*
X812564Y817664D01*
X812564Y814330D01*
G54D10*
X817008Y827441D02*
X817008Y822774D01*
X808119Y822774D01*
X808119Y827441D01*
G54D10*
X812564Y822774D02*
X812564Y827441D01*
G54D10*
X812564Y833219D02*
X812564Y835886D01*
X815342Y835886D01*
X816453Y835219D01*
X817008Y833886D01*
X817008Y832552D01*
X816453Y831219D01*
X815342Y830552D01*
X809786Y830552D01*
X808675Y831219D01*
X808119Y832552D01*
X808119Y833886D01*
X808675Y835219D01*
X809786Y835886D01*
G54D10*
X817008Y838996D02*
X817008Y844330D01*
G54D10*
X817008Y841663D02*
X808119Y841663D01*
G54D10*
X808119Y838996D02*
X808119Y844330D01*
G54D10*
X815342Y847440D02*
X816453Y848107D01*
X817008Y849440D01*
X817008Y850774D01*
X816453Y852107D01*
X815342Y852774D01*
X814230Y852774D01*
X813119Y852107D01*
X812564Y850774D01*
X812564Y849440D01*
X812008Y848107D01*
X810897Y847440D01*
X809786Y847440D01*
X808675Y848107D01*
X808119Y849440D01*
X808119Y850774D01*
X808675Y852107D01*
X809786Y852774D01*
G54D10*
X817008Y858551D02*
X808119Y858551D01*
G54D10*
X808119Y855884D02*
X808119Y861218D01*
G54D10*
X817008Y868995D02*
X817008Y864328D01*
X808119Y864328D01*
X808119Y868995D01*
G54D10*
X812564Y864328D02*
X812564Y868995D01*
G54D10*
X812564Y874773D02*
X813675Y876773D01*
X814786Y877440D01*
X817008Y877440D01*
G54D10*
X817008Y872106D02*
X808119Y872106D01*
X808119Y875440D01*
X808675Y876773D01*
X809786Y877440D01*
X810897Y877440D01*
X812008Y876773D01*
X812564Y875440D01*
X812564Y872106D01*
G54D10*
X815342Y880550D02*
X816453Y881217D01*
X817008Y882550D01*
X817008Y883884D01*
X816453Y885217D01*
X815342Y885884D01*
X814230Y885884D01*
X813119Y885217D01*
X812564Y883884D01*
X812564Y882550D01*
X812008Y881217D01*
X810897Y880550D01*
X809786Y880550D01*
X808675Y881217D01*
X808119Y882550D01*
X808119Y883884D01*
X808675Y885217D01*
X809786Y885884D01*
G54D10*
X817008Y896905D02*
X817008Y892238D01*
X808119Y892238D01*
X808119Y896905D01*
G54D10*
X812564Y892238D02*
X812564Y896905D01*
G54D10*
X808119Y900016D02*
X817008Y906683D01*
G54D10*
X817008Y900016D02*
X808119Y906683D01*
G54D10*
X817008Y912461D02*
X808119Y912461D01*
G54D10*
X808119Y909794D02*
X808119Y915128D01*
G54D10*
X595019Y974865D02*
X598575Y974865D01*
G54D10*
X604886Y979865D02*
X604886Y970976D01*
X607108Y976531D01*
X609330Y970976D01*
X609330Y979865D01*
G54D10*
X612441Y972642D02*
X612885Y971531D01*
X613774Y970976D01*
X614663Y970976D01*
X615552Y971531D01*
X615997Y972642D01*
X615997Y973754D01*
X615552Y974865D01*
X614663Y975420D01*
X613774Y975420D01*
X612885Y975976D01*
X612441Y977087D01*
X612441Y978198D01*
X612885Y979309D01*
X613774Y979865D01*
X614663Y979865D01*
X615552Y979309D01*
X615997Y978198D01*
G54D10*
X622664Y970976D02*
X619108Y970976D01*
X619108Y971531D01*
X619552Y972642D01*
X622219Y975976D01*
X622664Y977087D01*
X622664Y978198D01*
X622219Y979309D01*
X621330Y979865D01*
X620441Y979865D01*
X619552Y979309D01*
X619108Y978198D01*
G54D10*
X627997Y975420D02*
X627108Y975420D01*
X626219Y975976D01*
X625775Y977087D01*
X625775Y978198D01*
X626219Y979309D01*
X627108Y979865D01*
X627997Y979865D01*
X628886Y979309D01*
X629331Y978198D01*
X629331Y977087D01*
X628886Y975976D01*
X627997Y975420D01*
X628886Y974865D01*
X629331Y973754D01*
X629331Y972642D01*
X628886Y971531D01*
X627997Y970976D01*
X627108Y970976D01*
X626219Y971531D01*
X625775Y972642D01*
X625775Y973754D01*
X626219Y974865D01*
X627108Y975420D01*
G54D10*
X632442Y976531D02*
X634664Y979865D01*
X634664Y970976D01*
G54D10*
X641331Y970976D02*
X637775Y970976D01*
X637775Y971531D01*
X638219Y972642D01*
X640886Y975976D01*
X641331Y977087D01*
X641331Y978198D01*
X640886Y979309D01*
X639997Y979865D01*
X639108Y979865D01*
X638219Y979309D01*
X637775Y978198D01*
G54D10*
X647642Y974865D02*
X651198Y974865D01*
G54D10*
X649420Y977087D02*
X649420Y972642D01*
G54D10*
X874662Y494498D02*
X874662Y503387D01*
X877996Y497831D01*
X881329Y503387D01*
X881329Y494498D01*
G54D10*
X884440Y501720D02*
X885107Y502831D01*
X886440Y503387D01*
X887774Y503387D01*
X889107Y502831D01*
X889774Y501720D01*
X889774Y500609D01*
X889107Y499498D01*
X887774Y498942D01*
X889107Y498387D01*
X889774Y497276D01*
X889774Y496165D01*
X889107Y495054D01*
X887774Y494498D01*
X886440Y494498D01*
X885107Y495054D01*
X884440Y496165D01*
G54D14*
G75*
G01X109730Y918770D02*
G03X109730Y893470I0J-12650D01*
G01*
G54D14*
G75*
G01X131955Y918770D02*
G03X131955Y893470I0J-12650D01*
G01*
G54D14*
X119255Y906120D02*
X128780Y906120D01*
G54D12*
G75*
G01X291927Y824951D02*
G03X291927Y824951I-750J0D01*
G01*
G54D12*
G75*
G01X294327Y824951D02*
G03X294327Y824951I-3150J0D01*
G01*
G54D12*
X288002Y824951D02*
X275302Y824951D01*
X272127Y856701D01*
X293558Y856701D01*
X291176Y828126D01*
G54D12*
X276889Y824951D02*
X276889Y821776D01*
X279270Y821776D01*
X279270Y824951D01*
G54D12*
X293558Y849557D02*
X295145Y849557D01*
X295145Y846382D01*
X292764Y846382D01*
G54D15*
G75*
G01X293392Y856796D02*
G03X272260Y856796I-10566J-16270D01*
G01*
G54D12*
X280064Y859876D02*
X280064Y861463D01*
X285620Y861463D01*
X285620Y859876D01*
G54D12*
X274508Y858288D02*
X274508Y861463D01*
X276095Y861463D01*
X276095Y859082D01*
G54D12*
X280858Y846382D02*
X280858Y847970D01*
X285620Y847970D01*
X285620Y846382D01*
X280858Y846382D01*
G54D12*
X267364Y858288D02*
X299114Y823363D01*
G54D12*
X267364Y823363D02*
X299114Y858288D01*
G54D10*
X828731Y512180D02*
X831397Y512180D01*
X831397Y509403D01*
X830731Y508292D01*
X829397Y507736D01*
X828064Y507736D01*
X826731Y508292D01*
X826064Y509403D01*
X826064Y514958D01*
X826731Y516069D01*
X828064Y516625D01*
X829397Y516625D01*
X830731Y516069D01*
X831397Y514958D01*
G54D10*
X834508Y507736D02*
X834508Y516625D01*
X839841Y507736D01*
X839841Y516625D01*
G54D10*
X842952Y507736D02*
X842952Y516625D01*
X846285Y516625D01*
X847619Y516069D01*
X848285Y514958D01*
X848285Y509403D01*
X847619Y508292D01*
X846285Y507736D01*
X842952Y507736D01*
G54D10*
X104831Y512180D02*
X107497Y512180D01*
X107497Y509403D01*
X106831Y508292D01*
X105497Y507736D01*
X104164Y507736D01*
X102831Y508292D01*
X102164Y509403D01*
X102164Y514958D01*
X102831Y516069D01*
X104164Y516625D01*
X105497Y516625D01*
X106831Y516069D01*
X107497Y514958D01*
G54D10*
X110608Y507736D02*
X110608Y516625D01*
X115941Y507736D01*
X115941Y516625D01*
G54D10*
X119052Y507736D02*
X119052Y516625D01*
X122385Y516625D01*
X123719Y516069D01*
X124385Y514958D01*
X124385Y509403D01*
X123719Y508292D01*
X122385Y507736D01*
X119052Y507736D01*
G54D10*
X917644Y833505D02*
X919867Y824616D01*
X922089Y833505D01*
G54D10*
X928755Y826282D02*
X928310Y825171D01*
X927422Y824616D01*
X926533Y824616D01*
X925644Y825171D01*
X925199Y826282D01*
X925199Y831838D01*
X925644Y832949D01*
X926533Y833505D01*
X927422Y833505D01*
X928310Y832949D01*
X928755Y831838D01*
G54D10*
X935422Y826282D02*
X934978Y825171D01*
X934089Y824616D01*
X933200Y824616D01*
X932311Y825171D01*
X931866Y826282D01*
X931866Y831838D01*
X932311Y832949D01*
X933200Y833505D01*
X934089Y833505D01*
X934978Y832949D01*
X935422Y831838D01*
G54D16*
X564584Y949713D02*
X569917Y949713D01*
G54D16*
X564584Y898913D02*
X569917Y898913D01*
G54D16*
X567250Y902246D02*
X567250Y895579D01*
G54D16*
X564584Y848113D02*
X569917Y848113D01*
G54D16*
X564584Y797313D02*
X569917Y797313D01*
G54D16*
X567250Y800646D02*
X567250Y793979D01*
G54D10*
X487898Y880856D02*
X492342Y871967D01*
G54D10*
X487898Y871967D02*
X492342Y880856D01*
G54D10*
X499986Y880856D02*
X499097Y880300D01*
X498653Y879189D01*
X498653Y873633D01*
X499097Y872522D01*
X499986Y871967D01*
G54D10*
X503097Y871967D02*
X505319Y880856D01*
X507541Y871967D01*
G54D10*
X503985Y875300D02*
X506652Y875300D01*
G54D10*
X514207Y879189D02*
X514207Y873633D01*
X513763Y872522D01*
X512874Y871967D01*
X511985Y871967D01*
X511096Y872522D01*
X510652Y873633D01*
X510652Y879189D01*
X511096Y880300D01*
X511985Y880856D01*
X512874Y880856D01*
X513763Y880300D01*
X514207Y879189D01*
G54D10*
X517319Y880856D02*
X518207Y880300D01*
X518652Y879189D01*
X518652Y873633D01*
X518207Y872522D01*
X517319Y871967D01*
G54D10*
X532431Y880746D02*
X534653Y876302D01*
X534653Y871857D01*
G54D10*
X534653Y876302D02*
X536876Y880746D01*
G54D10*
X544519Y880746D02*
X543630Y880190D01*
X543186Y879079D01*
X543186Y873524D01*
X543630Y872413D01*
X544519Y871857D01*
G54D10*
X547630Y871857D02*
X549852Y880746D01*
X552074Y871857D01*
G54D10*
X548519Y875190D02*
X551186Y875190D01*
G54D10*
X555185Y877413D02*
X557407Y880746D01*
X557407Y871857D01*
G54D10*
X560518Y880746D02*
X561407Y880190D01*
X561851Y879079D01*
X561851Y873524D01*
X561407Y872413D01*
X560518Y871857D01*
G54D10*
X489883Y781819D02*
X493438Y781819D01*
X489883Y772930D01*
X493438Y772930D01*
G54D10*
X525790Y772611D02*
X525790Y777611D01*
G54D10*
X525790Y776500D02*
X526678Y777611D01*
X527567Y777611D01*
G54D10*
X530679Y781500D02*
X535123Y772611D01*
G54D10*
X530679Y772611D02*
X535123Y781500D01*
G54D17*
X675494Y963590D02*
X679494Y961368D01*
X680827Y959146D01*
X680827Y954702D01*
G54D17*
X670160Y954702D02*
X670160Y972479D01*
X676827Y972479D01*
X679494Y971368D01*
X680827Y969146D01*
X680827Y966924D01*
X679494Y964702D01*
X676827Y963590D01*
X670160Y963590D01*
G54D17*
X692383Y963590D02*
X697716Y963590D01*
X697716Y958035D01*
X696383Y955813D01*
X693716Y954702D01*
X691049Y954702D01*
X688383Y955813D01*
X687049Y958035D01*
X687049Y969146D01*
X688383Y971368D01*
X691049Y972479D01*
X693716Y972479D01*
X696383Y971368D01*
X697716Y969146D01*
G54D17*
X721094Y958035D02*
X719761Y955813D01*
X717094Y954702D01*
X714427Y954702D01*
X711761Y955813D01*
X710427Y958035D01*
X710427Y969146D01*
X711761Y971368D01*
X714427Y972479D01*
X717094Y972479D01*
X719761Y971368D01*
X721094Y969146D01*
G54D17*
X727316Y972479D02*
X727316Y958035D01*
X728650Y955813D01*
X731316Y954702D01*
X733983Y954702D01*
X736650Y955813D01*
X737983Y958035D01*
X737983Y972479D01*
G54D17*
X744205Y958035D02*
X745539Y955813D01*
X748205Y954702D01*
X750872Y954702D01*
X753539Y955813D01*
X754872Y958035D01*
X754872Y960257D01*
X753539Y962479D01*
X750872Y963590D01*
X748205Y963590D01*
X745539Y964702D01*
X744205Y966924D01*
X744205Y969146D01*
X745539Y971368D01*
X748205Y972479D01*
X750872Y972479D01*
X753539Y971368D01*
X754872Y969146D01*
G54D17*
X766428Y954702D02*
X766428Y972479D01*
G54D17*
X761094Y972479D02*
X771761Y972479D01*
G54D17*
X788650Y969146D02*
X788650Y958035D01*
X787317Y955813D01*
X784650Y954702D01*
X781983Y954702D01*
X779317Y955813D01*
X777983Y958035D01*
X777983Y969146D01*
X779317Y971368D01*
X781983Y972479D01*
X784650Y972479D01*
X787317Y971368D01*
X788650Y969146D01*
G54D17*
X794872Y954702D02*
X794872Y972479D01*
X801539Y961368D01*
X808206Y972479D01*
X808206Y954702D01*
G54D17*
X820916Y964702D02*
X826250Y954702D01*
X831583Y964702D01*
G54D17*
X848472Y954702D02*
X837805Y954702D01*
X837805Y955813D01*
X839139Y958035D01*
X847139Y964702D01*
X848472Y966924D01*
X848472Y969146D01*
X847139Y971368D01*
X844472Y972479D01*
X841805Y972479D01*
X839139Y971368D01*
X837805Y969146D01*
G54D17*
X855761Y954702D02*
X854694Y954702D01*
X854694Y955590D01*
X855761Y955590D01*
X855761Y954702D01*
X854694Y954702D01*
G54D17*
X872650Y972479D02*
X861983Y972479D01*
X861983Y964702D01*
X863317Y964702D01*
X865983Y965813D01*
X868650Y965813D01*
X871317Y964702D01*
X872650Y962479D01*
X872650Y958035D01*
X871317Y955813D01*
X868650Y954702D01*
X865983Y954702D01*
X863317Y955813D01*
X861983Y958035D01*
G54D18*
X669308Y944526D02*
X671908Y938026D01*
X674508Y944526D01*
X677108Y938026D01*
X678841Y944526D01*
G54D18*
X682884Y944526D02*
X685484Y938026D01*
X688084Y944526D01*
X690684Y938026D01*
X692418Y944526D01*
G54D18*
X696462Y944526D02*
X699062Y938026D01*
X701662Y944526D01*
X704262Y938026D01*
X705995Y944526D01*
G54D18*
X710732Y938026D02*
X710038Y938026D01*
X710038Y938603D01*
X710732Y938603D01*
X710732Y938026D01*
X710038Y938026D01*
G54D18*
X714776Y938026D02*
X714776Y944526D01*
G54D18*
X714776Y943081D02*
X716509Y944526D01*
X718242Y944526D01*
G54D18*
X727486Y938748D02*
X726100Y938026D01*
X724366Y938026D01*
X722633Y938748D01*
X722286Y940192D01*
X722286Y942648D01*
X723153Y944092D01*
X724886Y944526D01*
X726620Y944092D01*
X727486Y943081D01*
X727486Y941637D01*
X722286Y941637D01*
G54D18*
X731530Y938026D02*
X731530Y944526D01*
G54D18*
X731530Y943081D02*
X732397Y944092D01*
X734130Y944526D01*
X735864Y944092D01*
X736730Y943081D01*
X736730Y938026D01*
G54D18*
X745974Y938026D02*
X745974Y949581D01*
G54D18*
X745974Y942648D02*
X745108Y944092D01*
X743374Y944526D01*
X741641Y944092D01*
X740774Y942648D01*
X740774Y939759D01*
X741641Y938314D01*
X743374Y938026D01*
X745108Y938314D01*
X745974Y939759D01*
G54D18*
X755218Y938748D02*
X753832Y938026D01*
X752098Y938026D01*
X750365Y938748D01*
X750018Y940192D01*
X750018Y942648D01*
X750885Y944092D01*
X752618Y944526D01*
X754352Y944092D01*
X755218Y943081D01*
X755218Y941637D01*
X750018Y941637D01*
G54D18*
X759262Y938026D02*
X759262Y944526D01*
G54D18*
X759262Y943081D02*
X760996Y944526D01*
X762729Y944526D01*
G54D18*
X766774Y935859D02*
X768507Y935137D01*
X769720Y935137D01*
X771454Y935859D01*
X771974Y937303D01*
X771974Y944526D01*
G54D18*
X771974Y942648D02*
X771107Y944092D01*
X769374Y944526D01*
X767640Y944092D01*
X766774Y942648D01*
X766774Y939759D01*
X767640Y938314D01*
X769374Y938026D01*
X771107Y938314D01*
X771974Y939759D01*
G54D18*
X776711Y938026D02*
X776018Y938026D01*
X776018Y938603D01*
X776711Y938603D01*
X776711Y938026D01*
X776018Y938026D01*
G54D18*
X780754Y938026D02*
X780754Y944526D01*
G54D18*
X780754Y943081D02*
X782488Y944526D01*
X784221Y944526D01*
G54D18*
X793466Y944526D02*
X793466Y938026D01*
G54D18*
X793466Y939470D02*
X792599Y938314D01*
X790866Y938026D01*
X789132Y938314D01*
X788266Y939470D01*
X788266Y944526D01*
G54D18*
X797510Y938026D02*
X804443Y949581D01*
G54D18*
X808486Y938026D02*
X808486Y944526D01*
G54D18*
X808486Y943081D02*
X810220Y944526D01*
X811953Y944526D01*
G54D18*
X815998Y935859D02*
X817731Y935137D01*
X818944Y935137D01*
X820678Y935859D01*
X821197Y937303D01*
X821197Y944526D01*
G54D18*
X821197Y942648D02*
X820331Y944092D01*
X818597Y944526D01*
X816864Y944092D01*
X815998Y942648D01*
X815998Y939759D01*
X816864Y938314D01*
X818597Y938026D01*
X820331Y938314D01*
X821197Y939759D01*
G54D18*
X829575Y944092D02*
X827841Y944526D01*
X826108Y944092D01*
X825241Y942648D01*
X825241Y939759D01*
X826108Y938314D01*
X827841Y938026D01*
X829575Y938314D01*
G54D18*
X838818Y944526D02*
X838818Y938026D01*
G54D18*
X838818Y939470D02*
X837952Y938314D01*
X836218Y938026D01*
X834485Y938314D01*
X833618Y939470D01*
X833618Y944526D01*
G54D18*
X842862Y938748D02*
X844596Y938026D01*
X846329Y938026D01*
X848062Y938748D01*
X848062Y940192D01*
X847196Y940914D01*
X843729Y941637D01*
X842862Y942359D01*
X842862Y943803D01*
X844596Y944526D01*
X846329Y944526D01*
X848062Y943803D01*
G54D18*
X853840Y949581D02*
X853840Y938748D01*
X854706Y938026D01*
X855573Y938314D01*
G54D18*
X852106Y944526D02*
X855573Y944526D01*
G54D18*
X864817Y939759D02*
X864817Y942648D01*
X863951Y944092D01*
X862217Y944526D01*
X860484Y944092D01*
X859617Y942648D01*
X859617Y939759D01*
X860484Y938314D01*
X862217Y938026D01*
X863951Y938314D01*
X864817Y939759D01*
G54D18*
X868861Y938026D02*
X868861Y944526D01*
G54D18*
X868861Y943370D02*
X870595Y944526D01*
X872328Y944092D01*
X873195Y943081D01*
X873195Y938026D01*
G54D18*
X873195Y943370D02*
X874928Y944526D01*
X876661Y944092D01*
X877528Y943081D01*
X877528Y938026D01*
G54D10*
X491873Y971598D02*
X494095Y980487D01*
X496318Y971598D01*
G54D10*
X492762Y974932D02*
X495429Y974932D01*
G54D10*
X499428Y980487D02*
X503873Y971598D01*
G54D10*
X499428Y971598D02*
X503873Y980487D01*
G54D10*
X506983Y971598D02*
X510539Y971598D01*
G54D10*
X508761Y971598D02*
X508761Y980487D01*
G54D10*
X506983Y980487D02*
X510539Y980487D01*
G54D10*
X513650Y973265D02*
X514095Y972154D01*
X514984Y971598D01*
X515872Y971598D01*
X516761Y972154D01*
X517206Y973265D01*
X517206Y974376D01*
X516761Y975487D01*
X515872Y976043D01*
X514984Y976043D01*
X514095Y976598D01*
X513650Y977710D01*
X513650Y978821D01*
X514095Y979932D01*
X514984Y980487D01*
X515872Y980487D01*
X516761Y979932D01*
X517206Y978821D01*
G54D10*
X523517Y971598D02*
X527073Y971598D01*
G54D10*
X525295Y971598D02*
X525295Y980487D01*
G54D10*
X523517Y980487D02*
X527073Y980487D01*
G54D10*
X530184Y971598D02*
X530184Y980487D01*
X533740Y971598D01*
X533740Y980487D01*
G54D10*
X536851Y971598D02*
X536851Y980487D01*
X539074Y980487D01*
X539962Y979932D01*
X540407Y978821D01*
X540407Y977710D01*
X539962Y976598D01*
X539074Y976043D01*
X536851Y976043D01*
G54D10*
X543518Y980487D02*
X543518Y973265D01*
X543963Y972154D01*
X544852Y971598D01*
X545740Y971598D01*
X546629Y972154D01*
X547074Y973265D01*
X547074Y980487D01*
G54D10*
X551963Y971598D02*
X551963Y980487D01*
G54D10*
X550185Y980487D02*
X553741Y980487D01*
G54D10*
X556852Y973265D02*
X557297Y972154D01*
X558186Y971598D01*
X559074Y971598D01*
X559963Y972154D01*
X560408Y973265D01*
X560408Y974376D01*
X559963Y975487D01*
X559074Y976043D01*
X558186Y976043D01*
X557297Y976598D01*
X556852Y977710D01*
X556852Y978821D01*
X557297Y979932D01*
X558186Y980487D01*
X559074Y980487D01*
X559963Y979932D01*
X560408Y978821D01*
G54D10*
X346253Y980209D02*
X340920Y980209D01*
X340920Y976320D01*
X341586Y976320D01*
X342920Y976876D01*
X344253Y976876D01*
X345586Y976320D01*
X346253Y975209D01*
X346253Y972987D01*
X345586Y971876D01*
X344253Y971320D01*
X342920Y971320D01*
X341586Y971876D01*
X340920Y972987D01*
G54D10*
X370917Y978543D02*
X370250Y979654D01*
X368917Y980209D01*
X367584Y980209D01*
X366250Y979654D01*
X365584Y978543D01*
X365584Y975765D01*
X365584Y975209D01*
X367584Y976320D01*
X368917Y976320D01*
X370250Y975765D01*
X370917Y974654D01*
X370917Y972987D01*
X370250Y971876D01*
X368917Y971320D01*
X367584Y971320D01*
X366250Y971876D01*
X365584Y972987D01*
X365584Y975765D01*
G54D10*
X393492Y980209D02*
X398825Y980209D01*
X398158Y979098D01*
X396825Y977432D01*
X395492Y975209D01*
X394825Y973543D01*
X394825Y971320D01*
G54D10*
X418245Y975765D02*
X416912Y975765D01*
X415578Y976320D01*
X414912Y977432D01*
X414912Y978543D01*
X415578Y979654D01*
X416912Y980209D01*
X418245Y980209D01*
X419578Y979654D01*
X420245Y978543D01*
X420245Y977432D01*
X419578Y976320D01*
X418245Y975765D01*
X419578Y975209D01*
X420245Y974098D01*
X420245Y972987D01*
X419578Y971876D01*
X418245Y971320D01*
X416912Y971320D01*
X415578Y971876D01*
X414912Y972987D01*
X414912Y974098D01*
X415578Y975209D01*
X416912Y975765D01*
G54D10*
X436332Y976876D02*
X439665Y980209D01*
X439665Y971320D01*
G54D10*
X448109Y978543D02*
X448109Y972987D01*
X447442Y971876D01*
X446109Y971320D01*
X444776Y971320D01*
X443442Y971876D01*
X442776Y972987D01*
X442776Y978543D01*
X443442Y979654D01*
X444776Y980209D01*
X446109Y980209D01*
X447442Y979654D01*
X448109Y978543D01*
G54D10*
X464196Y976876D02*
X467529Y980209D01*
X467529Y971320D01*
G54D10*
X475973Y978543D02*
X475306Y979654D01*
X473973Y980209D01*
X472640Y980209D01*
X471306Y979654D01*
X470640Y978543D01*
X470640Y975765D01*
X470640Y975209D01*
X472640Y976320D01*
X473973Y976320D01*
X475306Y975765D01*
X475973Y974654D01*
X475973Y972987D01*
X475306Y971876D01*
X473973Y971320D01*
X472640Y971320D01*
X471306Y971876D01*
X470640Y972987D01*
X470640Y975765D01*
G54D10*
X273269Y972766D02*
X273713Y971654D01*
X274602Y971099D01*
X275491Y971099D01*
X276380Y971654D01*
X276824Y972766D01*
X276824Y973877D01*
X276380Y974988D01*
X275491Y975543D01*
X274602Y975543D01*
X273713Y976099D01*
X273269Y977210D01*
X273269Y978321D01*
X273713Y979432D01*
X274602Y979988D01*
X275491Y979988D01*
X276380Y979432D01*
X276824Y978321D01*
G54D10*
X279936Y971099D02*
X279936Y979988D01*
X282158Y979988D01*
X283047Y979432D01*
X283491Y978321D01*
X283491Y972766D01*
X283047Y971654D01*
X282158Y971099D01*
X279936Y971099D01*
G54D10*
X286603Y971099D02*
X288825Y979988D01*
X291047Y971099D01*
G54D10*
X287492Y974432D02*
X290158Y974432D01*
G54D10*
X298598Y972766D02*
X299043Y971654D01*
X299932Y971099D01*
X300820Y971099D01*
X301709Y971654D01*
X302154Y972766D01*
X302154Y973877D01*
X301709Y974988D01*
X300820Y975543D01*
X299932Y975543D01*
X299043Y976099D01*
X298598Y977210D01*
X298598Y978321D01*
X299043Y979432D01*
X299932Y979988D01*
X300820Y979988D01*
X301709Y979432D01*
X302154Y978321D01*
G54D10*
X308821Y972766D02*
X308376Y971654D01*
X307487Y971099D01*
X306598Y971099D01*
X305710Y971654D01*
X305265Y972766D01*
X305265Y978321D01*
X305710Y979432D01*
X306598Y979988D01*
X307487Y979988D01*
X308376Y979432D01*
X308821Y978321D01*
G54D10*
X311932Y979988D02*
X311932Y971099D01*
X315043Y971099D01*
G54D10*
X224203Y975543D02*
X225981Y975543D01*
X225981Y972766D01*
X225537Y971654D01*
X224648Y971099D01*
X223759Y971099D01*
X222870Y971654D01*
X222426Y972766D01*
X222426Y978321D01*
X222870Y979432D01*
X223759Y979988D01*
X224648Y979988D01*
X225537Y979432D01*
X225981Y978321D01*
G54D10*
X229093Y971099D02*
X229093Y979988D01*
X232648Y971099D01*
X232648Y979988D01*
G54D10*
X235760Y971099D02*
X235760Y979988D01*
X237982Y979988D01*
X238871Y979432D01*
X239315Y978321D01*
X239315Y972766D01*
X238871Y971654D01*
X237982Y971099D01*
X235760Y971099D01*
G54D10*
X247869Y979988D02*
X250091Y971099D01*
X252314Y979988D01*
G54D10*
X258980Y972766D02*
X258535Y971654D01*
X257646Y971099D01*
X256757Y971099D01*
X255869Y971654D01*
X255424Y972766D01*
X255424Y978321D01*
X255869Y979432D01*
X256757Y979988D01*
X257646Y979988D01*
X258535Y979432D01*
X258980Y978321D01*
G54D10*
X265647Y972766D02*
X265202Y971654D01*
X264313Y971099D01*
X263424Y971099D01*
X262536Y971654D01*
X262091Y972766D01*
X262091Y978321D01*
X262536Y979432D01*
X263424Y979988D01*
X264313Y979988D01*
X265202Y979432D01*
X265647Y978321D01*
G54D10*
X283684Y935558D02*
X283684Y932002D01*
X283128Y932002D01*
X282017Y932447D01*
X278684Y935114D01*
X277573Y935558D01*
X276462Y935558D01*
X275350Y935114D01*
X274795Y934225D01*
X274795Y933336D01*
X275350Y932447D01*
X276462Y932002D01*
G54D10*
X301862Y932005D02*
X300750Y932449D01*
X300195Y933338D01*
X300195Y934227D01*
X300750Y935116D01*
X301862Y935561D01*
X302973Y935561D01*
X304084Y935116D01*
X304639Y934227D01*
X305195Y935116D01*
X306306Y935561D01*
X307417Y935561D01*
X308528Y935116D01*
X309084Y934227D01*
X309084Y933338D01*
X308528Y932449D01*
X307417Y932005D01*
G54D10*
X122603Y975543D02*
X124381Y975543D01*
X124381Y972766D01*
X123937Y971654D01*
X123048Y971099D01*
X122159Y971099D01*
X121270Y971654D01*
X120826Y972766D01*
X120826Y978321D01*
X121270Y979432D01*
X122159Y979988D01*
X123048Y979988D01*
X123937Y979432D01*
X124381Y978321D01*
G54D10*
X127493Y971099D02*
X127493Y979988D01*
X131048Y971099D01*
X131048Y979988D01*
G54D10*
X134160Y971099D02*
X134160Y979988D01*
X136382Y979988D01*
X137271Y979432D01*
X137715Y978321D01*
X137715Y972766D01*
X137271Y971654D01*
X136382Y971099D01*
X134160Y971099D01*
G54D10*
X92254Y974988D02*
X95809Y974988D01*
G54D10*
X94031Y977210D02*
X94031Y972766D01*
G54D10*
X102476Y979988D02*
X98921Y979988D01*
X98921Y976099D01*
X99365Y976099D01*
X100254Y976654D01*
X101143Y976654D01*
X102032Y976099D01*
X102476Y974988D01*
X102476Y972766D01*
X102032Y971654D01*
X101143Y971099D01*
X100254Y971099D01*
X99365Y971654D01*
X98921Y972766D01*
G54D10*
X105588Y976099D02*
X107365Y971099D01*
X109143Y976099D01*
G54D10*
X164826Y975912D02*
X166160Y974801D01*
X166604Y973690D01*
X166604Y971468D01*
G54D10*
X163048Y971468D02*
X163048Y980357D01*
X165271Y980357D01*
X166160Y979801D01*
X166604Y978690D01*
X166604Y977579D01*
X166160Y976468D01*
X165271Y975912D01*
X163048Y975912D01*
G54D10*
X172827Y971468D02*
X169716Y971468D01*
X169716Y980357D01*
X172827Y980357D01*
G54D10*
X169716Y975912D02*
X172827Y975912D01*
G54D10*
X175938Y973134D02*
X176382Y972023D01*
X177271Y971468D01*
X178160Y971468D01*
X179049Y972023D01*
X179493Y973134D01*
X179493Y974245D01*
X179049Y975357D01*
X178160Y975912D01*
X177271Y975912D01*
X176382Y976468D01*
X175938Y977579D01*
X175938Y978690D01*
X176382Y979801D01*
X177271Y980357D01*
X178160Y980357D01*
X179049Y979801D01*
X179493Y978690D01*
G54D10*
X185716Y971468D02*
X182604Y971468D01*
X182604Y980357D01*
X185716Y980357D01*
G54D10*
X182604Y975912D02*
X185716Y975912D01*
G54D10*
X190604Y971468D02*
X190604Y980357D01*
G54D10*
X188826Y980357D02*
X192382Y980357D01*
G54D12*
X889000Y774700D02*
X889000Y800100D01*
X939800Y800100D01*
X939800Y774700D01*
X889000Y774700D01*
G54D10*
X896013Y809663D02*
X901346Y809663D01*
G54D10*
X898679Y811885D02*
X898679Y807441D01*
G54D10*
X907701Y805774D02*
X907701Y814663D01*
G54D10*
X914812Y806330D02*
X913745Y805774D01*
X912412Y805774D01*
X911078Y806330D01*
X910812Y807441D01*
X910812Y809330D01*
X911478Y810441D01*
X912812Y810774D01*
X914145Y810441D01*
X914812Y809663D01*
X914812Y808552D01*
X910812Y808552D01*
G54D10*
X921923Y805774D02*
X921923Y814663D01*
G54D10*
X921923Y809330D02*
X921256Y810441D01*
X919923Y810774D01*
X918589Y810441D01*
X917923Y809330D01*
X917923Y807107D01*
X918589Y805996D01*
X919923Y805774D01*
X921256Y805996D01*
X921923Y807107D01*
G54D10*
X928278Y809663D02*
X933611Y809663D01*
G54D13*
X901700Y892175D02*
X901700Y882650D01*
G54D13*
X911225Y882650D02*
X911225Y844550D01*
X892175Y844550D01*
X892175Y882650D01*
X911225Y882650D01*
G54D13*
X901700Y844550D02*
X901700Y835025D01*
G54D10*
X901799Y867595D02*
X900688Y865595D01*
X899577Y864928D01*
X897355Y864928D01*
G54D10*
X897355Y870261D02*
X906244Y870261D01*
X906244Y866928D01*
X905688Y865595D01*
X904577Y864928D01*
X903466Y864928D01*
X902355Y865595D01*
X901799Y866928D01*
X901799Y870261D01*
G54D10*
X902911Y861817D02*
X906244Y858484D01*
X897355Y858484D01*
G54D10*
X498459Y781764D02*
X497570Y781208D01*
X497125Y780097D01*
X497125Y774541D01*
X497570Y773430D01*
X498459Y772875D01*
G54D10*
X501569Y772875D02*
X503792Y781764D01*
X506014Y772875D01*
G54D10*
X502458Y776208D02*
X505125Y776208D01*
G54D10*
X512680Y772875D02*
X509124Y772875D01*
X509124Y773430D01*
X509569Y774541D01*
X512236Y777875D01*
X512680Y778986D01*
X512680Y780097D01*
X512236Y781208D01*
X511347Y781764D01*
X510458Y781764D01*
X509569Y781208D01*
X509124Y780097D01*
G54D10*
X515791Y781764D02*
X516680Y781208D01*
X517125Y780097D01*
X517125Y774541D01*
X516680Y773430D01*
X515791Y772875D01*
G54D10*
X540875Y781524D02*
X539986Y780968D01*
X539542Y779857D01*
X539542Y774301D01*
X539986Y773190D01*
X540875Y772635D01*
G54D10*
X543986Y772635D02*
X546208Y781524D01*
X548430Y772635D01*
G54D10*
X544874Y775968D02*
X547541Y775968D01*
G54D10*
X551540Y779857D02*
X551985Y780968D01*
X552874Y781524D01*
X553763Y781524D01*
X554652Y780968D01*
X555096Y779857D01*
X555096Y778746D01*
X554652Y777635D01*
X553763Y777079D01*
X554652Y776524D01*
X555096Y775412D01*
X555096Y774301D01*
X554652Y773190D01*
X553763Y772635D01*
X552874Y772635D01*
X551985Y773190D01*
X551540Y774301D01*
G54D10*
X558208Y781524D02*
X559096Y780968D01*
X559541Y779857D01*
X559541Y774301D01*
X559096Y773190D01*
X558208Y772635D01*
G54D10*
X532093Y757041D02*
X534093Y755930D01*
X534759Y754819D01*
X534759Y752597D01*
G54D10*
X529426Y752597D02*
X529426Y761486D01*
X532759Y761486D01*
X534093Y760930D01*
X534759Y759819D01*
X534759Y758708D01*
X534093Y757597D01*
X532759Y757041D01*
X529426Y757041D01*
G54D10*
X537870Y758152D02*
X541203Y761486D01*
X541203Y752597D01*
G54D10*
X549647Y759819D02*
X549647Y754263D01*
X548981Y753152D01*
X547647Y752597D01*
X546314Y752597D01*
X544981Y753152D01*
X544314Y754263D01*
X544314Y759819D01*
X544981Y760930D01*
X546314Y761486D01*
X547647Y761486D01*
X548981Y760930D01*
X549647Y759819D01*
G54D10*
X552758Y752597D02*
X552758Y761486D01*
G54D10*
X554758Y755930D02*
X556758Y752597D01*
G54D10*
X552758Y754819D02*
X556758Y757597D01*
G54D10*
X723639Y587478D02*
X724750Y589478D01*
X725861Y590145D01*
X728083Y590145D01*
G54D10*
X728083Y584812D02*
X719194Y584812D01*
X719194Y588145D01*
X719750Y589478D01*
X720861Y590145D01*
X721972Y590145D01*
X723083Y589478D01*
X723639Y588145D01*
X723639Y584812D01*
G54D10*
X722527Y593256D02*
X719194Y596589D01*
X728083Y596589D01*
G54D10*
X720861Y605033D02*
X726416Y605033D01*
X727527Y604366D01*
X728083Y603033D01*
X728083Y601700D01*
X727527Y600366D01*
X726416Y599700D01*
X720861Y599700D01*
X719750Y600366D01*
X719194Y601700D01*
X719194Y603033D01*
X719750Y604366D01*
X720861Y605033D01*
G54D10*
X728083Y608144D02*
X719194Y608144D01*
G54D10*
X724750Y610144D02*
X728083Y612144D01*
G54D10*
X725861Y608144D02*
X723083Y612144D01*
G54D10*
X495039Y587478D02*
X496150Y589478D01*
X497261Y590145D01*
X499483Y590145D01*
G54D10*
X499483Y584812D02*
X490594Y584812D01*
X490594Y588145D01*
X491150Y589478D01*
X492261Y590145D01*
X493372Y590145D01*
X494483Y589478D01*
X495039Y588145D01*
X495039Y584812D01*
G54D10*
X493927Y593256D02*
X490594Y596589D01*
X499483Y596589D01*
G54D10*
X492261Y605033D02*
X497816Y605033D01*
X498927Y604366D01*
X499483Y603033D01*
X499483Y601700D01*
X498927Y600366D01*
X497816Y599700D01*
X492261Y599700D01*
X491150Y600366D01*
X490594Y601700D01*
X490594Y603033D01*
X491150Y604366D01*
X492261Y605033D01*
G54D10*
X499483Y608144D02*
X490594Y608144D01*
G54D10*
X496150Y610144D02*
X499483Y612144D01*
G54D10*
X497261Y608144D02*
X494483Y612144D01*
G54D10*
X266439Y587478D02*
X267550Y589478D01*
X268661Y590145D01*
X270883Y590145D01*
G54D10*
X270883Y584812D02*
X261994Y584812D01*
X261994Y588145D01*
X262550Y589478D01*
X263661Y590145D01*
X264772Y590145D01*
X265883Y589478D01*
X266439Y588145D01*
X266439Y584812D01*
G54D10*
X265327Y593256D02*
X261994Y596589D01*
X270883Y596589D01*
G54D10*
X263661Y605033D02*
X269216Y605033D01*
X270327Y604366D01*
X270883Y603033D01*
X270883Y601700D01*
X270327Y600366D01*
X269216Y599700D01*
X263661Y599700D01*
X262550Y600366D01*
X261994Y601700D01*
X261994Y603033D01*
X262550Y604366D01*
X263661Y605033D01*
G54D10*
X270883Y608144D02*
X261994Y608144D01*
G54D10*
X267550Y610144D02*
X270883Y612144D01*
G54D10*
X268661Y608144D02*
X265883Y612144D01*
G54D10*
X37839Y587478D02*
X38950Y589478D01*
X40061Y590145D01*
X42283Y590145D01*
G54D10*
X42283Y584812D02*
X33394Y584812D01*
X33394Y588145D01*
X33950Y589478D01*
X35061Y590145D01*
X36172Y590145D01*
X37283Y589478D01*
X37839Y588145D01*
X37839Y584812D01*
G54D10*
X36727Y593256D02*
X33394Y596589D01*
X42283Y596589D01*
G54D10*
X35061Y605033D02*
X40616Y605033D01*
X41727Y604366D01*
X42283Y603033D01*
X42283Y601700D01*
X41727Y600366D01*
X40616Y599700D01*
X35061Y599700D01*
X33950Y600366D01*
X33394Y601700D01*
X33394Y603033D01*
X33950Y604366D01*
X35061Y605033D01*
G54D10*
X42283Y608144D02*
X33394Y608144D01*
G54D10*
X38950Y610144D02*
X42283Y612144D01*
G54D10*
X40061Y608144D02*
X37283Y612144D01*
G54D12*
X914400Y914400D02*
X939800Y914400D01*
X939800Y838200D01*
X914400Y838200D01*
X914400Y914400D01*
G54D10*
X78271Y902778D02*
X79382Y903223D01*
X79938Y904112D01*
X79938Y905001D01*
X79382Y905889D01*
X78271Y906334D01*
X77160Y906334D01*
X76049Y905889D01*
X75493Y905001D01*
X75493Y904112D01*
X74938Y903223D01*
X73826Y902778D01*
X72715Y902778D01*
X71604Y903223D01*
X71049Y904112D01*
X71049Y905001D01*
X71604Y905889D01*
X72715Y906334D01*
G54D10*
X79938Y909445D02*
X71049Y909445D01*
G54D10*
X79938Y913001D02*
X71049Y913001D01*
G54D10*
X75493Y909445D02*
X75493Y913001D01*
G54D10*
X71049Y916112D02*
X79938Y916112D01*
X79938Y919223D01*
G54D10*
X79938Y922334D02*
X71049Y922334D01*
X71049Y924557D01*
X71604Y925445D01*
X72715Y925890D01*
X78271Y925890D01*
X79382Y925445D01*
X79938Y924557D01*
X79938Y922334D01*
G54D10*
X809035Y743154D02*
X810369Y742043D01*
X810813Y740932D01*
X810813Y738710D01*
G54D10*
X807258Y738710D02*
X807258Y747599D01*
X809480Y747599D01*
X810369Y747043D01*
X810813Y745932D01*
X810813Y744821D01*
X810369Y743710D01*
X809480Y743154D01*
X807258Y743154D01*
G54D10*
X813925Y747599D02*
X818369Y738710D01*
G54D10*
X813925Y738710D02*
X818369Y747599D01*
G54D10*
X832857Y738710D02*
X832857Y747599D01*
G54D10*
X831080Y747599D02*
X834635Y747599D01*
G54D10*
X837747Y747599D02*
X842191Y738710D01*
G54D10*
X837747Y738710D02*
X842191Y747599D01*
G54D10*
X59458Y590178D02*
X62792Y593512D01*
X62792Y584623D01*
G54D10*
X87456Y584623D02*
X82122Y584623D01*
X82122Y585178D01*
X82789Y586289D01*
X86789Y589623D01*
X87456Y590734D01*
X87456Y591845D01*
X86789Y592956D01*
X85456Y593512D01*
X84122Y593512D01*
X82789Y592956D01*
X82122Y591845D01*
G54D10*
X110030Y591845D02*
X110697Y592956D01*
X112030Y593512D01*
X113364Y593512D01*
X114697Y592956D01*
X115364Y591845D01*
X115364Y590734D01*
X114697Y589623D01*
X113364Y589067D01*
X114697Y588512D01*
X115364Y587401D01*
X115364Y586289D01*
X114697Y585178D01*
X113364Y584623D01*
X112030Y584623D01*
X110697Y585178D01*
X110030Y586289D01*
G54D10*
X141938Y584623D02*
X141938Y593512D01*
X137938Y587956D01*
X137938Y586845D01*
X143272Y586845D01*
G54D10*
X167936Y593512D02*
X162602Y593512D01*
X162602Y589623D01*
X163269Y589623D01*
X164602Y590178D01*
X165936Y590178D01*
X167269Y589623D01*
X167936Y588512D01*
X167936Y586289D01*
X167269Y585178D01*
X165936Y584623D01*
X164602Y584623D01*
X163269Y585178D01*
X162602Y586289D01*
G54D10*
X192600Y591845D02*
X191933Y592956D01*
X190600Y593512D01*
X189266Y593512D01*
X187933Y592956D01*
X187266Y591845D01*
X187266Y589067D01*
X187266Y588512D01*
X189266Y589623D01*
X190600Y589623D01*
X191933Y589067D01*
X192600Y587956D01*
X192600Y586289D01*
X191933Y585178D01*
X190600Y584623D01*
X189266Y584623D01*
X187933Y585178D01*
X187266Y586289D01*
X187266Y589067D01*
G54D10*
X211930Y593512D02*
X217264Y593512D01*
X216597Y592401D01*
X215264Y590734D01*
X213930Y588512D01*
X213264Y586845D01*
X213264Y584623D01*
G54D10*
X239928Y589067D02*
X238594Y589067D01*
X237261Y589623D01*
X236594Y590734D01*
X236594Y591845D01*
X237261Y592956D01*
X238594Y593512D01*
X239928Y593512D01*
X241261Y592956D01*
X241928Y591845D01*
X241928Y590734D01*
X241261Y589623D01*
X239928Y589067D01*
X241261Y588512D01*
X241928Y587401D01*
X241928Y586289D01*
X241261Y585178D01*
X239928Y584623D01*
X238594Y584623D01*
X237261Y585178D01*
X236594Y586289D01*
X236594Y587401D01*
X237261Y588512D01*
X238594Y589067D01*
G54D10*
X288058Y586289D02*
X288725Y585178D01*
X290058Y584623D01*
X291392Y584623D01*
X292725Y585178D01*
X293392Y586289D01*
X293392Y589067D01*
X293392Y589623D01*
X291392Y588512D01*
X290058Y588512D01*
X288725Y589067D01*
X288058Y590178D01*
X288058Y591845D01*
X288725Y592956D01*
X290058Y593512D01*
X291392Y593512D01*
X292725Y592956D01*
X293392Y591845D01*
X293392Y589067D01*
G54D10*
X309478Y590178D02*
X312812Y593512D01*
X312812Y584623D01*
G54D10*
X321256Y591845D02*
X321256Y586289D01*
X320589Y585178D01*
X319256Y584623D01*
X317922Y584623D01*
X316589Y585178D01*
X315922Y586289D01*
X315922Y591845D01*
X316589Y592956D01*
X317922Y593512D01*
X319256Y593512D01*
X320589Y592956D01*
X321256Y591845D01*
G54D10*
X334098Y590178D02*
X337432Y593512D01*
X337432Y584623D01*
G54D10*
X340542Y590178D02*
X343876Y593512D01*
X343876Y584623D01*
G54D10*
X359962Y590178D02*
X363296Y593512D01*
X363296Y584623D01*
G54D10*
X371740Y584623D02*
X366406Y584623D01*
X366406Y585178D01*
X367073Y586289D01*
X371073Y589623D01*
X371740Y590734D01*
X371740Y591845D01*
X371073Y592956D01*
X369740Y593512D01*
X368406Y593512D01*
X367073Y592956D01*
X366406Y591845D01*
G54D10*
X387826Y590178D02*
X391160Y593512D01*
X391160Y584623D01*
G54D10*
X394270Y591845D02*
X394937Y592956D01*
X396270Y593512D01*
X397604Y593512D01*
X398937Y592956D01*
X399604Y591845D01*
X399604Y590734D01*
X398937Y589623D01*
X397604Y589067D01*
X398937Y588512D01*
X399604Y587401D01*
X399604Y586289D01*
X398937Y585178D01*
X397604Y584623D01*
X396270Y584623D01*
X394937Y585178D01*
X394270Y586289D01*
G54D10*
X412446Y590178D02*
X415780Y593512D01*
X415780Y584623D01*
G54D10*
X422890Y584623D02*
X422890Y593512D01*
X418890Y587956D01*
X418890Y586845D01*
X424224Y586845D01*
G54D10*
X437066Y590178D02*
X440400Y593512D01*
X440400Y584623D01*
G54D10*
X448844Y593512D02*
X443510Y593512D01*
X443510Y589623D01*
X444177Y589623D01*
X445510Y590178D01*
X446844Y590178D01*
X448177Y589623D01*
X448844Y588512D01*
X448844Y586289D01*
X448177Y585178D01*
X446844Y584623D01*
X445510Y584623D01*
X444177Y585178D01*
X443510Y586289D01*
G54D10*
X461686Y590178D02*
X465020Y593512D01*
X465020Y584623D01*
G54D10*
X473464Y591845D02*
X472797Y592956D01*
X471464Y593512D01*
X470130Y593512D01*
X468797Y592956D01*
X468130Y591845D01*
X468130Y589067D01*
X468130Y588512D01*
X470130Y589623D01*
X471464Y589623D01*
X472797Y589067D01*
X473464Y587956D01*
X473464Y586289D01*
X472797Y585178D01*
X471464Y584623D01*
X470130Y584623D01*
X468797Y585178D01*
X468130Y586289D01*
X468130Y589067D01*
G54D10*
X514019Y590179D02*
X517353Y593512D01*
X517353Y584623D01*
G54D10*
X520463Y593512D02*
X525797Y593512D01*
X525130Y592401D01*
X523797Y590734D01*
X522463Y588512D01*
X521797Y586845D01*
X521797Y584623D01*
G54D10*
X538639Y590179D02*
X541973Y593512D01*
X541973Y584623D01*
G54D10*
X548417Y589068D02*
X547083Y589068D01*
X545750Y589623D01*
X545083Y590734D01*
X545083Y591845D01*
X545750Y592956D01*
X547083Y593512D01*
X548417Y593512D01*
X549750Y592956D01*
X550417Y591845D01*
X550417Y590734D01*
X549750Y589623D01*
X548417Y589068D01*
X549750Y588512D01*
X550417Y587401D01*
X550417Y586290D01*
X549750Y585179D01*
X548417Y584623D01*
X547083Y584623D01*
X545750Y585179D01*
X545083Y586290D01*
X545083Y587401D01*
X545750Y588512D01*
X547083Y589068D01*
G54D10*
X563259Y590179D02*
X566593Y593512D01*
X566593Y584623D01*
G54D10*
X569703Y586290D02*
X570370Y585179D01*
X571703Y584623D01*
X573037Y584623D01*
X574370Y585179D01*
X575037Y586290D01*
X575037Y589068D01*
X575037Y589623D01*
X573037Y588512D01*
X571703Y588512D01*
X570370Y589068D01*
X569703Y590179D01*
X569703Y591845D01*
X570370Y592956D01*
X571703Y593512D01*
X573037Y593512D01*
X574370Y592956D01*
X575037Y591845D01*
X575037Y589068D01*
G54D10*
X593213Y584623D02*
X587879Y584623D01*
X587879Y585179D01*
X588546Y586290D01*
X592546Y589623D01*
X593213Y590734D01*
X593213Y591845D01*
X592546Y592956D01*
X591213Y593512D01*
X589879Y593512D01*
X588546Y592956D01*
X587879Y591845D01*
G54D10*
X601657Y591845D02*
X601657Y586290D01*
X600990Y585179D01*
X599657Y584623D01*
X598323Y584623D01*
X596990Y585179D01*
X596323Y586290D01*
X596323Y591845D01*
X596990Y592956D01*
X598323Y593512D01*
X599657Y593512D01*
X600990Y592956D01*
X601657Y591845D01*
G54D10*
X619833Y584623D02*
X614499Y584623D01*
X614499Y585179D01*
X615166Y586290D01*
X619166Y589623D01*
X619833Y590734D01*
X619833Y591845D01*
X619166Y592956D01*
X617833Y593512D01*
X616499Y593512D01*
X615166Y592956D01*
X614499Y591845D01*
G54D10*
X622943Y590179D02*
X626277Y593512D01*
X626277Y584623D01*
G54D10*
X644453Y584623D02*
X639119Y584623D01*
X639119Y585179D01*
X639786Y586290D01*
X643786Y589623D01*
X644453Y590734D01*
X644453Y591845D01*
X643786Y592956D01*
X642453Y593512D01*
X641119Y593512D01*
X639786Y592956D01*
X639119Y591845D01*
G54D10*
X652897Y584623D02*
X647563Y584623D01*
X647563Y585179D01*
X648230Y586290D01*
X652230Y589623D01*
X652897Y590734D01*
X652897Y591845D01*
X652230Y592956D01*
X650897Y593512D01*
X649563Y593512D01*
X648230Y592956D01*
X647563Y591845D01*
G54D10*
X671073Y584623D02*
X665739Y584623D01*
X665739Y585179D01*
X666406Y586290D01*
X670406Y589623D01*
X671073Y590734D01*
X671073Y591845D01*
X670406Y592956D01*
X669073Y593512D01*
X667739Y593512D01*
X666406Y592956D01*
X665739Y591845D01*
G54D10*
X674183Y591845D02*
X674850Y592956D01*
X676183Y593512D01*
X677517Y593512D01*
X678850Y592956D01*
X679517Y591845D01*
X679517Y590734D01*
X678850Y589623D01*
X677517Y589068D01*
X678850Y588512D01*
X679517Y587401D01*
X679517Y586290D01*
X678850Y585179D01*
X677517Y584623D01*
X676183Y584623D01*
X674850Y585179D01*
X674183Y586290D01*
G54D10*
X697693Y584623D02*
X692359Y584623D01*
X692359Y585179D01*
X693026Y586290D01*
X697026Y589623D01*
X697693Y590734D01*
X697693Y591845D01*
X697026Y592956D01*
X695693Y593512D01*
X694359Y593512D01*
X693026Y592956D01*
X692359Y591845D01*
G54D10*
X704803Y584623D02*
X704803Y593512D01*
X700803Y587956D01*
X700803Y586845D01*
X706137Y586845D01*
G54D10*
X747953Y584623D02*
X742619Y584623D01*
X742619Y585179D01*
X743286Y586290D01*
X747286Y589623D01*
X747953Y590734D01*
X747953Y591845D01*
X747286Y592956D01*
X745953Y593512D01*
X744619Y593512D01*
X743286Y592956D01*
X742619Y591845D01*
G54D10*
X756397Y593512D02*
X751063Y593512D01*
X751063Y589623D01*
X751730Y589623D01*
X753063Y590179D01*
X754397Y590179D01*
X755730Y589623D01*
X756397Y588512D01*
X756397Y586290D01*
X755730Y585179D01*
X754397Y584623D01*
X753063Y584623D01*
X751730Y585179D01*
X751063Y586290D01*
G54D10*
X774573Y584623D02*
X769239Y584623D01*
X769239Y585179D01*
X769906Y586290D01*
X773906Y589623D01*
X774573Y590734D01*
X774573Y591845D01*
X773906Y592956D01*
X772573Y593512D01*
X771239Y593512D01*
X769906Y592956D01*
X769239Y591845D01*
G54D10*
X783017Y591845D02*
X782350Y592956D01*
X781017Y593512D01*
X779683Y593512D01*
X778350Y592956D01*
X777683Y591845D01*
X777683Y589068D01*
X777683Y588512D01*
X779683Y589623D01*
X781017Y589623D01*
X782350Y589068D01*
X783017Y587956D01*
X783017Y586290D01*
X782350Y585179D01*
X781017Y584623D01*
X779683Y584623D01*
X778350Y585179D01*
X777683Y586290D01*
X777683Y589068D01*
G54D10*
X797949Y584623D02*
X792615Y584623D01*
X792615Y585179D01*
X793282Y586290D01*
X797282Y589623D01*
X797949Y590734D01*
X797949Y591845D01*
X797282Y592956D01*
X795949Y593512D01*
X794615Y593512D01*
X793282Y592956D01*
X792615Y591845D01*
G54D10*
X801059Y593512D02*
X806393Y593512D01*
X805726Y592401D01*
X804393Y590734D01*
X803059Y588512D01*
X802393Y586845D01*
X802393Y584623D01*
G54D10*
X821325Y584623D02*
X815991Y584623D01*
X815991Y585179D01*
X816658Y586290D01*
X820658Y589623D01*
X821325Y590734D01*
X821325Y591845D01*
X820658Y592956D01*
X819325Y593512D01*
X817991Y593512D01*
X816658Y592956D01*
X815991Y591845D01*
G54D10*
X827769Y589068D02*
X826435Y589068D01*
X825102Y589623D01*
X824435Y590734D01*
X824435Y591845D01*
X825102Y592956D01*
X826435Y593512D01*
X827769Y593512D01*
X829102Y592956D01*
X829769Y591845D01*
X829769Y590734D01*
X829102Y589623D01*
X827769Y589068D01*
X829102Y588512D01*
X829769Y587401D01*
X829769Y586290D01*
X829102Y585179D01*
X827769Y584623D01*
X826435Y584623D01*
X825102Y585179D01*
X824435Y586290D01*
X824435Y587401D01*
X825102Y588512D01*
X826435Y589068D01*
G54D10*
X844701Y584623D02*
X839367Y584623D01*
X839367Y585179D01*
X840034Y586290D01*
X844034Y589623D01*
X844701Y590734D01*
X844701Y591845D01*
X844034Y592956D01*
X842701Y593512D01*
X841367Y593512D01*
X840034Y592956D01*
X839367Y591845D01*
G54D10*
X847811Y586290D02*
X848478Y585179D01*
X849811Y584623D01*
X851145Y584623D01*
X852478Y585179D01*
X853145Y586290D01*
X853145Y589068D01*
X853145Y589623D01*
X851145Y588512D01*
X849811Y588512D01*
X848478Y589068D01*
X847811Y590179D01*
X847811Y591845D01*
X848478Y592956D01*
X849811Y593512D01*
X851145Y593512D01*
X852478Y592956D01*
X853145Y591845D01*
X853145Y589068D01*
G54D10*
X865987Y591845D02*
X866654Y592956D01*
X867987Y593512D01*
X869321Y593512D01*
X870654Y592956D01*
X871321Y591845D01*
X871321Y590734D01*
X870654Y589623D01*
X869321Y589068D01*
X870654Y588512D01*
X871321Y587401D01*
X871321Y586290D01*
X870654Y585179D01*
X869321Y584623D01*
X867987Y584623D01*
X866654Y585179D01*
X865987Y586290D01*
G54D10*
X879765Y591845D02*
X879765Y586290D01*
X879098Y585179D01*
X877765Y584623D01*
X876431Y584623D01*
X875098Y585179D01*
X874431Y586290D01*
X874431Y591845D01*
X875098Y592956D01*
X876431Y593512D01*
X877765Y593512D01*
X879098Y592956D01*
X879765Y591845D01*
G54D10*
X892607Y591845D02*
X893274Y592956D01*
X894607Y593512D01*
X895941Y593512D01*
X897274Y592956D01*
X897941Y591845D01*
X897941Y590734D01*
X897274Y589623D01*
X895941Y589068D01*
X897274Y588512D01*
X897941Y587401D01*
X897941Y586290D01*
X897274Y585179D01*
X895941Y584623D01*
X894607Y584623D01*
X893274Y585179D01*
X892607Y586290D01*
G54D10*
X901051Y590179D02*
X904385Y593512D01*
X904385Y584623D01*
G54D10*
X917227Y591845D02*
X917894Y592956D01*
X919227Y593512D01*
X920561Y593512D01*
X921894Y592956D01*
X922561Y591845D01*
X922561Y590734D01*
X921894Y589623D01*
X920561Y589068D01*
X921894Y588512D01*
X922561Y587401D01*
X922561Y586290D01*
X921894Y585179D01*
X920561Y584623D01*
X919227Y584623D01*
X917894Y585179D01*
X917227Y586290D01*
G54D10*
X931005Y584623D02*
X925671Y584623D01*
X925671Y585179D01*
X926338Y586290D01*
X930338Y589623D01*
X931005Y590734D01*
X931005Y591845D01*
X930338Y592956D01*
X929005Y593512D01*
X927671Y593512D01*
X926338Y592956D01*
X925671Y591845D01*
G54D10*
X591540Y782346D02*
X592207Y783457D01*
X593540Y784013D01*
X594874Y784013D01*
X596207Y783457D01*
X596874Y782346D01*
X596874Y781235D01*
X596207Y780124D01*
X594874Y779568D01*
X596207Y779013D01*
X596874Y777902D01*
X596874Y776790D01*
X596207Y775679D01*
X594874Y775124D01*
X593540Y775124D01*
X592207Y775679D01*
X591540Y776790D01*
G54D10*
X599984Y782346D02*
X600651Y783457D01*
X601984Y784013D01*
X603318Y784013D01*
X604651Y783457D01*
X605318Y782346D01*
X605318Y781235D01*
X604651Y780124D01*
X603318Y779568D01*
X604651Y779013D01*
X605318Y777902D01*
X605318Y776790D01*
X604651Y775679D01*
X603318Y775124D01*
X601984Y775124D01*
X600651Y775679D01*
X599984Y776790D01*
G54D10*
X618160Y782346D02*
X618827Y783457D01*
X620160Y784013D01*
X621494Y784013D01*
X622827Y783457D01*
X623494Y782346D01*
X623494Y781235D01*
X622827Y780124D01*
X621494Y779568D01*
X622827Y779013D01*
X623494Y777902D01*
X623494Y776790D01*
X622827Y775679D01*
X621494Y775124D01*
X620160Y775124D01*
X618827Y775679D01*
X618160Y776790D01*
G54D10*
X630604Y775124D02*
X630604Y784013D01*
X626604Y778457D01*
X626604Y777346D01*
X631938Y777346D01*
G54D10*
X641536Y782346D02*
X642203Y783457D01*
X643536Y784013D01*
X644870Y784013D01*
X646203Y783457D01*
X646870Y782346D01*
X646870Y781235D01*
X646203Y780124D01*
X644870Y779568D01*
X646203Y779013D01*
X646870Y777902D01*
X646870Y776790D01*
X646203Y775679D01*
X644870Y775124D01*
X643536Y775124D01*
X642203Y775679D01*
X641536Y776790D01*
G54D10*
X655314Y784013D02*
X649980Y784013D01*
X649980Y780124D01*
X650647Y780124D01*
X651980Y780679D01*
X653314Y780679D01*
X654647Y780124D01*
X655314Y779013D01*
X655314Y776790D01*
X654647Y775679D01*
X653314Y775124D01*
X651980Y775124D01*
X650647Y775679D01*
X649980Y776790D01*
G54D10*
X664912Y782346D02*
X665579Y783457D01*
X666912Y784013D01*
X668246Y784013D01*
X669579Y783457D01*
X670246Y782346D01*
X670246Y781235D01*
X669579Y780124D01*
X668246Y779568D01*
X669579Y779013D01*
X670246Y777902D01*
X670246Y776790D01*
X669579Y775679D01*
X668246Y775124D01*
X666912Y775124D01*
X665579Y775679D01*
X664912Y776790D01*
G54D10*
X678690Y782346D02*
X678023Y783457D01*
X676690Y784013D01*
X675356Y784013D01*
X674023Y783457D01*
X673356Y782346D01*
X673356Y779568D01*
X673356Y779013D01*
X675356Y780124D01*
X676690Y780124D01*
X678023Y779568D01*
X678690Y778457D01*
X678690Y776790D01*
X678023Y775679D01*
X676690Y775124D01*
X675356Y775124D01*
X674023Y775679D01*
X673356Y776790D01*
X673356Y779568D01*
G54D10*
X688288Y782346D02*
X688955Y783457D01*
X690288Y784013D01*
X691622Y784013D01*
X692955Y783457D01*
X693622Y782346D01*
X693622Y781235D01*
X692955Y780124D01*
X691622Y779568D01*
X692955Y779013D01*
X693622Y777902D01*
X693622Y776790D01*
X692955Y775679D01*
X691622Y775124D01*
X690288Y775124D01*
X688955Y775679D01*
X688288Y776790D01*
G54D10*
X696732Y784013D02*
X702066Y784013D01*
X701399Y782902D01*
X700066Y781235D01*
X698732Y779013D01*
X698066Y777346D01*
X698066Y775124D01*
G54D10*
X714908Y782346D02*
X715575Y783457D01*
X716908Y784013D01*
X718242Y784013D01*
X719575Y783457D01*
X720242Y782346D01*
X720242Y781235D01*
X719575Y780124D01*
X718242Y779568D01*
X719575Y779013D01*
X720242Y777902D01*
X720242Y776790D01*
X719575Y775679D01*
X718242Y775124D01*
X716908Y775124D01*
X715575Y775679D01*
X714908Y776790D01*
G54D10*
X726686Y779568D02*
X725352Y779568D01*
X724019Y780124D01*
X723352Y781235D01*
X723352Y782346D01*
X724019Y783457D01*
X725352Y784013D01*
X726686Y784013D01*
X728019Y783457D01*
X728686Y782346D01*
X728686Y781235D01*
X728019Y780124D01*
X726686Y779568D01*
X728019Y779013D01*
X728686Y777902D01*
X728686Y776790D01*
X728019Y775679D01*
X726686Y775124D01*
X725352Y775124D01*
X724019Y775679D01*
X723352Y776790D01*
X723352Y777902D01*
X724019Y779013D01*
X725352Y779568D01*
G54D10*
X741528Y782346D02*
X742195Y783457D01*
X743528Y784013D01*
X744862Y784013D01*
X746195Y783457D01*
X746862Y782346D01*
X746862Y781235D01*
X746195Y780124D01*
X744862Y779568D01*
X746195Y779013D01*
X746862Y777902D01*
X746862Y776790D01*
X746195Y775679D01*
X744862Y775124D01*
X743528Y775124D01*
X742195Y775679D01*
X741528Y776790D01*
G54D10*
X749972Y776790D02*
X750639Y775679D01*
X751972Y775124D01*
X753306Y775124D01*
X754639Y775679D01*
X755306Y776790D01*
X755306Y779568D01*
X755306Y780124D01*
X753306Y779013D01*
X751972Y779013D01*
X750639Y779568D01*
X749972Y780679D01*
X749972Y782346D01*
X750639Y783457D01*
X751972Y784013D01*
X753306Y784013D01*
X754639Y783457D01*
X755306Y782346D01*
X755306Y779568D01*
G54D10*
X772148Y775124D02*
X772148Y784013D01*
X768148Y778457D01*
X768148Y777346D01*
X773482Y777346D01*
G54D10*
X781926Y782346D02*
X781926Y776790D01*
X781259Y775679D01*
X779926Y775124D01*
X778592Y775124D01*
X777259Y775679D01*
X776592Y776790D01*
X776592Y782346D01*
X777259Y783457D01*
X778592Y784013D01*
X779926Y784013D01*
X781259Y783457D01*
X781926Y782346D01*
G54D12*
X850900Y774700D02*
X850900Y749300D01*
X800100Y749300D01*
X800100Y774700D01*
X850900Y774700D01*
G54D13*
G75*
G01X47625Y571500D02*
G03X47625Y571500I-9525J0D01*
G01*
G54D13*
G75*
G01X276225Y571500D02*
G03X276225Y571500I-9525J0D01*
G01*
G54D13*
G75*
G01X504825Y571500D02*
G03X504825Y571500I-9525J0D01*
G01*
G54D13*
G75*
G01X733425Y571500D02*
G03X733425Y571500I-9525J0D01*
G01*
G54D13*
G75*
G01X581025Y762000D02*
G03X581025Y762000I-9525J0D01*
G01*
G54D13*
G75*
G01X263525Y952500D02*
G03X263525Y952500I-9525J0D01*
G01*
G54D13*
G75*
G01X936625Y850900D02*
G03X936625Y850900I-9525J0D01*
G01*
G54D13*
G75*
G01X936625Y876300D02*
G03X936625Y876300I-9525J0D01*
G01*
G54D13*
G75*
G01X936625Y901700D02*
G03X936625Y901700I-9525J0D01*
G01*
G54D13*
G75*
G01X771525Y533400D02*
G03X771525Y533400I-9525J0D01*
G01*
G54D13*
G75*
G01X771525Y508000D02*
G03X771525Y508000I-9525J0D01*
G01*
G54D13*
G75*
G01X555625Y533400D02*
G03X555625Y533400I-9525J0D01*
G01*
G54D13*
G75*
G01X555625Y508000D02*
G03X555625Y508000I-9525J0D01*
G01*
G54D13*
G75*
G01X339725Y508000D02*
G03X339725Y508000I-9525J0D01*
G01*
G54D13*
G75*
G01X339725Y533400D02*
G03X339725Y533400I-9525J0D01*
G01*
G54D13*
G75*
G01X250825Y647700D02*
G03X250825Y647700I-9525J0D01*
G01*
G54D13*
G75*
G01X479425Y647700D02*
G03X479425Y647700I-9525J0D01*
G01*
G54D13*
G75*
G01X708025Y647700D02*
G03X708025Y647700I-9525J0D01*
G01*
G54D13*
G75*
G01X936625Y647700D02*
G03X936625Y647700I-9525J0D01*
G01*
G54D13*
G75*
G01X784225Y838200D02*
G03X784225Y838200I-9525J0D01*
G01*
G54D13*
G75*
G01X263525Y914400D02*
G03X263525Y914400I-9525J0D01*
G01*
G54D13*
G75*
G01X555625Y800100D02*
G03X555625Y800100I-9525J0D01*
G01*
G54D13*
G75*
G01X517525Y800100D02*
G03X517525Y800100I-9525J0D01*
G01*
G54D13*
G75*
G01X517525Y901700D02*
G03X517525Y901700I-9525J0D01*
G01*
G54D13*
G75*
G01X555625Y901700D02*
G03X555625Y901700I-9525J0D01*
G01*
G54D13*
G75*
G01X911225Y787400D02*
G03X911225Y787400I-9525J0D01*
G01*
G54D13*
G75*
G01X111125Y952500D02*
G03X111125Y952500I-9525J0D01*
G01*
G54D10*
X857156Y791800D02*
X860712Y791800D01*
X860267Y790689D01*
X859378Y789023D01*
X858489Y786800D01*
X858045Y785134D01*
X858045Y782911D01*
G54D10*
X867379Y782911D02*
X863823Y782911D01*
X863823Y783467D01*
X864267Y784578D01*
X866934Y787911D01*
X867379Y789023D01*
X867379Y790134D01*
X866934Y791245D01*
X866045Y791800D01*
X865156Y791800D01*
X864267Y791245D01*
X863823Y790134D01*
G54D10*
X870490Y788467D02*
X872712Y791800D01*
X872712Y782911D01*
G54D10*
X875823Y784578D02*
X876267Y783467D01*
X877156Y782911D01*
X878045Y782911D01*
X878934Y783467D01*
X879379Y784578D01*
X879379Y787356D01*
X879379Y787911D01*
X878045Y786800D01*
X877156Y786800D01*
X876267Y787356D01*
X875823Y788467D01*
X875823Y790134D01*
X876267Y791245D01*
X877156Y791800D01*
X878045Y791800D01*
X878934Y791245D01*
X879379Y790134D01*
X879379Y787356D01*
G54D12*
X750921Y871493D02*
X746159Y876255D01*
X746159Y873080D01*
X746159Y876255D01*
X749334Y876255D01*
G54D10*
X754299Y871418D02*
X755188Y870863D01*
X756076Y870863D01*
X756965Y871418D01*
X756965Y872529D01*
X756521Y873085D01*
X754743Y873640D01*
X754299Y874196D01*
X754299Y875307D01*
X755188Y875863D01*
X756076Y875863D01*
X756965Y875307D01*
G54D10*
X760077Y870863D02*
X760077Y879752D01*
G54D10*
X761410Y874196D02*
X762743Y870863D01*
G54D10*
X760077Y873085D02*
X762743Y875863D01*
G54D10*
X765855Y870863D02*
X765855Y875863D01*
G54D10*
X765855Y877529D02*
X765855Y877529D01*
G54D10*
X768966Y875863D02*
X768966Y868640D01*
G54D10*
X768966Y872529D02*
X769410Y871085D01*
X770299Y870863D01*
X771188Y871085D01*
X771632Y872196D01*
X771632Y874418D01*
X771188Y875529D01*
X770299Y875863D01*
X769410Y875529D01*
X768966Y874196D01*
G54D12*
X611221Y676230D02*
X606459Y680993D01*
X606459Y677818D01*
X606459Y680993D01*
X609634Y680993D01*
G54D10*
X614599Y676156D02*
X615488Y675600D01*
X616376Y675600D01*
X617265Y676156D01*
X617265Y677267D01*
X616821Y677822D01*
X615043Y678378D01*
X614599Y678933D01*
X614599Y680045D01*
X615488Y680600D01*
X616376Y680600D01*
X617265Y680045D01*
G54D10*
X620377Y675600D02*
X620377Y684489D01*
G54D10*
X621710Y678933D02*
X623043Y675600D01*
G54D10*
X620377Y677822D02*
X623043Y680600D01*
G54D10*
X626155Y675600D02*
X626155Y680600D01*
G54D10*
X626155Y682267D02*
X626155Y682267D01*
G54D10*
X629266Y680600D02*
X629266Y673378D01*
G54D10*
X629266Y677267D02*
X629710Y675822D01*
X630599Y675600D01*
X631488Y675822D01*
X631932Y676933D01*
X631932Y679156D01*
X631488Y680267D01*
X630599Y680600D01*
X629710Y680267D01*
X629266Y678933D01*
G54D12*
X839821Y677818D02*
X835059Y682580D01*
X835059Y679405D01*
X835059Y682580D01*
X838234Y682580D01*
G54D10*
X843199Y677743D02*
X844088Y677188D01*
X844976Y677188D01*
X845865Y677743D01*
X845865Y678854D01*
X845421Y679410D01*
X843643Y679965D01*
X843199Y680521D01*
X843199Y681632D01*
X844088Y682188D01*
X844976Y682188D01*
X845865Y681632D01*
G54D10*
X848977Y677188D02*
X848977Y686076D01*
G54D10*
X850310Y680521D02*
X851643Y677188D01*
G54D10*
X848977Y679410D02*
X851643Y682188D01*
G54D10*
X854755Y677188D02*
X854755Y682188D01*
G54D10*
X854755Y683854D02*
X854755Y683854D01*
G54D10*
X857866Y682188D02*
X857866Y674965D01*
G54D10*
X857866Y678854D02*
X858310Y677410D01*
X859199Y677188D01*
X860088Y677410D01*
X860532Y678521D01*
X860532Y680743D01*
X860088Y681854D01*
X859199Y682188D01*
X858310Y681854D01*
X857866Y680521D01*
G54D12*
X382621Y677818D02*
X377859Y682580D01*
X377859Y679405D01*
X377859Y682580D01*
X381034Y682580D01*
G54D10*
X385999Y677743D02*
X386888Y677188D01*
X387776Y677188D01*
X388665Y677743D01*
X388665Y678854D01*
X388221Y679410D01*
X386443Y679965D01*
X385999Y680521D01*
X385999Y681632D01*
X386888Y682188D01*
X387776Y682188D01*
X388665Y681632D01*
G54D10*
X391777Y677188D02*
X391777Y686076D01*
G54D10*
X393110Y680521D02*
X394443Y677188D01*
G54D10*
X391777Y679410D02*
X394443Y682188D01*
G54D10*
X397555Y677188D02*
X397555Y682188D01*
G54D10*
X397555Y683854D02*
X397555Y683854D01*
G54D10*
X400666Y682188D02*
X400666Y674965D01*
G54D10*
X400666Y678854D02*
X401110Y677410D01*
X401999Y677188D01*
X402888Y677410D01*
X403332Y678521D01*
X403332Y680743D01*
X402888Y681854D01*
X401999Y682188D01*
X401110Y681854D01*
X400666Y680521D01*
G54D12*
X201607Y690523D02*
X206369Y695286D01*
X203194Y695286D01*
X206369Y695286D01*
X206369Y692111D01*
G54D10*
X185974Y682506D02*
X186863Y681950D01*
X187751Y681950D01*
X188640Y682506D01*
X188640Y683617D01*
X188196Y684172D01*
X186418Y684728D01*
X185974Y685283D01*
X185974Y686395D01*
X186863Y686950D01*
X187751Y686950D01*
X188640Y686395D01*
G54D10*
X191752Y681950D02*
X191752Y690839D01*
G54D10*
X193085Y685283D02*
X194418Y681950D01*
G54D10*
X191752Y684172D02*
X194418Y686950D01*
G54D10*
X197530Y681950D02*
X197530Y686950D01*
G54D10*
X197530Y688617D02*
X197530Y688617D01*
G54D10*
X200641Y686950D02*
X200641Y679728D01*
G54D10*
X200641Y683617D02*
X201085Y682172D01*
X201974Y681950D01*
X202863Y682172D01*
X203307Y683283D01*
X203307Y685506D01*
X202863Y686617D01*
X201974Y686950D01*
X201085Y686617D01*
X200641Y685283D01*
G54D12*
G75*
G01X871538Y500062D02*
G03X871538Y500062I-6350J0D01*
G01*
G54D12*
X858838Y493712D02*
X871538Y506412D01*
G54D12*
G75*
G01X177800Y685800D02*
G03X177800Y685800I-9525J0D01*
G01*
G54D10*
X170788Y689020D02*
X170788Y683464D01*
X170121Y682353D01*
X168788Y681798D01*
X167454Y681798D01*
X166121Y682353D01*
X165454Y683464D01*
X165454Y689020D01*
X166121Y690131D01*
X167454Y690687D01*
X168788Y690687D01*
X170121Y690131D01*
X170788Y689020D01*
G54D12*
G75*
G01X431800Y685800D02*
G03X431800Y685800I-9525J0D01*
G01*
G54D10*
X419454Y687353D02*
X422788Y690687D01*
X422788Y681798D01*
G54D12*
G75*
G01X673100Y685800D02*
G03X673100Y685800I-9525J0D01*
G01*
G54D10*
X666088Y681798D02*
X660754Y681798D01*
X660754Y682353D01*
X661421Y683464D01*
X665421Y686798D01*
X666088Y687909D01*
X666088Y689020D01*
X665421Y690131D01*
X664088Y690687D01*
X662754Y690687D01*
X661421Y690131D01*
X660754Y689020D01*
G54D12*
G75*
G01X901700Y685800D02*
G03X901700Y685800I-9525J0D01*
G01*
G54D10*
X889354Y689020D02*
X890021Y690131D01*
X891354Y690687D01*
X892688Y690687D01*
X894021Y690131D01*
X894688Y689020D01*
X894688Y687909D01*
X894021Y686798D01*
X892688Y686242D01*
X894021Y685687D01*
X894688Y684576D01*
X894688Y683464D01*
X894021Y682353D01*
X892688Y681798D01*
X891354Y681798D01*
X890021Y682353D01*
X889354Y683464D01*
G54D12*
G75*
G01X766335Y893013D02*
G03X766335Y893013I-9525J0D01*
G01*
G54D10*
X757989Y889011D02*
X757989Y897900D01*
X753989Y892344D01*
X753989Y891233D01*
X759323Y891233D01*
G54D12*
X806450Y927100D02*
X876300Y927100D01*
G54D12*
X876300Y800100D02*
X806450Y800100D01*
G54D10*
X205612Y971508D02*
X205612Y976508D01*
G54D10*
X205612Y978174D02*
X205612Y978174D01*
G54D10*
X212278Y971508D02*
X208723Y971508D01*
X208723Y972063D01*
X209167Y973174D01*
X211834Y976508D01*
X212278Y977619D01*
X212278Y978730D01*
X211834Y979841D01*
X210945Y980396D01*
X210056Y980396D01*
X209167Y979841D01*
X208723Y978730D01*
G54D10*
X217612Y976174D02*
X216723Y976508D01*
X215834Y976174D01*
X215390Y975063D01*
X215390Y972841D01*
X215834Y971730D01*
X216723Y971508D01*
X217612Y971730D01*
G54D12*
X279400Y546100D02*
X279400Y533400D01*
G54D12*
X279400Y495300D02*
X279400Y508000D01*
G54D12*
X495300Y546100D02*
X495300Y533400D01*
G54D12*
X495300Y495300D02*
X495300Y508000D01*
G54D12*
X711200Y546100D02*
X711200Y533400D01*
G54D12*
X711200Y495300D02*
X711200Y508000D01*
G54D12*
G75*
G01X425525Y975633D02*
G03X425525Y975633I-7936J0D01*
G01*
G54D10*
X800006Y782911D02*
X800006Y791800D01*
X802228Y786245D01*
X804450Y791800D01*
X804450Y782911D01*
G54D10*
X807561Y782911D02*
X809783Y791800D01*
X812005Y782911D01*
G54D10*
X808450Y786245D02*
X811117Y786245D01*
G54D10*
X815116Y791800D02*
X819560Y782911D01*
G54D10*
X815116Y782911D02*
X819560Y791800D01*
G54D12*
G75*
G01X880377Y764034D02*
G03X880377Y764034I-9525J0D01*
G01*
G54D10*
X871364Y764476D02*
X870031Y764476D01*
X868698Y765031D01*
X868031Y766142D01*
X868031Y767253D01*
X868698Y768365D01*
X870031Y768920D01*
X871364Y768920D01*
X872698Y768365D01*
X873364Y767253D01*
X873364Y766142D01*
X872698Y765031D01*
X871364Y764476D01*
X872698Y763920D01*
X873364Y762809D01*
X873364Y761698D01*
X872698Y760587D01*
X871364Y760031D01*
X870031Y760031D01*
X868698Y760587D01*
X868031Y761698D01*
X868031Y762809D01*
X868698Y763920D01*
X870031Y764476D01*
G54D12*
X860878Y772696D02*
X856115Y777458D01*
X856115Y774283D01*
X856115Y777458D01*
X859290Y777458D01*
G54D10*
X436446Y853354D02*
X427557Y853354D01*
X433113Y855577D01*
X427557Y857799D01*
X436446Y857799D01*
G54D10*
X429224Y864465D02*
X434780Y864465D01*
X435891Y864020D01*
X436446Y863132D01*
X436446Y862243D01*
X435891Y861354D01*
X434780Y860909D01*
X429224Y860909D01*
X428113Y861354D01*
X427557Y862243D01*
X427557Y863132D01*
X428113Y864021D01*
X429224Y864465D01*
G54D10*
X434780Y867576D02*
X435891Y868021D01*
X436446Y868910D01*
X436446Y869799D01*
X435891Y870688D01*
X434780Y871132D01*
X433668Y871132D01*
X432557Y870688D01*
X432002Y869799D01*
X432002Y868910D01*
X431446Y868021D01*
X430335Y867576D01*
X429224Y867576D01*
X428113Y868021D01*
X427557Y868910D01*
X427557Y869799D01*
X428113Y870688D01*
X429224Y871132D01*
G54D10*
X436446Y874243D02*
X436446Y877799D01*
G54D10*
X436446Y876021D02*
X427557Y876021D01*
G54D10*
X427557Y874243D02*
X427557Y877799D01*
M02*
