%FSLAX34Y34*%
%MOMM*%
%LNCOPPER_TOP*%
G71*
G01*
%ADD10C, 1.600*%
%ADD11C, 1.520*%
%ADD12C, 0.500*%
%ADD13C, 4.000*%
%ADD14C, 1.520*%
%ADD15C, 1.520*%
%ADD16C, 0.238*%
%ADD17C, 0.520*%
%ADD18R, 1.200X1.000*%
%ADD19C, 0.600*%
%LPD*%
G36*
X98300Y884300D02*
X130300Y884300D01*
X130300Y868300D01*
X98300Y868300D01*
X98300Y884300D01*
G37*
G36*
X98300Y808100D02*
X130300Y808100D01*
X130300Y792100D01*
X98300Y792100D01*
X98300Y808100D01*
G37*
X457200Y914400D02*
G54D10*
D03*
X406400Y914400D02*
G54D10*
D03*
X381000Y914400D02*
G54D10*
D03*
X355600Y914400D02*
G54D10*
D03*
X330200Y914400D02*
G54D10*
D03*
X304800Y914400D02*
G54D10*
D03*
X279400Y914400D02*
G54D10*
D03*
X228600Y914400D02*
G54D10*
D03*
X177800Y762000D02*
G54D10*
D03*
X203200Y762000D02*
G54D10*
D03*
X330200Y762000D02*
G54D10*
D03*
X431800Y762000D02*
G54D10*
D03*
X190500Y723900D02*
G54D11*
D03*
X114300Y647700D02*
G54D11*
D03*
X88900Y647700D02*
G54D11*
D03*
X63500Y647700D02*
G54D11*
D03*
X419100Y723900D02*
G54D11*
D03*
X342900Y647700D02*
G54D11*
D03*
X317500Y647700D02*
G54D11*
D03*
X292100Y647700D02*
G54D11*
D03*
X647700Y723900D02*
G54D11*
D03*
X571500Y647700D02*
G54D11*
D03*
X546100Y647700D02*
G54D11*
D03*
X520700Y647700D02*
G54D11*
D03*
X876300Y723900D02*
G54D11*
D03*
X800100Y647700D02*
G54D11*
D03*
X774700Y647700D02*
G54D11*
D03*
X749300Y647700D02*
G54D11*
D03*
G36*
X589300Y922000D02*
X604500Y922000D01*
X604500Y906800D01*
X589300Y906800D01*
X589300Y922000D01*
G37*
X723900Y914400D02*
G54D11*
D03*
X647700Y838200D02*
G54D11*
D03*
X622300Y838200D02*
G54D11*
D03*
X596900Y838200D02*
G54D11*
D03*
G54D12*
X774700Y647700D02*
X774700Y622300D01*
X546100Y622300D01*
X546100Y647700D01*
X546100Y622300D01*
X317500Y622300D01*
X317500Y647700D01*
X317500Y622300D01*
X88900Y622300D01*
X88900Y647700D01*
G54D12*
X63500Y647700D02*
X88900Y673100D01*
X101600Y660400D01*
X101600Y635000D01*
X279400Y635000D01*
X304800Y660400D01*
X330200Y660400D01*
X330200Y635000D01*
X508000Y635000D01*
X533400Y660400D01*
X558800Y660400D01*
X558800Y635000D01*
X736600Y635000D01*
X749300Y647700D01*
X787400Y533400D02*
G54D10*
D03*
X787400Y508000D02*
G54D10*
D03*
X571500Y533400D02*
G54D10*
D03*
X571500Y508000D02*
G54D10*
D03*
X355600Y533400D02*
G54D10*
D03*
X355600Y508000D02*
G54D10*
D03*
X50800Y520700D02*
G54D13*
D03*
X914400Y520700D02*
G54D13*
D03*
X914400Y952500D02*
G54D13*
D03*
X50800Y952500D02*
G54D13*
D03*
G36*
X157100Y960500D02*
X173100Y960500D01*
X173100Y944500D01*
X157100Y944500D01*
X157100Y960500D01*
G37*
G36*
X93600Y541400D02*
X109600Y541400D01*
X109600Y525400D01*
X93600Y525400D01*
X93600Y541400D01*
G37*
X127000Y533400D02*
G54D10*
D03*
G36*
X817500Y541400D02*
X833500Y541400D01*
X833500Y525400D01*
X817500Y525400D01*
X817500Y541400D01*
G37*
X850900Y533400D02*
G54D10*
D03*
X254000Y952500D02*
G54D14*
D03*
X444500Y952500D02*
G54D14*
D03*
G54D12*
X165100Y952500D02*
X177800Y939800D01*
X203200Y939800D01*
X228600Y914400D01*
X508000Y927100D02*
G54D14*
D03*
X546100Y927100D02*
G54D14*
D03*
X546100Y901700D02*
G54D14*
D03*
X546100Y825500D02*
G54D14*
D03*
G36*
X589300Y960100D02*
X604500Y960100D01*
X604500Y944900D01*
X589300Y944900D01*
X589300Y960100D01*
G37*
X508000Y825500D02*
G54D14*
D03*
G54D15*
X254000Y845800D02*
X254000Y830600D01*
G54D15*
X228600Y845800D02*
X228600Y830600D01*
G54D15*
X203200Y845800D02*
X203200Y830600D01*
G54D15*
X177800Y845800D02*
X177800Y830600D01*
G54D15*
X152400Y845800D02*
X152400Y830600D01*
G54D12*
X406400Y914400D02*
X406400Y927100D01*
X393700Y939800D01*
X254000Y939800D01*
X241300Y927100D01*
X241300Y901700D01*
X203200Y863600D01*
X203200Y838200D01*
G54D12*
X330200Y762000D02*
X330200Y787400D01*
X317500Y800100D01*
X165100Y800100D01*
X152400Y812800D01*
X152400Y838200D01*
G54D12*
X88900Y622300D02*
X63500Y622300D01*
X50800Y635000D01*
X50800Y660400D01*
X101600Y711200D01*
X101600Y746125D01*
X139700Y784225D01*
X139700Y815975D01*
X127000Y828675D01*
X127000Y847725D01*
X142875Y863600D01*
X165100Y863600D01*
X177800Y850900D01*
X177800Y838200D01*
G54D12*
X88900Y673100D02*
X127000Y711200D01*
X127000Y749300D01*
X152400Y774700D01*
X152400Y838200D01*
G54D12*
X596900Y952500D02*
X596900Y914400D01*
G54D12*
X508000Y927100D02*
X495300Y927100D01*
X469900Y901700D01*
X368300Y901700D01*
X355600Y914400D01*
G54D12*
X546100Y927100D02*
X533400Y914400D01*
X495300Y914400D01*
X469900Y889000D01*
X355600Y889000D01*
X330200Y914400D01*
G54D12*
X508000Y825500D02*
X457200Y876300D01*
X342900Y876300D01*
X304800Y914400D01*
G54D12*
X546100Y825500D02*
X533400Y812800D01*
X482600Y812800D01*
X431800Y863600D01*
X330200Y863600D01*
X279400Y914400D01*
G54D12*
X114300Y647700D02*
X152400Y685800D01*
X381000Y685800D01*
X419100Y723900D01*
G54D12*
X342900Y647700D02*
X368300Y673100D01*
X381000Y673100D01*
X393700Y685800D01*
X609600Y685800D01*
X647700Y723900D01*
G54D12*
X571500Y647700D02*
X596900Y673100D01*
X609600Y673100D01*
X622300Y685800D01*
X838200Y685800D01*
X876300Y723900D01*
G54D15*
X830600Y914400D02*
X845800Y914400D01*
G54D15*
X830600Y889000D02*
X845800Y889000D01*
G54D15*
X830600Y863600D02*
X845800Y863600D01*
G54D15*
X830600Y838200D02*
X845800Y838200D01*
G54D15*
X830600Y812800D02*
X845800Y812800D01*
G54D12*
X596900Y838200D02*
X584200Y838200D01*
X571500Y825500D01*
X571500Y793750D01*
X552450Y774700D01*
X482600Y774700D01*
X419100Y838200D01*
X355600Y838200D01*
X317500Y800100D01*
G54D12*
X622300Y838200D02*
X609600Y850900D01*
X584200Y850900D01*
X558800Y825500D01*
X558800Y793750D01*
X552450Y787400D01*
X488950Y787400D01*
X425450Y850900D01*
X317500Y850900D01*
X266700Y901700D01*
G54D12*
X685800Y869950D02*
X685800Y927100D01*
X787400Y927100D01*
X800100Y914400D01*
X800100Y885825D01*
X838200Y863600D01*
G54D12*
X622300Y838200D02*
X635000Y825500D01*
X787400Y825500D01*
X800100Y838200D01*
X838200Y838200D01*
G54D12*
X596900Y838200D02*
X622300Y812800D01*
X838200Y812800D01*
G54D12*
X800100Y647700D02*
X825500Y673100D01*
X850900Y673100D01*
X889000Y711200D01*
X889000Y736600D01*
X863600Y762000D01*
X863600Y838200D01*
X850900Y850900D01*
X787400Y850900D01*
X755650Y882650D01*
X723900Y882650D01*
X723900Y914400D01*
G54D12*
X254000Y952500D02*
X266700Y965200D01*
X660400Y965200D01*
X685800Y939800D01*
X787400Y939800D01*
X800100Y927100D01*
X850900Y927100D01*
X863600Y914400D01*
X863600Y901700D01*
X850900Y889000D01*
X838200Y889000D01*
G54D12*
X546100Y901700D02*
X558800Y901700D01*
X571500Y914400D01*
X571500Y965200D01*
G54D12*
X927100Y787400D02*
X914400Y774700D01*
X914400Y685800D01*
X889000Y660400D01*
X889000Y546100D01*
X876300Y533400D01*
X787400Y533400D01*
G54D12*
X787400Y533400D02*
X774700Y520700D01*
X584200Y520700D01*
X571500Y533400D01*
X558800Y520700D01*
X368300Y520700D01*
X355600Y533400D01*
X342900Y520700D01*
X139700Y520700D01*
X127000Y533400D01*
X101600Y533400D01*
G54D16*
X52673Y749471D02*
X54339Y752471D01*
X56006Y753471D01*
X59339Y753471D01*
G54D16*
X59339Y745471D02*
X46006Y745471D01*
X46006Y750471D01*
X46839Y752471D01*
X48506Y753471D01*
X50173Y753471D01*
X51839Y752471D01*
X52673Y750471D01*
X52673Y745471D01*
G54D16*
X52673Y762138D02*
X52673Y766138D01*
X56839Y766138D01*
X58506Y765138D01*
X59339Y763138D01*
X59339Y761138D01*
X58506Y759138D01*
X56839Y758138D01*
X48506Y758138D01*
X46839Y759138D01*
X46006Y761138D01*
X46006Y763138D01*
X46839Y765138D01*
X48506Y766138D01*
G54D16*
X56839Y783672D02*
X58506Y782672D01*
X59339Y780672D01*
X59339Y778672D01*
X58506Y776672D01*
X56839Y775672D01*
X48506Y775672D01*
X46839Y776672D01*
X46006Y778672D01*
X46006Y780672D01*
X46839Y782672D01*
X48506Y783672D01*
G54D16*
X46006Y788339D02*
X56839Y788339D01*
X58506Y789339D01*
X59339Y791339D01*
X59339Y793339D01*
X58506Y795339D01*
X56839Y796339D01*
X46006Y796339D01*
G54D16*
X56839Y801006D02*
X58506Y802006D01*
X59339Y804006D01*
X59339Y806006D01*
X58506Y808006D01*
X56839Y809006D01*
X55173Y809006D01*
X53506Y808006D01*
X52673Y806006D01*
X52673Y804006D01*
X51839Y802006D01*
X50173Y801006D01*
X48506Y801006D01*
X46839Y802006D01*
X46006Y804006D01*
X46006Y806006D01*
X46839Y808006D01*
X48506Y809006D01*
G54D16*
X59339Y817673D02*
X46006Y817673D01*
G54D16*
X46006Y813673D02*
X46006Y821673D01*
G54D16*
X48506Y834340D02*
X56839Y834340D01*
X58506Y833340D01*
X59339Y831340D01*
X59339Y829340D01*
X58506Y827340D01*
X56839Y826340D01*
X48506Y826340D01*
X46839Y827340D01*
X46006Y829340D01*
X46006Y831340D01*
X46839Y833340D01*
X48506Y834340D01*
G54D16*
X59339Y839007D02*
X46006Y839007D01*
X54339Y844007D01*
X46006Y849007D01*
X59339Y849007D01*
G54D16*
X51839Y858541D02*
X59339Y862541D01*
X51839Y866541D01*
G54D16*
X59339Y879208D02*
X59339Y871208D01*
X58506Y871208D01*
X56839Y872208D01*
X51839Y878208D01*
X50173Y879208D01*
X48506Y879208D01*
X46839Y878208D01*
X46006Y876208D01*
X46006Y874208D01*
X46839Y872208D01*
X48506Y871208D01*
G54D16*
X59339Y884675D02*
X59339Y883875D01*
X58673Y883875D01*
X58673Y884675D01*
X59339Y884675D01*
X59339Y883875D01*
G54D16*
X46006Y897342D02*
X46006Y889342D01*
X51839Y889342D01*
X51839Y890342D01*
X51006Y892342D01*
X51006Y894342D01*
X51839Y896342D01*
X53506Y897342D01*
X56839Y897342D01*
X58506Y896342D01*
X59339Y894342D01*
X59339Y892342D01*
X58506Y890342D01*
X56839Y889342D01*
G54D12*
X457200Y914400D02*
X457200Y939800D01*
X444500Y952500D01*
X927100Y787400D02*
G54D10*
D03*
G36*
X904854Y909300D02*
X909300Y904854D01*
X909300Y898546D01*
X904854Y894100D01*
X898546Y894100D01*
X894100Y898546D01*
X894100Y904854D01*
X898546Y909300D01*
X904854Y909300D01*
G37*
G54D12*
X863600Y901700D02*
X901700Y901700D01*
G36*
X342900Y520700D02*
X355600Y508000D01*
X368300Y520700D01*
X355600Y533400D01*
X342900Y520700D01*
G37*
G54D17*
X342900Y520700D02*
X355600Y508000D01*
X368300Y520700D01*
X355600Y533400D01*
X342900Y520700D01*
G36*
X571500Y533400D02*
X558800Y520700D01*
X571500Y508000D01*
X584200Y520700D01*
X571500Y533400D01*
G37*
G54D17*
X571500Y533400D02*
X558800Y520700D01*
X571500Y508000D01*
X584200Y520700D01*
X571500Y533400D01*
G36*
X787400Y533400D02*
X774700Y520700D01*
X787400Y508000D01*
X850900Y508000D01*
X876300Y533400D01*
X787400Y533400D01*
G37*
G54D17*
X787400Y533400D02*
X774700Y520700D01*
X787400Y508000D01*
X850900Y508000D01*
X876300Y533400D01*
X787400Y533400D01*
G36*
X127000Y787400D02*
X76200Y736600D01*
X76200Y901700D01*
X38100Y939800D01*
X50800Y965200D01*
X63500Y965200D01*
X133350Y895350D01*
X133350Y869950D01*
X114300Y850900D01*
X114300Y825500D01*
X127000Y812800D01*
X127000Y787400D01*
G37*
G54D17*
X127000Y787400D02*
X76200Y736600D01*
X76200Y901700D01*
X38100Y939800D01*
X50800Y965200D01*
X63500Y965200D01*
X133350Y895350D01*
X133350Y869950D01*
X114300Y850900D01*
X114300Y825500D01*
X127000Y812800D01*
X127000Y787400D01*
G36*
X165100Y800100D02*
X152400Y787400D01*
X152400Y812800D01*
X165100Y800100D01*
G37*
G54D17*
X165100Y800100D02*
X152400Y787400D01*
X152400Y812800D01*
X165100Y800100D01*
G36*
X34800Y922400D02*
X66800Y922400D01*
X66800Y906400D01*
X34800Y906400D01*
X34800Y922400D01*
G37*
G54D12*
X381000Y914400D02*
X368300Y927100D01*
X266700Y927100D01*
X266700Y901700D01*
X215900Y850900D01*
X215900Y825500D01*
X203200Y812800D01*
X190500Y812800D01*
X177800Y825500D01*
X177800Y838200D01*
G36*
X228600Y863600D02*
X304800Y863600D01*
X266700Y901700D01*
X228600Y863600D01*
G37*
G54D17*
X228600Y863600D02*
X304800Y863600D01*
X266700Y901700D01*
X228600Y863600D01*
G36*
X846200Y754000D02*
X830200Y754000D01*
X830200Y770000D01*
X846200Y770000D01*
X846200Y754000D01*
G37*
X812800Y762000D02*
G54D10*
D03*
G54D12*
X203200Y762000D02*
X215900Y749300D01*
X800100Y749300D01*
X812800Y762000D01*
G54D12*
X177800Y762000D02*
X203200Y736600D01*
X812800Y736600D01*
X838200Y762000D01*
X368300Y673100D02*
G54D18*
D03*
X368300Y685800D02*
G54D18*
D03*
X596900Y673100D02*
G54D18*
D03*
X596900Y685800D02*
G54D18*
D03*
X825500Y673100D02*
G54D18*
D03*
X825500Y685800D02*
G54D18*
D03*
X736600Y869950D02*
G54D18*
D03*
X736600Y882650D02*
G54D18*
D03*
G54D12*
X685800Y869950D02*
X736600Y869950D01*
X215900Y685800D02*
G54D18*
D03*
X215900Y698500D02*
G54D18*
D03*
G54D12*
X190500Y723900D02*
X215900Y698500D01*
G36*
X889000Y660400D02*
X889000Y685800D01*
X914400Y711200D01*
X914400Y685800D01*
X889000Y660400D01*
G37*
G54D17*
X889000Y660400D02*
X889000Y685800D01*
X914400Y711200D01*
X914400Y685800D01*
X889000Y660400D01*
G36*
X38100Y914400D02*
X63500Y914400D01*
X63500Y952500D01*
X38100Y952500D01*
X38100Y914400D01*
G37*
G54D17*
X38100Y914400D02*
X63500Y914400D01*
X63500Y952500D01*
X38100Y952500D01*
X38100Y914400D01*
G54D15*
X830600Y787400D02*
X845800Y787400D01*
G54D12*
X838200Y787400D02*
X577850Y787400D01*
X552450Y762000D01*
X482600Y762000D01*
X469900Y774700D01*
X444500Y774700D01*
X431800Y762000D01*
G54D19*
G75*
G01X73158Y520700D02*
G03X73158Y520700I-22358J0D01*
G01*
G54D19*
G75*
G01X73158Y952500D02*
G03X73158Y952500I-22358J0D01*
G01*
G54D19*
G75*
G01X936758Y952500D02*
G03X936758Y952500I-22358J0D01*
G01*
G54D19*
G75*
G01X936758Y520700D02*
G03X936758Y520700I-22358J0D01*
G01*
G36*
X139700Y520700D02*
X95250Y520700D01*
X88900Y527050D01*
X88900Y539750D01*
X95250Y546100D01*
X133350Y546100D01*
X158750Y520700D01*
X95250Y520700D01*
X139700Y520700D01*
G37*
G54D12*
X139700Y520700D02*
X95250Y520700D01*
X88900Y527050D01*
X88900Y539750D01*
X95250Y546100D01*
X133350Y546100D01*
X158750Y520700D01*
X95250Y520700D01*
X139700Y520700D01*
G36*
X889000Y558800D02*
X876300Y546100D01*
X800100Y546100D01*
X787400Y533400D01*
X876300Y533400D01*
X889000Y546100D01*
X889000Y558800D01*
G37*
G54D12*
X889000Y558800D02*
X876300Y546100D01*
X800100Y546100D01*
X787400Y533400D01*
X876300Y533400D01*
X889000Y546100D01*
X889000Y558800D01*
G36*
X936625Y917575D02*
X873125Y917575D01*
X854075Y936625D01*
X803275Y936625D01*
X790575Y949325D01*
X688975Y949325D01*
X673100Y965200D01*
X930275Y965200D01*
X936625Y958850D01*
X936625Y917575D01*
G37*
G54D12*
X936625Y917575D02*
X873125Y917575D01*
X854075Y936625D01*
X803275Y936625D01*
X790575Y949325D01*
X688975Y949325D01*
X673100Y965200D01*
X930275Y965200D01*
X936625Y958850D01*
X936625Y917575D01*
G54D12*
X50800Y539750D02*
X50800Y622300D01*
X41275Y631825D01*
X41275Y663575D01*
X76200Y698500D01*
X76200Y762000D01*
G54D12*
X38100Y908050D02*
X38100Y666750D01*
X41275Y663575D01*
G36*
X38100Y908050D02*
X63500Y908050D01*
X69850Y901700D01*
X69850Y742950D01*
X76200Y736600D01*
X76200Y901700D01*
X63500Y914400D01*
X44450Y914400D01*
X38100Y908050D01*
G37*
G54D12*
X38100Y908050D02*
X63500Y908050D01*
X69850Y901700D01*
X69850Y742950D01*
X76200Y736600D01*
X76200Y901700D01*
X63500Y914400D01*
X44450Y914400D01*
X38100Y908050D01*
G36*
X76200Y708025D02*
X53975Y708025D01*
X47625Y714375D01*
X47625Y733425D01*
X38100Y742950D01*
X38100Y666750D01*
X41275Y663575D01*
X76200Y698500D01*
X76200Y708025D01*
G37*
G54D12*
X76200Y708025D02*
X53975Y708025D01*
X47625Y714375D01*
X47625Y733425D01*
X38100Y742950D01*
X38100Y666750D01*
X41275Y663575D01*
X76200Y698500D01*
X76200Y708025D01*
G36*
X330200Y787400D02*
X330200Y812800D01*
X317500Y800100D01*
X330200Y787400D01*
G37*
G54D12*
X330200Y787400D02*
X330200Y812800D01*
X317500Y800100D01*
X330200Y787400D01*
G54D12*
X647700Y838200D02*
X647700Y850900D01*
X666750Y869950D01*
X685800Y869950D01*
M02*
