; Drill file
; Format: 2.4 (00.0000)
M48
INCH
T01C0.0283
T02C0.0354
T03C0.1181
%
G05
G90
T01
X006500Y020000
X006500Y021000
X009500Y021000
X009500Y020000
X009500Y025500
X008500Y025500
X007500Y025500
X006500Y025500
X005500Y025500
X004500Y025500
X003500Y025500
X002500Y025500
X002500Y028500
X003500Y028500
X004500Y028500
X005500Y028500
X006500Y028500
X007500Y028500
X008500Y028500
X009500Y028500
X011500Y028500
X012500Y028500
X013500Y028500
X014500Y028500
X015500Y028500
X016500Y028500
X017500Y028500
X018500Y028500
X020500Y028500
X021500Y028500
X022500Y028500
X023500Y028500
X024500Y028500
X025500Y028500
X026500Y028500
X027500Y028500
X029500Y028500
X030500Y028500
X031500Y028500
X032500Y028500
X033500Y028500
X034500Y028500
X035500Y028500
X036500Y028500
X036500Y025500
X035500Y025500
X034500Y025500
X033500Y025500
X032500Y025500
X031500Y025500
X030500Y025500
X029500Y025500
X027500Y025500
X026500Y025500
X025500Y025500
X024500Y025500
X023500Y025500
X022500Y025500
X021500Y025500
X020500Y025500
X018500Y025500
X017500Y025500
X016500Y025500
X015500Y025500
X014500Y025500
X013500Y025500
X012500Y025500
X011500Y025500
X015000Y021000
X015000Y020000
X018000Y020000
X018000Y021000
X023500Y021000
X023500Y020000
X026500Y020000
X026500Y021000
X026500Y033000
X027500Y033000
X028500Y033000
X029500Y033000
X030500Y033000
X030500Y036000
X029500Y036000
X028500Y036000
X027500Y036000
X026500Y036000
X025500Y036000
X024500Y036000
X023500Y036000
X023500Y033000
X024500Y033000
X025500Y033000
X035500Y032500
X035500Y035500
T02
X001500Y022500
X002500Y022500
X003500Y022500
X004500Y022500
X005500Y022500
X006500Y022500
X007500Y022500
X008500Y022500
X009500Y022500
X010500Y022500
X011500Y022500
X012500Y022500
X013500Y022500
X014500Y022500
X015500Y022500
X016500Y022500
X017500Y022500
X018500Y022500
X019500Y022500
X020500Y022500
X021500Y022500
X022500Y022500
X023500Y022500
X024500Y022500
X025500Y022500
X026500Y022500
X027500Y022500
X028500Y022500
X029500Y022500
X030500Y022500
X031500Y022500
X032500Y022500
X033500Y022500
X034500Y022500
X035500Y022500
X036500Y022500
X036500Y024000
X035500Y024000
X034500Y024000
X033500Y024000
X032500Y024000
X031500Y024000
X030500Y024000
X029500Y024000
X027500Y024000
X026500Y024000
X025500Y024000
X024500Y024000
X023500Y024000
X022500Y024000
X021500Y024000
X020500Y024000
X018500Y024000
X017500Y024000
X016500Y024000
X015500Y024000
X014500Y024000
X013500Y024000
X012500Y024000
X011500Y024000
X009500Y024000
X008500Y024000
X007500Y024000
X006500Y024000
X005500Y024000
X004500Y024000
X003500Y024000
X002500Y024000
X004000Y021000
X005000Y021000
X010500Y021000
X011500Y021000
X011500Y020000
X010500Y020000
X013000Y020000
X013000Y021000
X014000Y021000
X014000Y020000
X019000Y020000
X020000Y020000
X020000Y021000
X019000Y021000
X021500Y021000
X021500Y020000
X022500Y020000
X022500Y021000
X027500Y021000
X028500Y021000
X028500Y020000
X027500Y020000
X030000Y020000
X030000Y021000
X031000Y021000
X031000Y020000
X032500Y021000
X033500Y021000
X033000Y030000
X032000Y030000
X033000Y031000
X033000Y032000
X033000Y033000
X033000Y034000
X033000Y035000
X033000Y036000
X036500Y035500
X036500Y034500
X036500Y033500
X036500Y031000
X035500Y031000
X030500Y031500
X029500Y031500
X028500Y031500
X027500Y031500
X026500Y031500
X025500Y031500
X024500Y031500
X023500Y031500
X023500Y030000
X022500Y030000
X021500Y031500
X021500Y032500
X021500Y033500
X020000Y033500
X020000Y032500
X020000Y031500
X018000Y030000
X017000Y030000
X016000Y030000
X015000Y030000
X014000Y030000
X013000Y030000
X012000Y030000
X011000Y030000
X010000Y030000
X009000Y030000
X008000Y030000
X007000Y030000
X004500Y031500
X006000Y033000
X007000Y033000
X008000Y033000
X009000Y033000
X010000Y033000
X010000Y036000
X011000Y036000
X012000Y036000
X013000Y036000
X014000Y036000
X015000Y036000
X016000Y036000
X017000Y036000
X018000Y036000
X017500Y037500
X016500Y037500
X015500Y037500
X014500Y037500
X013500Y037500
X012000Y037500
X011000Y037500
X010000Y037500
X009000Y037500
X009000Y036000
X008000Y036000
X007000Y036000
X006500Y037500
X007500Y037500
X005000Y037500
X004000Y037500
X002000Y036000
X004500Y034500
X018500Y037500
X020000Y037500
X020000Y036500
X020000Y035500
X021500Y035500
X021500Y036500
X021500Y037500
X023500Y037500
X024500Y037500
X025500Y037500
X025500Y030000
X024500Y030000
X026500Y030000
X027500Y030000
X028500Y030000
X029500Y030000
X030500Y030000
T03
X002000Y020500
X002000Y037500
X036000Y037500
X036000Y020500
M30
